<svg width="390" height="164" viewBox="0 0 390 164" fill="none" xmlns="http://www.w3.org/2000/svg">
<g clip-path="url(#clip0_773_17381)">
<path d="M7.64478 33.7955L0.509796 46.5393C0.175526 47.1363 0 47.8091 0 48.4934V160C0 162.209 1.79086 164 4 164H261C263.209 164 265 162.209 265 160V105.251C265 103.069 263.198 101.357 261.152 100.596C253.581 97.7787 249.257 87.2831 246.989 78.531C246.186 75.4355 242.309 74.1422 239.975 76.3282L238.585 77.63C236.696 79.3988 233.651 78.9361 232.373 76.6862L226.464 66.284C225.354 64.3311 222.634 64.0918 221.201 65.8208C219.707 67.6231 216.848 67.2718 215.835 65.1615L209.824 52.6406C208.326 49.5206 203.841 49.6464 202.521 52.8455L195.719 69.3202C194.897 71.3131 192.643 72.2953 190.623 71.5411L187.982 70.5548C186.545 70.0185 184.929 70.3503 183.82 71.4091L180.155 74.9084C178.249 76.7285 175.134 76.2397 173.877 73.9232L170.717 68.1006C169.52 65.8944 166.61 65.3232 164.668 66.9132L160.277 70.5076C158.674 71.8193 156.308 71.5648 155.021 69.9424C152.896 67.2632 148.253 68.6347 147.269 71.9096C145.752 76.9562 143.482 80.6922 141.561 83.0269C140.439 84.3908 138.455 84.5005 137.259 83.201C128.8 74.0147 125.354 48.6458 124.438 32.7388C124.315 30.6001 121.839 29.4286 120.136 30.7286C118.807 31.7429 116.882 31.2748 116.168 29.7637L109.633 15.9446C108.558 13.6704 105.6 13.0658 103.718 14.7355C101.853 16.3908 98.923 15.8129 97.826 13.5731L96.5854 11.0405C94.8816 7.5621 89.4908 8.27211 88.2998 11.9577C82.152 30.9834 72.1039 32.3007 65.4813 29.4187C63.6078 28.6034 61.3265 28.7427 59.9288 30.2331L58.5487 31.7047C57.0073 33.3484 54.346 33.1649 53.0447 31.3254C51.3588 28.942 47.6788 29.489 46.7588 32.2596L40.8645 50.0112C39.7932 53.2378 35.44 53.7415 33.6602 50.8447L31.2326 46.8938C30.1079 45.0632 27.738 44.4482 25.8651 45.5008C23.9467 46.5789 21.5178 45.905 20.4293 43.9925L14.6113 33.7709C13.0711 31.0649 9.16589 31.0787 7.64478 33.7955Z" fill="url(#paint0_linear_773_17381)"/>
<path d="M522.355 33.7955L529.49 46.5393C529.824 47.1363 530 47.8091 530 48.4934V160C530 162.209 528.209 164 526 164H269C266.791 164 265 162.209 265 160V105.251C265 103.069 266.802 101.357 268.848 100.596C276.419 97.7787 280.743 87.2831 283.011 78.531C283.814 75.4355 287.691 74.1422 290.025 76.3282L291.415 77.63C293.304 79.3988 296.349 78.9361 297.627 76.6862L303.536 66.284C304.646 64.3311 307.366 64.0918 308.799 65.8208C310.293 67.6231 313.152 67.2718 314.165 65.1615L320.176 52.6406C321.674 49.5206 326.159 49.6464 327.479 52.8455L334.281 69.3202C335.103 71.3131 337.357 72.2953 339.377 71.5411L342.018 70.5548C343.455 70.0185 345.071 70.3503 346.18 71.4091L349.845 74.9084C351.751 76.7285 354.866 76.2397 356.123 73.9232L359.283 68.1006C360.48 65.8944 363.39 65.3232 365.332 66.9132L369.723 70.5076C371.326 71.8193 373.692 71.5648 374.979 69.9424C377.104 67.2632 381.747 68.6347 382.731 71.9096C384.248 76.9562 386.518 80.6922 388.439 83.0269C389.561 84.3908 391.545 84.5005 392.741 83.201C401.2 74.0147 404.646 48.6458 405.562 32.7388C405.685 30.6001 408.161 29.4286 409.864 30.7286C411.193 31.7429 413.118 31.2748 413.832 29.7637L420.367 15.9446C421.442 13.6704 424.4 13.0658 426.282 14.7355C428.147 16.3908 431.077 15.8129 432.174 13.5731L433.415 11.0405C435.118 7.5621 440.509 8.27211 441.7 11.9577C447.848 30.9834 457.896 32.3007 464.519 29.4187C466.392 28.6034 468.674 28.7427 470.071 30.2331L471.451 31.7047C472.993 33.3484 475.654 33.1649 476.955 31.3254C478.641 28.942 482.321 29.489 483.241 32.2596L489.135 50.0112C490.207 53.2378 494.56 53.7415 496.34 50.8447L498.767 46.8938C499.892 45.0632 502.262 44.4482 504.135 45.5008C506.053 46.5789 508.482 45.905 509.571 43.9925L515.389 33.7709C516.929 31.0649 520.834 31.0787 522.355 33.7955Z" fill="url(#paint1_linear_773_17381)"/>
<path d="M0 47.2897L7.64262 33.6796C9.16495 30.9687 13.0627 30.9549 14.6042 33.6551L20.4205 43.8435C21.5095 45.7512 23.9381 46.421 25.8544 45.3472V45.3472C27.7253 44.2989 30.0946 44.9099 31.2197 46.7356L33.6477 50.6755C35.4291 53.5663 39.7752 53.0626 40.8481 49.8409L46.7378 32.1556C47.6595 29.388 51.3349 28.8408 53.0229 31.2199V31.2199C54.325 33.0551 56.9813 33.2383 58.523 31.5992L59.9062 30.1286C61.303 28.6435 63.5785 28.5046 65.4484 29.3169C72.0676 32.1922 82.1146 30.8845 88.2618 11.9217C89.4551 8.24045 94.8387 7.52944 96.5451 11.0027L97.783 13.5226C98.882 15.7596 101.808 16.3373 103.675 14.6858V14.6858C105.558 13.0199 108.512 13.6244 109.59 15.8959L116.118 29.6608C116.834 31.1695 118.756 31.6372 120.085 30.6258V30.6258C121.789 29.3286 124.263 30.5009 124.387 32.6392C125.303 48.4948 128.749 73.772 137.204 82.9229C138.4 84.2173 140.378 84.108 141.5 82.749C143.42 80.4242 145.688 76.7037 147.204 71.6782C148.192 68.4061 152.83 67.0328 154.958 69.7074V69.7074C156.245 71.3252 158.606 71.5791 160.207 70.272L164.604 66.6839C166.545 65.0995 169.449 65.6697 170.646 67.8706L173.805 73.6743C175.063 75.9853 178.171 76.4733 180.077 74.6592L183.745 71.1666C184.853 70.1119 186.465 69.7813 187.899 70.315L190.548 71.3014C192.566 72.0525 194.816 71.0721 195.64 69.083L202.437 52.667C203.759 49.4732 208.237 49.3474 209.736 52.4619L215.744 64.9386C216.759 67.046 219.614 67.3972 221.109 65.5986V65.5986C222.543 63.8733 225.26 64.1125 226.371 66.0621L232.276 76.4282C233.555 78.6725 236.594 79.1345 238.482 77.3716L239.878 76.0678C242.213 73.8877 246.087 75.1805 246.899 78.27C249.555 88.3799 255.007 100.829 265 101" stroke="#EAEAEA" stroke-width="2" stroke-linecap="round"/>
<path d="M530 47.2897L522.357 33.6796C520.835 30.9687 516.937 30.9549 515.396 33.6551L509.58 43.8435C508.49 45.7512 506.062 46.421 504.146 45.3472V45.3472C502.275 44.2989 499.905 44.9099 498.78 46.7356L496.352 50.6755C494.571 53.5663 490.225 53.0626 489.152 49.8409L483.262 32.1556C482.341 29.388 478.665 28.8408 476.977 31.2199V31.2199C475.675 33.0551 473.019 33.2383 471.477 31.5992L470.094 30.1286C468.697 28.6435 466.422 28.5046 464.552 29.3169C457.932 32.1922 447.885 30.8845 441.738 11.9217C440.545 8.24045 435.161 7.52944 433.455 11.0027L432.217 13.5226C431.118 15.7596 428.192 16.3373 426.325 14.6858V14.6858C424.442 13.0199 421.488 13.6244 420.41 15.8959L413.882 29.6608C413.166 31.1695 411.244 31.6372 409.915 30.6258V30.6258C408.211 29.3286 405.737 30.5009 405.613 32.6392C404.697 48.4948 401.251 73.772 392.796 82.9229C391.6 84.2173 389.622 84.108 388.5 82.749C386.58 80.4242 384.312 76.7037 382.796 71.6782C381.808 68.4061 377.17 67.0328 375.042 69.7074V69.7074C373.755 71.3252 371.394 71.5791 369.793 70.272L365.396 66.6839C363.455 65.0995 360.551 65.6697 359.354 67.8706L356.195 73.6743C354.937 75.9853 351.829 76.4733 349.923 74.6592L346.255 71.1666C345.147 70.1119 343.535 69.7813 342.101 70.315L339.452 71.3014C337.434 72.0525 335.184 71.0721 334.36 69.083L327.563 52.667C326.241 49.4732 321.763 49.3474 320.264 52.4619L314.256 64.9386C313.241 67.046 310.386 67.3972 308.891 65.5986V65.5986C307.457 63.8733 304.74 64.1125 303.629 66.0621L297.724 76.4282C296.445 78.6725 293.406 79.1345 291.518 77.3716L290.122 76.0678C287.787 73.8877 283.913 75.1805 283.101 78.27C280.445 88.3799 274.993 100.829 265 101" stroke="#EAEAEA" stroke-width="2" stroke-linecap="round"/>
</g>
<defs>
<linearGradient id="paint0_linear_773_17381" x1="133.085" y1="20.9995" x2="133.085" y2="164" gradientUnits="userSpaceOnUse">
<stop stop-color="#EAEAEA"/>
<stop offset="0.932292" stop-color="#D9D9D9" stop-opacity="0"/>
</linearGradient>
<linearGradient id="paint1_linear_773_17381" x1="396.915" y1="20.9995" x2="396.915" y2="164" gradientUnits="userSpaceOnUse">
<stop stop-color="#EAEAEA"/>
<stop offset="0.932292" stop-color="#D9D9D9" stop-opacity="0"/>
</linearGradient>
<clipPath id="clip0_773_17381">
<rect width="390" height="164" fill="white"/>
</clipPath>
</defs>
</svg>
