<svg width="2639" height="1000" viewBox="0 0 2639 1000" fill="white" xmlns="http://www.w3.org/2000/svg">
<path d="M499.324 0C774.962 0 998.375 223.512 998.375 499.274C998.375 775.036 774.962 1000 499.324 1000C223.686 1000 0.273438 775.036 0.273438 499.274C0.273438 223.512 223.686 0 499.324 0ZM499.324 923.077C731.441 923.077 921.486 732.946 921.486 499.274C921.486 267.054 731.441 76.9231 499.324 76.9231C265.757 76.9231 75.7115 267.054 75.7115 499.274C75.7115 732.946 265.757 923.077 499.324 923.077Z"/>
<path d="M1188.16 179.971V622.642C1188.16 641.509 1172.2 657.475 1153.34 657.475H1108.37V23.2221H1153.34C1164.95 23.2221 1175.1 29.0276 1182.36 37.7359L1794.56 863.57V59.5065C1794.56 40.6387 1810.52 24.6735 1829.38 24.6735H1875.81V981.132H1800.37C1788.76 981.132 1778.61 976.778 1772.8 968.07L1188.16 179.971Z"/>
<path d="M2077.14 981.132C2056.83 981.132 2042.33 966.618 2042.33 946.299V907.112H2603.76C2622.62 907.112 2638.58 921.625 2638.58 941.945V981.132H2077.14ZM2590.7 451.379V490.566C2590.7 510.885 2574.74 525.399 2554.43 525.399H2042.33V486.212C2042.33 465.893 2056.83 451.379 2077.14 451.379H2590.7ZM2042.33 97.2424V56.6038C2042.33 37.7359 2056.83 21.7707 2077.14 21.7707H2638.58V62.4093C2638.58 81.2773 2622.62 97.2424 2603.76 97.2424H2042.33Z"/>
<path d="M276.582 421.591C276.582 417.657 279.33 414.567 283.177 414.567H387.599V422.714C387.599 426.367 384.576 429.457 381.004 429.457H276.582V421.591ZM332.64 600H324.671V469.635C324.671 465.982 327.694 462.892 331.541 462.892H339.235V593.257C339.235 597.19 336.213 600 332.64 600Z"/>
<path d="M437.359 600V414.567H445.328C449.175 414.567 452.198 417.657 452.198 421.31V593.257C452.198 597.19 449.175 600 445.328 600H437.359ZM559.367 497.169V421.31C559.367 417.657 562.39 414.567 566.237 414.567H574.206V600H566.237C562.39 600 559.367 597.19 559.367 593.257V512.622H511.004C507.431 512.622 504.409 509.531 504.409 505.598V497.169H559.367Z"/>
<path d="M627.379 600C623.532 600 620.784 597.19 620.784 593.257V585.671H727.13C730.702 585.671 733.725 588.481 733.725 592.414V600H627.379ZM724.657 497.45V505.036C724.657 508.969 721.634 511.779 717.787 511.779H620.784V504.193C620.784 500.259 623.532 497.45 627.379 497.45H724.657ZM620.784 428.896V421.029C620.784 417.376 623.532 414.286 627.379 414.286H733.725V422.153C733.725 425.805 730.702 428.896 727.13 428.896H620.784Z"/>
</svg>
