<svg width="20" height="20" viewBox="0 0 20 20" fill="white" xmlns="http://www.w3.org/2000/svg">
<g id="Icons">
<path id="Vector" fill-rule="evenodd" clip-rule="evenodd" d="M18.5795 5.25887C18.8968 5.39484 19.0438 5.76227 18.9078 6.07954L18.3334 5.83334C18.9078 6.07954 18.9079 6.07939 18.9078 6.07954L18.9072 6.08093L18.9063 6.08301L18.9037 6.08914L18.8948 6.1092C18.8873 6.12598 18.8766 6.14949 18.8628 6.17923C18.835 6.23869 18.7945 6.32312 18.7407 6.42846C18.6334 6.63901 18.473 6.9339 18.2571 7.28039C17.9024 7.84959 17.3937 8.56472 16.7184 9.27515L17.5253 10.0821C17.7694 10.3262 17.7694 10.7219 17.5253 10.966C17.2812 11.2101 16.8855 11.2101 16.6414 10.966L15.8076 10.1322C15.2579 10.5927 14.6274 11.025 13.9126 11.3802L14.6905 12.5758C14.8788 12.8651 14.7969 13.2523 14.5076 13.4405C14.2182 13.6288 13.8311 13.5469 13.6428 13.2575L12.7352 11.8626C12.0857 12.0747 11.3826 12.2188 10.625 12.2705V13.75C10.625 14.0952 10.3452 14.375 10 14.375C9.65484 14.375 9.37502 14.0952 9.37502 13.75V12.2705C8.64083 12.2204 7.95766 12.0835 7.32493 11.882L6.42987 13.2576C6.24162 13.5469 5.85447 13.6288 5.56514 13.4406C5.27582 13.2523 5.19389 12.8652 5.38214 12.5759L6.14249 11.4073C5.42217 11.0555 4.78659 10.6251 4.2321 10.1652L3.43128 10.966C3.18721 11.2101 2.79148 11.2101 2.5474 10.966C2.30332 10.722 2.30332 10.3262 2.5474 10.0821L3.3172 9.31235C2.63007 8.59594 2.11279 7.87213 1.75239 7.29556C1.53328 6.94503 1.37058 6.64637 1.26165 6.43308C1.20715 6.32636 1.166 6.24079 1.13789 6.18053C1.12383 6.1504 1.11302 6.12657 1.10543 6.10957L1.09643 6.08925L1.09373 6.08304L1.09283 6.08095L1.09249 6.08016C1.09242 6.08001 1.09222 6.07954 1.66668 5.83334L1.09249 6.08016C0.956513 5.76289 1.10322 5.39484 1.42048 5.25887C1.73749 5.12301 2.10457 5.26963 2.24081 5.58635C2.24077 5.58624 2.24086 5.58646 2.24081 5.58635L2.24161 5.58818L2.24667 5.59961C2.25158 5.6106 2.25958 5.62826 2.27069 5.65207C2.29291 5.6997 2.32755 5.77188 2.37488 5.86456C2.46963 6.05008 2.61476 6.3169 2.81235 6.633C3.20869 7.26706 3.80972 8.08924 4.62975 8.85133C5.35134 9.52192 6.23557 10.1396 7.29312 10.5465C8.08853 10.8525 8.98789 11.0417 10 11.0417C11.0348 11.0417 11.9518 10.844 12.7604 10.5257C13.8116 10.1119 14.6898 9.49021 15.4056 8.81833C16.2136 8.05997 16.8058 7.24597 17.1962 6.61934C17.3909 6.30692 17.5339 6.04356 17.6272 5.86056C17.6738 5.76913 17.7079 5.69798 17.7298 5.65104C17.7408 5.62758 17.7486 5.61019 17.7535 5.59937L17.7584 5.58813L17.7589 5.58714C17.7589 5.58722 17.7589 5.58705 17.7589 5.58714M18.5795 5.25887C18.2624 5.12293 17.8949 5.27004 17.7589 5.58714L18.5795 5.25887ZM2.24081 5.58635C2.24077 5.58624 2.24086 5.58646 2.24081 5.58635V5.58635Z"/>
</g>
</svg>
