<svg width="20" height="20" viewBox="0 0 20 20" fill="white" xmlns="http://www.w3.org/2000/svg">
<g id="Icons">
<g id="Vector">
<path fill-rule="evenodd" clip-rule="evenodd" d="M10 6.87499C8.27411 6.87499 6.875 8.27411 6.875 9.99999C6.875 11.7259 8.27411 13.125 10 13.125C11.7259 13.125 13.125 11.7259 13.125 9.99999C13.125 8.27411 11.7259 6.87499 10 6.87499ZM8.125 9.99999C8.125 8.96446 8.96447 8.12499 10 8.12499C11.0355 8.12499 11.875 8.96446 11.875 9.99999C11.875 11.0355 11.0355 11.875 10 11.875C8.96447 11.875 8.125 11.0355 8.125 9.99999Z"/>
<path fill-rule="evenodd" clip-rule="evenodd" d="M10 2.70833C6.23822 2.70833 3.70441 4.96183 2.23381 6.87238L2.20729 6.90683C1.8747 7.33877 1.56838 7.7366 1.36057 8.20699C1.13804 8.71072 1.04167 9.25974 1.04167 9.99999C1.04167 10.7403 1.13804 11.2893 1.36057 11.793C1.56839 12.2634 1.8747 12.6612 2.20729 13.0932L2.23381 13.1276C3.70441 15.0382 6.23823 17.2917 10 17.2917C13.7618 17.2917 16.2956 15.0382 17.7662 13.1276L17.7927 13.0932C18.1253 12.6612 18.4316 12.2634 18.6394 11.793C18.862 11.2893 18.9583 10.7403 18.9583 9.99999C18.9583 9.25974 18.862 8.71072 18.6394 8.20699C18.4316 7.73659 18.1253 7.33876 17.7927 6.90681L17.7662 6.87238C16.2956 4.96183 13.7618 2.70833 10 2.70833ZM3.22435 7.63483C4.5822 5.87076 6.79197 3.95833 10 3.95833C13.208 3.95833 15.4178 5.87076 16.7757 7.63483C17.1411 8.10965 17.3552 8.39338 17.496 8.71212C17.6276 9.01001 17.7083 9.37411 17.7083 9.99999C17.7083 10.6259 17.6276 10.99 17.496 11.2879C17.3552 11.6066 17.1411 11.8903 16.7757 12.3652C15.4178 14.1292 13.208 16.0417 10 16.0417C6.79197 16.0417 4.5822 14.1292 3.22435 12.3652C2.85886 11.8903 2.64478 11.6066 2.50397 11.2879C2.37237 10.99 2.29167 10.6259 2.29167 9.99999C2.29167 9.37411 2.37237 9.01001 2.50397 8.71212C2.64478 8.39338 2.85886 8.10965 3.22435 7.63483Z"/>
</g>
</g>
</svg>
