<svg width="25" height="24" viewBox="0 0 25 24" fill="white" xmlns="http://www.w3.org/2000/svg">
<g id="Icons">
<path id="Vector" fill-rule="evenodd" clip-rule="evenodd" d="M3.0192 7.82274C2.5 8.77128 2.5 9.91549 2.5 12.2039V13.725C2.5 17.6258 2.5 19.5763 3.67157 20.7881C4.84315 22 6.72876 22 10.5 22H14.5C18.2712 22 20.1569 22 21.3284 20.7881C22.5 19.5763 22.5 17.6258 22.5 13.725V12.2039C22.5 9.91549 22.5 8.77128 21.9808 7.82274C21.4616 6.87421 20.5131 6.28551 18.616 5.10812L16.616 3.86687C14.6106 2.62229 13.6079 2 12.5 2C11.3921 2 10.3894 2.62229 8.38403 3.86687L6.38403 5.10813C4.48695 6.28551 3.5384 6.87421 3.0192 7.82274ZM11.75 18C11.75 18.4142 12.0858 18.75 12.5 18.75C12.9142 18.75 13.25 18.4142 13.25 18V15C13.25 14.5858 12.9142 14.25 12.5 14.25C12.0858 14.25 11.75 14.5858 11.75 15V18Z"/>
</g>
</svg>
