<svg width="25" height="24" viewBox="0 0 25 24" fill="white" xmlns="http://www.w3.org/2000/svg">
<g id="Icons">
<path id="Vector" fill-rule="evenodd" clip-rule="evenodd" d="M12.334 4.5C12.7482 4.5 13.084 4.83579 13.084 5.25V11.25H19.084C19.4982 11.25 19.834 11.5858 19.834 12C19.834 12.4142 19.4982 12.75 19.084 12.75H13.084V18.75C13.084 19.1642 12.7482 19.5 12.334 19.5C11.9198 19.5 11.584 19.1642 11.584 18.75V12.75H5.58398C5.16977 12.75 4.83398 12.4142 4.83398 12C4.83398 11.5858 5.16977 11.25 5.58398 11.25H11.584V5.25C11.584 4.83579 11.9198 4.5 12.334 4.5Z"/>
</g>
</svg>
