<svg width="40" height="40" viewBox="0 0 40 40" fill="white" xmlns="http://www.w3.org/2000/svg">
<g id="Icons">
<g id="Vector">
<path fill-rule="evenodd" clip-rule="evenodd" d="M20 4.5835C11.4856 4.5835 4.58331 11.4858 4.58331 20.0002C4.58331 28.5146 11.4856 35.4168 20 35.4168C28.5144 35.4168 35.4166 28.5146 35.4166 20.0002C35.4166 11.4858 28.5144 4.5835 20 4.5835ZM2.08331 20.0002C2.08331 10.1051 10.1049 2.0835 20 2.0835C29.8951 2.0835 37.9166 10.1051 37.9166 20.0002C37.9166 29.8953 29.8951 37.9168 20 37.9168C10.1049 37.9168 2.08331 29.8953 2.08331 20.0002ZM14.2556 27.3293C15.8763 26.128 17.8584 25.4168 20 25.4168C22.1416 25.4168 24.1237 26.128 25.7443 27.3293C26.2989 27.7404 26.4153 28.5232 26.0042 29.0779C25.5931 29.6325 24.8102 29.7488 24.2556 29.3377C23.0417 28.4379 21.5765 27.9168 20 27.9168C18.4235 27.9168 16.9582 28.4379 15.7443 29.3377C15.1897 29.7488 14.4069 29.6325 13.9958 29.0779C13.5847 28.5232 13.701 27.7404 14.2556 27.3293Z"/>
<path d="M26.6666 17.5002C26.6666 18.8809 25.9205 20.0002 25 20.0002C24.0795 20.0002 23.3333 18.8809 23.3333 17.5002C23.3333 16.1195 24.0795 15.0002 25 15.0002C25.9205 15.0002 26.6666 16.1195 26.6666 17.5002Z"/>
<path d="M16.6666 17.5002C16.6666 18.8809 15.9205 20.0002 15 20.0002C14.0795 20.0002 13.3333 18.8809 13.3333 17.5002C13.3333 16.1195 14.0795 15.0002 15 15.0002C15.9205 15.0002 16.6666 16.1195 16.6666 17.5002Z"/>
</g>
</g>
</svg>
