<svg width="121" height="20" viewBox="0 0 121 20" fill="none" xmlns="http://www.w3.org/2000/svg">
<g id="Frame 41058">
<path id="Binance" d="M15.5193 10L13.2587 12.2587L11 10L13.2587 7.7413L15.5193 10ZM21 4.51544L24.8706 8.38804L27.1293 6.12935L21 0L14.8707 6.12935L17.1293 8.38804L21 4.51544ZM28.7433 7.7413L26.4846 10L28.7433 12.2587L31 10L28.7433 7.7413ZM21 15.4846L17.1293 11.6139L14.8707 13.8707L21 20L27.1293 13.8707L24.8706 11.6139L21 15.4846ZM21 12.2587L23.2587 10L21 7.7413L18.7413 10L21 12.2587ZM44.8374 12.4756V12.4443C44.8374 10.9711 44.0559 10.2345 42.7839 9.7499C43.5654 9.31028 44.2259 8.62055 44.2259 7.38374V7.35248C44.2259 5.62915 42.8464 4.51544 40.6053 4.51544H35.5174V15.4846H40.7343C43.2098 15.4846 44.8413 14.4822 44.8413 12.4756H44.8374ZM41.8284 7.78624C41.8284 8.60102 41.1543 8.94685 40.0895 8.94685H37.8679V6.6315H40.2497C41.2677 6.6315 41.8323 7.0379 41.8323 7.75889L41.8284 7.78624ZM42.44 12.1747C42.44 12.9894 41.7972 13.3646 40.7304 13.3646H37.8679V10.9555H40.6561C41.8949 10.9555 42.4439 11.4107 42.4439 12.1473L42.44 12.1747ZM49.9078 15.4846V4.51544H47.4869V15.4846H49.9078ZM62.8796 15.4846V4.51544H60.49V11.27L55.3513 4.51544H53.1258V15.4846H55.5076V8.51114L60.8183 15.4846H62.8796ZM76.2462 15.4846L71.5373 4.43728H69.3118L64.6127 15.4846H67.0727L68.0789 13.0246H72.7174L73.7198 15.4846H76.2462ZM71.8597 10.8929H68.9367L70.3943 7.33685L71.8597 10.8929ZM87.7487 15.4846V4.51544H85.3591V11.27L80.2184 4.51544H77.9949V15.4846H80.3747V8.51114L85.6874 15.4846H87.7487ZM100.205 13.7143L98.6709 12.163C97.8093 12.9445 97.0414 13.4467 95.787 13.4467C93.9074 13.4467 92.6061 11.8835 92.6061 10V9.96874C92.6061 8.0891 93.9386 6.55334 95.787 6.55334C96.8831 6.55334 97.7409 7.02227 98.5928 7.79015L100.123 6.01993C99.1047 5.01759 97.8679 4.32786 95.7987 4.32786C92.4302 4.32786 90.0797 6.88159 90.0797 9.99414V10.0254C90.0797 13.1751 92.4771 15.6663 95.7049 15.6663C97.8171 15.6721 99.0695 14.9199 100.197 13.7143H100.205ZM110.502 15.4846V13.3353H104.538V11.0277H109.71V8.87847H104.538V6.66276H110.416V4.51348H102.141V15.4826L110.502 15.4846Z" fill="#1F1F1F"/>
</g>
</svg>
