<svg width="390" height="742" viewBox="0 0 390 742" fill="none" xmlns="http://www.w3.org/2000/svg">
<path opacity="0.1" d="M240 342L187.5 284" stroke="black"/>
<path d="M126 354L190 280.5" stroke="black"/>
<path d="M127.763 359L190.64 433.463" stroke="black"/>
<path opacity="0.1" d="M74 294.5L188 430.5" stroke="black"/>
<path opacity="0.1" d="M316.5 284L266 343.5M242.5 374.5L207.5 417" stroke="black"/>
<path opacity="0.1" d="M140 490.5L190 429.5" stroke="black"/>
<path opacity="0.1" d="M243 488L190 430.5" stroke="black"/>
<path d="M195.5 144L327 275.5" stroke="black"/>
<path opacity="0.1" d="M195 144L77 263" stroke="black"/>
<path d="M190 561L190 431" stroke="black"/>
<path opacity="0.1" d="M190 428L190 148" stroke="black"/>
<path d="M318 279.5H191.5" stroke="black"/>
<path opacity="0.1" d="M83.5 278.5H193" stroke="black"/>
<g filter="url(#filter0_dddddddd_1143_6572)">
<rect x="158" y="108" width="64" height="64" rx="32" fill="#DEDEDE"/>
<rect x="162.729" y="112.727" width="54.5454" height="54.5454" rx="27.2727" stroke="white" stroke-width="2.18182"/>
<path d="M190.002 166.182C204.462 166.182 216.184 154.46 216.184 140C216.184 125.54 204.462 113.818 190.002 113.818C175.542 113.818 163.82 125.54 163.82 140C163.82 154.46 175.542 166.182 190.002 166.182Z" fill="black"/>
<path d="M190.817 120.364L190.817 134.878L203.085 140.36L190.817 120.364Z" fill="white" fill-opacity="0.602"/>
<path d="M190.817 120.364L178.547 140.36L190.817 134.878L190.817 120.364Z" fill="white"/>
<path d="M190.817 149.766L190.817 159.629L203.093 142.645L190.817 149.766Z" fill="white" fill-opacity="0.602"/>
<path d="M190.817 159.629L190.817 149.765L178.547 142.645L190.817 159.629Z" fill="white"/>
<path d="M190.817 147.483L203.085 140.36L190.817 134.882L190.817 147.483Z" fill="white" fill-opacity="0.2"/>
<path d="M178.547 140.36L190.817 147.483L190.817 134.882L178.547 140.36Z" fill="white" fill-opacity="0.602"/>
</g>
<g filter="url(#filter1_dddddddd_1143_6572)">
<rect x="158" y="525" width="64" height="64" rx="32" fill="#DEDEDE"/>
<rect x="162.729" y="529.727" width="54.5454" height="54.5454" rx="27.2727" stroke="white" stroke-width="2.18182"/>
<path d="M190.002 583.182C204.462 583.182 216.184 571.46 216.184 557C216.184 542.54 204.462 530.818 190.002 530.818C175.542 530.818 163.82 542.54 163.82 557C163.82 571.46 175.542 583.182 190.002 583.182Z" fill="black"/>
<path fill-rule="evenodd" clip-rule="evenodd" d="M193.147 559.264L193.147 559.26C192.967 559.274 192.039 559.329 189.969 559.329C188.317 559.329 187.153 559.28 186.744 559.26L186.744 559.265C180.382 558.986 175.633 557.878 175.633 556.552C175.633 555.228 180.382 554.121 186.744 553.836L186.744 558.162C187.16 558.192 188.351 558.262 189.997 558.262C191.972 558.262 192.962 558.18 193.147 558.164L193.147 553.839C199.496 554.122 204.234 555.23 204.234 556.552C204.234 557.878 199.496 558.982 193.147 559.264ZM193.147 553.389L193.147 549.518L202.006 549.518L202.006 543.614L177.885 543.614L177.885 549.518L186.744 549.518L186.744 553.388C179.544 553.718 174.129 555.145 174.129 556.853C174.129 558.562 179.544 559.987 186.744 560.319L186.744 572.726L193.147 572.726L193.147 560.316C200.336 559.985 205.737 558.56 205.737 556.853C205.737 555.147 200.336 553.721 193.147 553.389Z" fill="white"/>
</g>
<g opacity="0.5">
<rect x="43.1667" y="257.167" width="41.6667" height="41.6667" rx="20.8333" stroke="white" stroke-width="1.66667"/>
<path d="M64 298C75.0457 298 84 289.046 84 278C84 266.954 75.0457 258 64 258C52.9543 258 44 266.954 44 278C44 289.046 52.9543 298 64 298Z" fill="black"/>
<path d="M64.6226 263L64.6226 274.087L73.9938 278.275L64.6226 263Z" fill="white" fill-opacity="0.602"/>
<path d="M64.6225 263L55.25 278.275L64.6225 274.087L64.6225 263Z" fill="white"/>
<path d="M64.6226 285.46L64.6226 292.994L74.0001 280.02L64.6226 285.46Z" fill="white" fill-opacity="0.602"/>
<path d="M64.6225 292.994L64.6225 285.459L55.25 280.02L64.6225 292.994Z" fill="white"/>
<path d="M64.6226 283.716L73.9938 278.275L64.6226 274.09L64.6226 283.716Z" fill="white" fill-opacity="0.2"/>
<path d="M55.25 278.275L64.6225 283.716L64.6225 274.09L55.25 278.275Z" fill="white" fill-opacity="0.602"/>
</g>
<g filter="url(#filter2_dddddddd_1143_6572)">
<rect x="169.167" y="257.167" width="41.6667" height="41.6667" rx="20.8333" stroke="white" stroke-width="1.66667"/>
<path d="M190 298C201.046 298 210 289.046 210 278C210 266.954 201.046 258 190 258C178.954 258 170 266.954 170 278C170 289.046 178.954 298 190 298Z" fill="black"/>
<path d="M185.145 276.005L190 271.15L194.857 276.008L197.682 273.183L190 265.5L182.32 273.18L185.145 276.005ZM177.5 278L180.325 275.175L183.15 278L180.325 280.825L177.5 278ZM185.145 279.995L190 284.85L194.857 279.993L197.682 282.816L190 290.5L182.32 282.82L182.316 282.816L185.145 279.995ZM196.85 278L199.675 275.175L202.5 278L199.675 280.825L196.85 278ZM192.865 277.998L192.867 277.998L192.867 278L190 280.867L187.136 278.005L187.131 278L187.136 277.996L187.637 277.494L187.881 277.25L190 275.133L192.866 277.999L192.865 277.998Z" fill="white"/>
</g>
<g filter="url(#filter3_dddddddd_1143_6572)">
<rect x="169.167" y="407.167" width="41.6667" height="41.6667" rx="20.8333" stroke="white" stroke-width="1.66667"/>
<path d="M190 448C201.046 448 210 439.046 210 428C210 416.954 201.046 408 190 408C178.954 408 170 416.954 170 428C170 439.046 178.954 448 190 448Z" fill="black"/>
<path fill-rule="evenodd" clip-rule="evenodd" d="M181.596 418L189.786 418C194.767 418 198.544 420.645 199.949 424.493L202.5 424.493L202.5 426.819L200.486 426.819C200.525 427.186 200.545 427.561 200.545 427.941L200.545 427.999C200.545 428.426 200.52 428.849 200.47 429.261L202.5 429.261L202.5 431.586L199.9 431.586C198.459 435.381 194.712 438 189.787 438L181.596 438L181.596 431.586L178.75 431.586L178.75 429.261L181.596 429.261L181.596 426.819L178.75 426.819L178.75 424.494L181.596 424.494L181.596 418ZM183.885 431.586L183.885 435.914L189.785 435.914C193.427 435.914 196.132 434.18 197.391 431.586L183.885 431.586ZM198.092 429.261L183.885 429.261L183.885 426.819L198.097 426.819C198.149 427.203 198.176 427.596 198.176 427.999L198.176 428.055C198.176 428.466 198.147 428.868 198.092 429.26L198.092 429.261ZM189.787 420.081C193.445 420.081 196.159 421.861 197.41 424.491L183.885 424.491L183.885 420.083L189.785 420.083L189.787 420.081Z" fill="white"/>
</g>
<g filter="url(#filter4_dddddddd_1143_6572)">
<rect x="106.167" y="336.167" width="41.6667" height="41.6667" rx="20.8333" stroke="white" stroke-width="1.66667"/>
<path d="M127 377C138.046 377 147 368.046 147 357C147 345.954 138.046 337 127 337C115.954 337 107 345.954 107 357C107 368.046 115.954 377 127 377Z" fill="black"/>
<path fill-rule="evenodd" clip-rule="evenodd" d="M129.402 358.729L129.402 358.727C129.265 358.737 128.556 358.779 126.975 358.779C125.712 358.779 124.824 358.742 124.511 358.727L124.511 358.73C119.651 358.517 116.024 357.67 116.024 356.658C116.024 355.647 119.651 354.8 124.511 354.583L124.511 357.888C124.829 357.91 125.739 357.964 126.996 357.964C128.505 357.964 129.261 357.902 129.402 357.889L129.402 354.585C134.252 354.802 137.871 355.648 137.871 356.658C137.871 357.67 134.252 358.514 129.402 358.729ZM129.402 354.242L129.402 351.284L136.17 351.284L136.17 346.774L117.744 346.774L117.744 351.284L124.511 351.284L124.511 354.24C119.011 354.493 114.875 355.583 114.875 356.888C114.875 358.193 119.011 359.282 124.511 359.535L124.511 369.013L129.402 369.013L129.402 359.533C134.894 359.28 139.02 358.192 139.02 356.888C139.02 355.584 134.894 354.495 129.402 354.242Z" fill="white"/>
</g>
<g opacity="0.5">
<rect x="106.167" y="484.167" width="41.6667" height="41.6667" rx="20.8333" stroke="white" stroke-width="1.66667"/>
<path d="M127 525C138.046 525 147 516.046 147 505C147 493.954 138.046 485 127 485C115.954 485 107 493.954 107 505C107 516.046 115.954 525 127 525Z" fill="black"/>
<path d="M127.623 490L127.623 501.087L136.994 505.275L127.623 490Z" fill="white" fill-opacity="0.602"/>
<path d="M127.622 490L118.25 505.275L127.622 501.087L127.622 490Z" fill="white"/>
<path d="M127.623 512.46L127.623 519.994L137 507.02L127.623 512.46Z" fill="white" fill-opacity="0.602"/>
<path d="M127.622 519.994L127.622 512.459L118.25 507.02L127.622 519.994Z" fill="white"/>
<path d="M127.623 510.716L136.994 505.275L127.623 501.09L127.623 510.716Z" fill="white" fill-opacity="0.2"/>
<path d="M118.25 505.275L127.622 510.716L127.622 501.09L118.25 505.275Z" fill="white" fill-opacity="0.602"/>
</g>
<g opacity="0.5">
<rect x="232.167" y="336.167" width="41.6667" height="41.6667" rx="20.8333" stroke="white" stroke-width="1.66667"/>
<path d="M253 377C264.046 377 273 368.046 273 357C273 345.954 264.046 337 253 337C241.954 337 233 345.954 233 357C233 368.046 241.954 377 253 377Z" fill="black"/>
<path d="M253.623 342L253.623 353.087L262.994 357.275L253.623 342Z" fill="white" fill-opacity="0.602"/>
<path d="M253.622 342L244.25 357.275L253.622 353.087L253.622 342Z" fill="white"/>
<path d="M253.623 364.46L253.623 371.994L263 359.02L253.623 364.46Z" fill="white" fill-opacity="0.602"/>
<path d="M253.622 371.994L253.622 364.459L244.25 359.02L253.622 371.994Z" fill="white"/>
<path d="M253.623 362.716L262.994 357.275L253.623 353.09L253.623 362.716Z" fill="white" fill-opacity="0.2"/>
<path d="M244.25 357.275L253.622 362.716L253.622 353.09L244.25 357.275Z" fill="white" fill-opacity="0.602"/>
</g>
<g opacity="0.5">
<rect x="232.167" y="484.167" width="41.6667" height="41.6667" rx="20.8333" stroke="white" stroke-width="1.66667"/>
<path d="M253 525C264.046 525 273 516.046 273 505C273 493.954 264.046 485 253 485C241.954 485 233 493.954 233 505C233 516.046 241.954 525 253 525Z" fill="black"/>
<path d="M253.623 490L253.623 501.087L262.994 505.275L253.623 490Z" fill="white" fill-opacity="0.602"/>
<path d="M253.622 490L244.25 505.275L253.622 501.087L253.622 490Z" fill="white"/>
<path d="M253.623 512.46L253.623 519.994L263 507.02L253.623 512.46Z" fill="white" fill-opacity="0.602"/>
<path d="M253.622 519.994L253.622 512.459L244.25 507.02L253.622 519.994Z" fill="white"/>
<path d="M253.623 510.716L262.994 505.275L253.623 501.09L253.623 510.716Z" fill="white" fill-opacity="0.2"/>
<path d="M244.25 505.275L253.622 510.716L253.622 501.09L244.25 505.275Z" fill="white" fill-opacity="0.602"/>
</g>
<g filter="url(#filter5_dddddddd_1143_6572)">
<rect x="295.167" y="257.167" width="41.6667" height="41.6667" rx="20.8333" stroke="white" stroke-width="1.66667"/>
<path d="M316 298C327.046 298 336 289.046 336 278C336 266.954 327.046 258 316 258C304.954 258 296 266.954 296 278C296 289.046 304.954 298 316 298Z" fill="black"/>
<path d="M315.687 292.375C307.575 292.375 301 285.8 301 277.687C301 269.575 307.575 263 315.687 263C323.8 263 330.375 269.575 330.375 277.688C330.375 281.583 328.828 285.319 326.073 288.073C323.319 290.828 319.583 292.375 315.687 292.375ZM314.812 272.238C314.009 272.277 313.249 272.616 312.683 273.187C312.116 273.759 311.783 274.521 311.75 275.325C311.75 276.837 312.675 277.825 314.637 278.237L316.012 278.563C317.35 278.875 317.9 279.325 317.9 280.088C317.9 280.85 316.937 281.6 315.687 281.6C315.243 281.641 314.797 281.556 314.399 281.354C314.001 281.153 313.668 280.844 313.437 280.462C313.369 280.318 313.261 280.195 313.127 280.109C312.992 280.023 312.835 279.976 312.675 279.975L311.937 279.975C311.881 279.986 311.827 280.007 311.778 280.039C311.73 280.07 311.688 280.111 311.656 280.158C311.623 280.206 311.601 280.26 311.589 280.316C311.577 280.373 311.577 280.431 311.587 280.487C311.767 281.221 312.185 281.874 312.775 282.344C313.366 282.815 314.095 283.076 314.85 283.087L314.85 284.137C314.85 284.371 314.943 284.595 315.108 284.761C315.273 284.926 315.498 285.019 315.731 285.019C315.965 285.019 316.189 284.926 316.354 284.761C316.52 284.595 316.612 284.371 316.612 284.137L316.612 283.075C317.466 283.065 318.282 282.723 318.887 282.12C319.491 281.518 319.837 280.703 319.85 279.85C319.85 278.263 318.937 277.35 316.775 276.887L315.525 276.613C314.275 276.3 313.687 275.888 313.687 275.188C313.687 274.487 314.437 273.713 315.687 273.713C316.081 273.671 316.478 273.745 316.831 273.925C317.184 274.104 317.477 274.382 317.675 274.725C317.755 274.896 317.883 275.041 318.042 275.143C318.201 275.244 318.386 275.299 318.575 275.3L319.162 275.3C319.296 275.267 319.411 275.184 319.484 275.067C319.556 274.95 319.58 274.809 319.55 274.675C319.381 273.998 319.002 273.392 318.468 272.943C317.933 272.494 317.271 272.225 316.575 272.175L316.575 271.313C316.575 271.079 316.482 270.855 316.317 270.689C316.152 270.524 315.927 270.431 315.694 270.431C315.46 270.431 315.236 270.524 315.071 270.689C314.905 270.855 314.812 271.079 314.812 271.313L314.812 272.238ZM304.675 277.687C304.676 279.99 305.401 282.234 306.747 284.102C308.093 285.971 309.991 287.369 312.175 288.1L312.35 288.1C312.499 288.1 312.642 288.041 312.748 287.935C312.853 287.83 312.912 287.687 312.912 287.537L312.912 287.275C312.913 287.042 312.844 286.815 312.715 286.621C312.586 286.428 312.402 286.277 312.187 286.187C310.487 285.501 309.03 284.322 308.005 282.802C306.979 281.282 306.431 279.49 306.431 277.656C306.431 275.822 306.979 274.031 308.005 272.51C309.03 270.99 310.487 269.811 312.187 269.125C312.401 269.038 312.585 268.889 312.714 268.698C312.843 268.507 312.912 268.281 312.912 268.05L312.912 267.763C312.913 267.678 312.894 267.595 312.855 267.519C312.817 267.444 312.761 267.379 312.693 267.33C312.624 267.281 312.544 267.249 312.461 267.238C312.377 267.226 312.292 267.234 312.212 267.263C310.02 267.988 308.112 269.385 306.759 271.257C305.405 273.128 304.676 275.378 304.675 277.687ZM326.7 277.688C326.696 275.387 325.97 273.146 324.624 271.28C323.279 269.414 321.381 268.018 319.2 267.288L319.012 267.288C318.857 267.288 318.707 267.349 318.597 267.46C318.487 267.57 318.425 267.719 318.425 267.875L318.425 268.063C318.43 268.304 318.505 268.538 318.64 268.738C318.775 268.937 318.965 269.094 319.187 269.188C320.884 269.876 322.337 271.055 323.359 272.574C324.382 274.092 324.929 275.882 324.929 277.713C324.929 279.543 324.382 281.333 323.359 282.851C322.337 284.37 320.884 285.549 319.187 286.237C318.97 286.332 318.783 286.488 318.651 286.685C318.518 286.882 318.444 287.112 318.437 287.35L318.437 287.562C318.439 287.655 318.462 287.746 318.505 287.828C318.548 287.91 318.609 287.981 318.685 288.035C318.761 288.088 318.848 288.123 318.939 288.137C319.031 288.15 319.125 288.142 319.212 288.112C321.396 287.379 323.293 285.978 324.637 284.107C325.98 282.236 326.702 279.991 326.7 277.688Z" fill="white"/>
</g>
<defs>
<filter id="filter0_dddddddd_1143_6572" x="-204" y="0" width="788" height="788" filterUnits="userSpaceOnUse" color-interpolation-filters="sRGB">
<feFlood flood-opacity="0" result="BackgroundImageFix"/>
<feColorMatrix in="SourceAlpha" type="matrix" values="0 0 0 0 0 0 0 0 0 0 0 0 0 0 0 0 0 0 127 0" result="hardAlpha"/>
<feOffset dy="2.57969"/>
<feGaussianBlur stdDeviation="5.5502"/>
<feColorMatrix type="matrix" values="0 0 0 0 0 0 0 0 0 0 0 0 0 0 0 0 0 0 0.0247812 0"/>
<feBlend mode="normal" in2="BackgroundImageFix" result="effect1_dropShadow_1143_6572"/>
<feColorMatrix in="SourceAlpha" type="matrix" values="0 0 0 0 0 0 0 0 0 0 0 0 0 0 0 0 0 0 127 0" result="hardAlpha"/>
<feOffset dy="11.1125"/>
<feGaussianBlur stdDeviation="10.4641"/>
<feColorMatrix type="matrix" values="0 0 0 0 0 0 0 0 0 0 0 0 0 0 0 0 0 0 0.04225 0"/>
<feBlend mode="normal" in2="effect1_dropShadow_1143_6572" result="effect2_dropShadow_1143_6572"/>
<feColorMatrix in="SourceAlpha" type="matrix" values="0 0 0 0 0 0 0 0 0 0 0 0 0 0 0 0 0 0 127 0" result="hardAlpha"/>
<feOffset dy="26.7891"/>
<feGaussianBlur stdDeviation="17.499"/>
<feColorMatrix type="matrix" values="0 0 0 0 0 0 0 0 0 0 0 0 0 0 0 0 0 0 0.0548437 0"/>
<feBlend mode="normal" in2="effect2_dropShadow_1143_6572" result="effect3_dropShadow_1143_6572"/>
<feColorMatrix in="SourceAlpha" type="matrix" values="0 0 0 0 0 0 0 0 0 0 0 0 0 0 0 0 0 0 127 0" result="hardAlpha"/>
<feOffset dy="50.8"/>
<feGaussianBlur stdDeviation="29.4125"/>
<feColorMatrix type="matrix" values="0 0 0 0 0 0 0 0 0 0 0 0 0 0 0 0 0 0 0.065 0"/>
<feBlend mode="normal" in2="effect3_dropShadow_1143_6572" result="effect4_dropShadow_1143_6572"/>
<feColorMatrix in="SourceAlpha" type="matrix" values="0 0 0 0 0 0 0 0 0 0 0 0 0 0 0 0 0 0 127 0" result="hardAlpha"/>
<feOffset dy="84.3359"/>
<feGaussianBlur stdDeviation="48.9619"/>
<feColorMatrix type="matrix" values="0 0 0 0 0 0 0 0 0 0 0 0 0 0 0 0 0 0 0.0751562 0"/>
<feBlend mode="normal" in2="effect4_dropShadow_1143_6572" result="effect5_dropShadow_1143_6572"/>
<feColorMatrix in="SourceAlpha" type="matrix" values="0 0 0 0 0 0 0 0 0 0 0 0 0 0 0 0 0 0 127 0" result="hardAlpha"/>
<feOffset dy="128.587"/>
<feGaussianBlur stdDeviation="78.9047"/>
<feColorMatrix type="matrix" values="0 0 0 0 0 0 0 0 0 0 0 0 0 0 0 0 0 0 0.08775 0"/>
<feBlend mode="normal" in2="effect5_dropShadow_1143_6572" result="effect6_dropShadow_1143_6572"/>
<feColorMatrix in="SourceAlpha" type="matrix" values="0 0 0 0 0 0 0 0 0 0 0 0 0 0 0 0 0 0 127 0" result="hardAlpha"/>
<feOffset dy="184.745"/>
<feGaussianBlur stdDeviation="121.998"/>
<feColorMatrix type="matrix" values="0 0 0 0 0 0 0 0 0 0 0 0 0 0 0 0 0 0 0.105219 0"/>
<feBlend mode="normal" in2="effect6_dropShadow_1143_6572" result="effect7_dropShadow_1143_6572"/>
<feColorMatrix in="SourceAlpha" type="matrix" values="0 0 0 0 0 0 0 0 0 0 0 0 0 0 0 0 0 0 127 0" result="hardAlpha"/>
<feOffset dy="254"/>
<feGaussianBlur stdDeviation="181"/>
<feColorMatrix type="matrix" values="0 0 0 0 0 0 0 0 0 0 0 0 0 0 0 0 0 0 0.13 0"/>
<feBlend mode="normal" in2="effect7_dropShadow_1143_6572" result="effect8_dropShadow_1143_6572"/>
<feBlend mode="normal" in="SourceGraphic" in2="effect8_dropShadow_1143_6572" result="shape"/>
</filter>
<filter id="filter1_dddddddd_1143_6572" x="-204" y="417" width="788" height="788" filterUnits="userSpaceOnUse" color-interpolation-filters="sRGB">
<feFlood flood-opacity="0" result="BackgroundImageFix"/>
<feColorMatrix in="SourceAlpha" type="matrix" values="0 0 0 0 0 0 0 0 0 0 0 0 0 0 0 0 0 0 127 0" result="hardAlpha"/>
<feOffset dy="2.57969"/>
<feGaussianBlur stdDeviation="5.5502"/>
<feColorMatrix type="matrix" values="0 0 0 0 0 0 0 0 0 0 0 0 0 0 0 0 0 0 0.0247812 0"/>
<feBlend mode="normal" in2="BackgroundImageFix" result="effect1_dropShadow_1143_6572"/>
<feColorMatrix in="SourceAlpha" type="matrix" values="0 0 0 0 0 0 0 0 0 0 0 0 0 0 0 0 0 0 127 0" result="hardAlpha"/>
<feOffset dy="11.1125"/>
<feGaussianBlur stdDeviation="10.4641"/>
<feColorMatrix type="matrix" values="0 0 0 0 0 0 0 0 0 0 0 0 0 0 0 0 0 0 0.04225 0"/>
<feBlend mode="normal" in2="effect1_dropShadow_1143_6572" result="effect2_dropShadow_1143_6572"/>
<feColorMatrix in="SourceAlpha" type="matrix" values="0 0 0 0 0 0 0 0 0 0 0 0 0 0 0 0 0 0 127 0" result="hardAlpha"/>
<feOffset dy="26.7891"/>
<feGaussianBlur stdDeviation="17.499"/>
<feColorMatrix type="matrix" values="0 0 0 0 0 0 0 0 0 0 0 0 0 0 0 0 0 0 0.0548437 0"/>
<feBlend mode="normal" in2="effect2_dropShadow_1143_6572" result="effect3_dropShadow_1143_6572"/>
<feColorMatrix in="SourceAlpha" type="matrix" values="0 0 0 0 0 0 0 0 0 0 0 0 0 0 0 0 0 0 127 0" result="hardAlpha"/>
<feOffset dy="50.8"/>
<feGaussianBlur stdDeviation="29.4125"/>
<feColorMatrix type="matrix" values="0 0 0 0 0 0 0 0 0 0 0 0 0 0 0 0 0 0 0.065 0"/>
<feBlend mode="normal" in2="effect3_dropShadow_1143_6572" result="effect4_dropShadow_1143_6572"/>
<feColorMatrix in="SourceAlpha" type="matrix" values="0 0 0 0 0 0 0 0 0 0 0 0 0 0 0 0 0 0 127 0" result="hardAlpha"/>
<feOffset dy="84.3359"/>
<feGaussianBlur stdDeviation="48.9619"/>
<feColorMatrix type="matrix" values="0 0 0 0 0 0 0 0 0 0 0 0 0 0 0 0 0 0 0.0751562 0"/>
<feBlend mode="normal" in2="effect4_dropShadow_1143_6572" result="effect5_dropShadow_1143_6572"/>
<feColorMatrix in="SourceAlpha" type="matrix" values="0 0 0 0 0 0 0 0 0 0 0 0 0 0 0 0 0 0 127 0" result="hardAlpha"/>
<feOffset dy="128.587"/>
<feGaussianBlur stdDeviation="78.9047"/>
<feColorMatrix type="matrix" values="0 0 0 0 0 0 0 0 0 0 0 0 0 0 0 0 0 0 0.08775 0"/>
<feBlend mode="normal" in2="effect5_dropShadow_1143_6572" result="effect6_dropShadow_1143_6572"/>
<feColorMatrix in="SourceAlpha" type="matrix" values="0 0 0 0 0 0 0 0 0 0 0 0 0 0 0 0 0 0 127 0" result="hardAlpha"/>
<feOffset dy="184.745"/>
<feGaussianBlur stdDeviation="121.998"/>
<feColorMatrix type="matrix" values="0 0 0 0 0 0 0 0 0 0 0 0 0 0 0 0 0 0 0.105219 0"/>
<feBlend mode="normal" in2="effect6_dropShadow_1143_6572" result="effect7_dropShadow_1143_6572"/>
<feColorMatrix in="SourceAlpha" type="matrix" values="0 0 0 0 0 0 0 0 0 0 0 0 0 0 0 0 0 0 127 0" result="hardAlpha"/>
<feOffset dy="254"/>
<feGaussianBlur stdDeviation="181"/>
<feColorMatrix type="matrix" values="0 0 0 0 0 0 0 0 0 0 0 0 0 0 0 0 0 0 0.13 0"/>
<feBlend mode="normal" in2="effect7_dropShadow_1143_6572" result="effect8_dropShadow_1143_6572"/>
<feBlend mode="normal" in="SourceGraphic" in2="effect8_dropShadow_1143_6572" result="shape"/>
</filter>
<filter id="filter2_dddddddd_1143_6572" x="-193.667" y="148.333" width="767.333" height="767.333" filterUnits="userSpaceOnUse" color-interpolation-filters="sRGB">
<feFlood flood-opacity="0" result="BackgroundImageFix"/>
<feColorMatrix in="SourceAlpha" type="matrix" values="0 0 0 0 0 0 0 0 0 0 0 0 0 0 0 0 0 0 127 0" result="hardAlpha"/>
<feOffset dy="2.57969"/>
<feGaussianBlur stdDeviation="5.5502"/>
<feColorMatrix type="matrix" values="0 0 0 0 0 0 0 0 0 0 0 0 0 0 0 0 0 0 0.0247812 0"/>
<feBlend mode="normal" in2="BackgroundImageFix" result="effect1_dropShadow_1143_6572"/>
<feColorMatrix in="SourceAlpha" type="matrix" values="0 0 0 0 0 0 0 0 0 0 0 0 0 0 0 0 0 0 127 0" result="hardAlpha"/>
<feOffset dy="11.1125"/>
<feGaussianBlur stdDeviation="10.4641"/>
<feColorMatrix type="matrix" values="0 0 0 0 0 0 0 0 0 0 0 0 0 0 0 0 0 0 0.04225 0"/>
<feBlend mode="normal" in2="effect1_dropShadow_1143_6572" result="effect2_dropShadow_1143_6572"/>
<feColorMatrix in="SourceAlpha" type="matrix" values="0 0 0 0 0 0 0 0 0 0 0 0 0 0 0 0 0 0 127 0" result="hardAlpha"/>
<feOffset dy="26.7891"/>
<feGaussianBlur stdDeviation="17.499"/>
<feColorMatrix type="matrix" values="0 0 0 0 0 0 0 0 0 0 0 0 0 0 0 0 0 0 0.0548437 0"/>
<feBlend mode="normal" in2="effect2_dropShadow_1143_6572" result="effect3_dropShadow_1143_6572"/>
<feColorMatrix in="SourceAlpha" type="matrix" values="0 0 0 0 0 0 0 0 0 0 0 0 0 0 0 0 0 0 127 0" result="hardAlpha"/>
<feOffset dy="50.8"/>
<feGaussianBlur stdDeviation="29.4125"/>
<feColorMatrix type="matrix" values="0 0 0 0 0 0 0 0 0 0 0 0 0 0 0 0 0 0 0.065 0"/>
<feBlend mode="normal" in2="effect3_dropShadow_1143_6572" result="effect4_dropShadow_1143_6572"/>
<feColorMatrix in="SourceAlpha" type="matrix" values="0 0 0 0 0 0 0 0 0 0 0 0 0 0 0 0 0 0 127 0" result="hardAlpha"/>
<feOffset dy="84.3359"/>
<feGaussianBlur stdDeviation="48.9619"/>
<feColorMatrix type="matrix" values="0 0 0 0 0 0 0 0 0 0 0 0 0 0 0 0 0 0 0.0751562 0"/>
<feBlend mode="normal" in2="effect4_dropShadow_1143_6572" result="effect5_dropShadow_1143_6572"/>
<feColorMatrix in="SourceAlpha" type="matrix" values="0 0 0 0 0 0 0 0 0 0 0 0 0 0 0 0 0 0 127 0" result="hardAlpha"/>
<feOffset dy="128.587"/>
<feGaussianBlur stdDeviation="78.9047"/>
<feColorMatrix type="matrix" values="0 0 0 0 0 0 0 0 0 0 0 0 0 0 0 0 0 0 0.08775 0"/>
<feBlend mode="normal" in2="effect5_dropShadow_1143_6572" result="effect6_dropShadow_1143_6572"/>
<feColorMatrix in="SourceAlpha" type="matrix" values="0 0 0 0 0 0 0 0 0 0 0 0 0 0 0 0 0 0 127 0" result="hardAlpha"/>
<feOffset dy="184.745"/>
<feGaussianBlur stdDeviation="121.998"/>
<feColorMatrix type="matrix" values="0 0 0 0 0 0 0 0 0 0 0 0 0 0 0 0 0 0 0.105219 0"/>
<feBlend mode="normal" in2="effect6_dropShadow_1143_6572" result="effect7_dropShadow_1143_6572"/>
<feColorMatrix in="SourceAlpha" type="matrix" values="0 0 0 0 0 0 0 0 0 0 0 0 0 0 0 0 0 0 127 0" result="hardAlpha"/>
<feOffset dy="254"/>
<feGaussianBlur stdDeviation="181"/>
<feColorMatrix type="matrix" values="0 0 0 0 0 0 0 0 0 0 0 0 0 0 0 0 0 0 0.13 0"/>
<feBlend mode="normal" in2="effect7_dropShadow_1143_6572" result="effect8_dropShadow_1143_6572"/>
<feBlend mode="normal" in="SourceGraphic" in2="effect8_dropShadow_1143_6572" result="shape"/>
</filter>
<filter id="filter3_dddddddd_1143_6572" x="-193.667" y="298.333" width="767.333" height="767.333" filterUnits="userSpaceOnUse" color-interpolation-filters="sRGB">
<feFlood flood-opacity="0" result="BackgroundImageFix"/>
<feColorMatrix in="SourceAlpha" type="matrix" values="0 0 0 0 0 0 0 0 0 0 0 0 0 0 0 0 0 0 127 0" result="hardAlpha"/>
<feOffset dy="2.57969"/>
<feGaussianBlur stdDeviation="5.5502"/>
<feColorMatrix type="matrix" values="0 0 0 0 0 0 0 0 0 0 0 0 0 0 0 0 0 0 0.0247812 0"/>
<feBlend mode="normal" in2="BackgroundImageFix" result="effect1_dropShadow_1143_6572"/>
<feColorMatrix in="SourceAlpha" type="matrix" values="0 0 0 0 0 0 0 0 0 0 0 0 0 0 0 0 0 0 127 0" result="hardAlpha"/>
<feOffset dy="11.1125"/>
<feGaussianBlur stdDeviation="10.4641"/>
<feColorMatrix type="matrix" values="0 0 0 0 0 0 0 0 0 0 0 0 0 0 0 0 0 0 0.04225 0"/>
<feBlend mode="normal" in2="effect1_dropShadow_1143_6572" result="effect2_dropShadow_1143_6572"/>
<feColorMatrix in="SourceAlpha" type="matrix" values="0 0 0 0 0 0 0 0 0 0 0 0 0 0 0 0 0 0 127 0" result="hardAlpha"/>
<feOffset dy="26.7891"/>
<feGaussianBlur stdDeviation="17.499"/>
<feColorMatrix type="matrix" values="0 0 0 0 0 0 0 0 0 0 0 0 0 0 0 0 0 0 0.0548437 0"/>
<feBlend mode="normal" in2="effect2_dropShadow_1143_6572" result="effect3_dropShadow_1143_6572"/>
<feColorMatrix in="SourceAlpha" type="matrix" values="0 0 0 0 0 0 0 0 0 0 0 0 0 0 0 0 0 0 127 0" result="hardAlpha"/>
<feOffset dy="50.8"/>
<feGaussianBlur stdDeviation="29.4125"/>
<feColorMatrix type="matrix" values="0 0 0 0 0 0 0 0 0 0 0 0 0 0 0 0 0 0 0.065 0"/>
<feBlend mode="normal" in2="effect3_dropShadow_1143_6572" result="effect4_dropShadow_1143_6572"/>
<feColorMatrix in="SourceAlpha" type="matrix" values="0 0 0 0 0 0 0 0 0 0 0 0 0 0 0 0 0 0 127 0" result="hardAlpha"/>
<feOffset dy="84.3359"/>
<feGaussianBlur stdDeviation="48.9619"/>
<feColorMatrix type="matrix" values="0 0 0 0 0 0 0 0 0 0 0 0 0 0 0 0 0 0 0.0751562 0"/>
<feBlend mode="normal" in2="effect4_dropShadow_1143_6572" result="effect5_dropShadow_1143_6572"/>
<feColorMatrix in="SourceAlpha" type="matrix" values="0 0 0 0 0 0 0 0 0 0 0 0 0 0 0 0 0 0 127 0" result="hardAlpha"/>
<feOffset dy="128.587"/>
<feGaussianBlur stdDeviation="78.9047"/>
<feColorMatrix type="matrix" values="0 0 0 0 0 0 0 0 0 0 0 0 0 0 0 0 0 0 0.08775 0"/>
<feBlend mode="normal" in2="effect5_dropShadow_1143_6572" result="effect6_dropShadow_1143_6572"/>
<feColorMatrix in="SourceAlpha" type="matrix" values="0 0 0 0 0 0 0 0 0 0 0 0 0 0 0 0 0 0 127 0" result="hardAlpha"/>
<feOffset dy="184.745"/>
<feGaussianBlur stdDeviation="121.998"/>
<feColorMatrix type="matrix" values="0 0 0 0 0 0 0 0 0 0 0 0 0 0 0 0 0 0 0.105219 0"/>
<feBlend mode="normal" in2="effect6_dropShadow_1143_6572" result="effect7_dropShadow_1143_6572"/>
<feColorMatrix in="SourceAlpha" type="matrix" values="0 0 0 0 0 0 0 0 0 0 0 0 0 0 0 0 0 0 127 0" result="hardAlpha"/>
<feOffset dy="254"/>
<feGaussianBlur stdDeviation="181"/>
<feColorMatrix type="matrix" values="0 0 0 0 0 0 0 0 0 0 0 0 0 0 0 0 0 0 0.13 0"/>
<feBlend mode="normal" in2="effect7_dropShadow_1143_6572" result="effect8_dropShadow_1143_6572"/>
<feBlend mode="normal" in="SourceGraphic" in2="effect8_dropShadow_1143_6572" result="shape"/>
</filter>
<filter id="filter4_dddddddd_1143_6572" x="-256.667" y="227.333" width="767.333" height="767.333" filterUnits="userSpaceOnUse" color-interpolation-filters="sRGB">
<feFlood flood-opacity="0" result="BackgroundImageFix"/>
<feColorMatrix in="SourceAlpha" type="matrix" values="0 0 0 0 0 0 0 0 0 0 0 0 0 0 0 0 0 0 127 0" result="hardAlpha"/>
<feOffset dy="2.57969"/>
<feGaussianBlur stdDeviation="5.5502"/>
<feColorMatrix type="matrix" values="0 0 0 0 0 0 0 0 0 0 0 0 0 0 0 0 0 0 0.0247812 0"/>
<feBlend mode="normal" in2="BackgroundImageFix" result="effect1_dropShadow_1143_6572"/>
<feColorMatrix in="SourceAlpha" type="matrix" values="0 0 0 0 0 0 0 0 0 0 0 0 0 0 0 0 0 0 127 0" result="hardAlpha"/>
<feOffset dy="11.1125"/>
<feGaussianBlur stdDeviation="10.4641"/>
<feColorMatrix type="matrix" values="0 0 0 0 0 0 0 0 0 0 0 0 0 0 0 0 0 0 0.04225 0"/>
<feBlend mode="normal" in2="effect1_dropShadow_1143_6572" result="effect2_dropShadow_1143_6572"/>
<feColorMatrix in="SourceAlpha" type="matrix" values="0 0 0 0 0 0 0 0 0 0 0 0 0 0 0 0 0 0 127 0" result="hardAlpha"/>
<feOffset dy="26.7891"/>
<feGaussianBlur stdDeviation="17.499"/>
<feColorMatrix type="matrix" values="0 0 0 0 0 0 0 0 0 0 0 0 0 0 0 0 0 0 0.0548437 0"/>
<feBlend mode="normal" in2="effect2_dropShadow_1143_6572" result="effect3_dropShadow_1143_6572"/>
<feColorMatrix in="SourceAlpha" type="matrix" values="0 0 0 0 0 0 0 0 0 0 0 0 0 0 0 0 0 0 127 0" result="hardAlpha"/>
<feOffset dy="50.8"/>
<feGaussianBlur stdDeviation="29.4125"/>
<feColorMatrix type="matrix" values="0 0 0 0 0 0 0 0 0 0 0 0 0 0 0 0 0 0 0.065 0"/>
<feBlend mode="normal" in2="effect3_dropShadow_1143_6572" result="effect4_dropShadow_1143_6572"/>
<feColorMatrix in="SourceAlpha" type="matrix" values="0 0 0 0 0 0 0 0 0 0 0 0 0 0 0 0 0 0 127 0" result="hardAlpha"/>
<feOffset dy="84.3359"/>
<feGaussianBlur stdDeviation="48.9619"/>
<feColorMatrix type="matrix" values="0 0 0 0 0 0 0 0 0 0 0 0 0 0 0 0 0 0 0.0751562 0"/>
<feBlend mode="normal" in2="effect4_dropShadow_1143_6572" result="effect5_dropShadow_1143_6572"/>
<feColorMatrix in="SourceAlpha" type="matrix" values="0 0 0 0 0 0 0 0 0 0 0 0 0 0 0 0 0 0 127 0" result="hardAlpha"/>
<feOffset dy="128.587"/>
<feGaussianBlur stdDeviation="78.9047"/>
<feColorMatrix type="matrix" values="0 0 0 0 0 0 0 0 0 0 0 0 0 0 0 0 0 0 0.08775 0"/>
<feBlend mode="normal" in2="effect5_dropShadow_1143_6572" result="effect6_dropShadow_1143_6572"/>
<feColorMatrix in="SourceAlpha" type="matrix" values="0 0 0 0 0 0 0 0 0 0 0 0 0 0 0 0 0 0 127 0" result="hardAlpha"/>
<feOffset dy="184.745"/>
<feGaussianBlur stdDeviation="121.998"/>
<feColorMatrix type="matrix" values="0 0 0 0 0 0 0 0 0 0 0 0 0 0 0 0 0 0 0.105219 0"/>
<feBlend mode="normal" in2="effect6_dropShadow_1143_6572" result="effect7_dropShadow_1143_6572"/>
<feColorMatrix in="SourceAlpha" type="matrix" values="0 0 0 0 0 0 0 0 0 0 0 0 0 0 0 0 0 0 127 0" result="hardAlpha"/>
<feOffset dy="254"/>
<feGaussianBlur stdDeviation="181"/>
<feColorMatrix type="matrix" values="0 0 0 0 0 0 0 0 0 0 0 0 0 0 0 0 0 0 0.13 0"/>
<feBlend mode="normal" in2="effect7_dropShadow_1143_6572" result="effect8_dropShadow_1143_6572"/>
<feBlend mode="normal" in="SourceGraphic" in2="effect8_dropShadow_1143_6572" result="shape"/>
</filter>
<filter id="filter5_dddddddd_1143_6572" x="-67.6665" y="148.333" width="767.333" height="767.333" filterUnits="userSpaceOnUse" color-interpolation-filters="sRGB">
<feFlood flood-opacity="0" result="BackgroundImageFix"/>
<feColorMatrix in="SourceAlpha" type="matrix" values="0 0 0 0 0 0 0 0 0 0 0 0 0 0 0 0 0 0 127 0" result="hardAlpha"/>
<feOffset dy="2.57969"/>
<feGaussianBlur stdDeviation="5.5502"/>
<feColorMatrix type="matrix" values="0 0 0 0 0 0 0 0 0 0 0 0 0 0 0 0 0 0 0.0247812 0"/>
<feBlend mode="normal" in2="BackgroundImageFix" result="effect1_dropShadow_1143_6572"/>
<feColorMatrix in="SourceAlpha" type="matrix" values="0 0 0 0 0 0 0 0 0 0 0 0 0 0 0 0 0 0 127 0" result="hardAlpha"/>
<feOffset dy="11.1125"/>
<feGaussianBlur stdDeviation="10.4641"/>
<feColorMatrix type="matrix" values="0 0 0 0 0 0 0 0 0 0 0 0 0 0 0 0 0 0 0.04225 0"/>
<feBlend mode="normal" in2="effect1_dropShadow_1143_6572" result="effect2_dropShadow_1143_6572"/>
<feColorMatrix in="SourceAlpha" type="matrix" values="0 0 0 0 0 0 0 0 0 0 0 0 0 0 0 0 0 0 127 0" result="hardAlpha"/>
<feOffset dy="26.7891"/>
<feGaussianBlur stdDeviation="17.499"/>
<feColorMatrix type="matrix" values="0 0 0 0 0 0 0 0 0 0 0 0 0 0 0 0 0 0 0.0548437 0"/>
<feBlend mode="normal" in2="effect2_dropShadow_1143_6572" result="effect3_dropShadow_1143_6572"/>
<feColorMatrix in="SourceAlpha" type="matrix" values="0 0 0 0 0 0 0 0 0 0 0 0 0 0 0 0 0 0 127 0" result="hardAlpha"/>
<feOffset dy="50.8"/>
<feGaussianBlur stdDeviation="29.4125"/>
<feColorMatrix type="matrix" values="0 0 0 0 0 0 0 0 0 0 0 0 0 0 0 0 0 0 0.065 0"/>
<feBlend mode="normal" in2="effect3_dropShadow_1143_6572" result="effect4_dropShadow_1143_6572"/>
<feColorMatrix in="SourceAlpha" type="matrix" values="0 0 0 0 0 0 0 0 0 0 0 0 0 0 0 0 0 0 127 0" result="hardAlpha"/>
<feOffset dy="84.3359"/>
<feGaussianBlur stdDeviation="48.9619"/>
<feColorMatrix type="matrix" values="0 0 0 0 0 0 0 0 0 0 0 0 0 0 0 0 0 0 0.0751562 0"/>
<feBlend mode="normal" in2="effect4_dropShadow_1143_6572" result="effect5_dropShadow_1143_6572"/>
<feColorMatrix in="SourceAlpha" type="matrix" values="0 0 0 0 0 0 0 0 0 0 0 0 0 0 0 0 0 0 127 0" result="hardAlpha"/>
<feOffset dy="128.587"/>
<feGaussianBlur stdDeviation="78.9047"/>
<feColorMatrix type="matrix" values="0 0 0 0 0 0 0 0 0 0 0 0 0 0 0 0 0 0 0.08775 0"/>
<feBlend mode="normal" in2="effect5_dropShadow_1143_6572" result="effect6_dropShadow_1143_6572"/>
<feColorMatrix in="SourceAlpha" type="matrix" values="0 0 0 0 0 0 0 0 0 0 0 0 0 0 0 0 0 0 127 0" result="hardAlpha"/>
<feOffset dy="184.745"/>
<feGaussianBlur stdDeviation="121.998"/>
<feColorMatrix type="matrix" values="0 0 0 0 0 0 0 0 0 0 0 0 0 0 0 0 0 0 0.105219 0"/>
<feBlend mode="normal" in2="effect6_dropShadow_1143_6572" result="effect7_dropShadow_1143_6572"/>
<feColorMatrix in="SourceAlpha" type="matrix" values="0 0 0 0 0 0 0 0 0 0 0 0 0 0 0 0 0 0 127 0" result="hardAlpha"/>
<feOffset dy="254"/>
<feGaussianBlur stdDeviation="181"/>
<feColorMatrix type="matrix" values="0 0 0 0 0 0 0 0 0 0 0 0 0 0 0 0 0 0 0.13 0"/>
<feBlend mode="normal" in2="effect7_dropShadow_1143_6572" result="effect8_dropShadow_1143_6572"/>
<feBlend mode="normal" in="SourceGraphic" in2="effect8_dropShadow_1143_6572" result="shape"/>
</filter>
</defs>
</svg>
