<svg width="92" height="47" viewBox="0 0 92 47" fill="none" xmlns="http://www.w3.org/2000/svg">
<g id="Line 3" filter="url(#filter0_dddd_1860_33468)">
<path d="M11.8333 5C11.8333 6.47276 13.0272 7.66667 14.5 7.66667C15.9728 7.66667 17.1667 6.47276 17.1667 5C17.1667 3.52724 15.9728 2.33333 14.5 2.33333C13.0272 2.33333 11.8333 3.52724 11.8333 5ZM74.8333 5C74.8333 6.47276 76.0272 7.66667 77.5 7.66667C78.9728 7.66667 80.1667 6.47276 80.1667 5C80.1667 3.52724 78.9728 2.33333 77.5 2.33333C76.0272 2.33333 74.8333 3.52724 74.8333 5ZM18.4375 5.5C18.7136 5.5 18.9375 5.27614 18.9375 5C18.9375 4.72386 18.7136 4.5 18.4375 4.5V5.5ZM26.3125 4.5C26.0364 4.5 25.8125 4.72386 25.8125 5C25.8125 5.27614 26.0364 5.5 26.3125 5.5V4.5ZM34.1875 5.5C34.4636 5.5 34.6875 5.27614 34.6875 5C34.6875 4.72386 34.4636 4.5 34.1875 4.5V5.5ZM42.0625 4.5C41.7864 4.5 41.5625 4.72386 41.5625 5C41.5625 5.27614 41.7864 5.5 42.0625 5.5V4.5ZM49.9375 5.5C50.2136 5.5 50.4375 5.27614 50.4375 5C50.4375 4.72386 50.2136 4.5 49.9375 4.5V5.5ZM57.8125 4.5C57.5364 4.5 57.3125 4.72386 57.3125 5C57.3125 5.27614 57.5364 5.5 57.8125 5.5V4.5ZM65.6875 5.5C65.9636 5.5 66.1875 5.27614 66.1875 5C66.1875 4.72386 65.9636 4.5 65.6875 4.5V5.5ZM73.5625 4.5C73.2864 4.5 73.0625 4.72386 73.0625 5C73.0625 5.27614 73.2864 5.5 73.5625 5.5V4.5ZM14.5 5.5H18.4375V4.5H14.5V5.5ZM26.3125 5.5H34.1875V4.5H26.3125V5.5ZM42.0625 5.5H49.9375V4.5H42.0625V5.5ZM57.8125 5.5H65.6875V4.5H57.8125V5.5ZM73.5625 5.5H77.5V4.5H73.5625V5.5Z" fill="#583BE8"/>
</g>
<defs>
<filter id="filter0_dddd_1860_33468" x="0.833328" y="0.333496" width="90.3333" height="46.333" filterUnits="userSpaceOnUse" color-interpolation-filters="sRGB">
<feFlood flood-opacity="0" result="BackgroundImageFix"/>
<feColorMatrix in="SourceAlpha" type="matrix" values="0 0 0 0 0 0 0 0 0 0 0 0 0 0 0 0 0 0 127 0" result="hardAlpha"/>
<feOffset dy="2"/>
<feGaussianBlur stdDeviation="2"/>
<feColorMatrix type="matrix" values="0 0 0 0 0.384314 0 0 0 0 0.494118 0 0 0 0 0.917647 0 0 0 0.1 0"/>
<feBlend mode="normal" in2="BackgroundImageFix" result="effect1_dropShadow_1860_33468"/>
<feColorMatrix in="SourceAlpha" type="matrix" values="0 0 0 0 0 0 0 0 0 0 0 0 0 0 0 0 0 0 127 0" result="hardAlpha"/>
<feOffset dy="7"/>
<feGaussianBlur stdDeviation="3.5"/>
<feColorMatrix type="matrix" values="0 0 0 0 0.384314 0 0 0 0 0.494118 0 0 0 0 0.917647 0 0 0 0.08 0"/>
<feBlend mode="normal" in2="effect1_dropShadow_1860_33468" result="effect2_dropShadow_1860_33468"/>
<feColorMatrix in="SourceAlpha" type="matrix" values="0 0 0 0 0 0 0 0 0 0 0 0 0 0 0 0 0 0 127 0" result="hardAlpha"/>
<feOffset dy="16"/>
<feGaussianBlur stdDeviation="4.5"/>
<feColorMatrix type="matrix" values="0 0 0 0 0.384314 0 0 0 0 0.494118 0 0 0 0 0.917647 0 0 0 0.07 0"/>
<feBlend mode="normal" in2="effect2_dropShadow_1860_33468" result="effect3_dropShadow_1860_33468"/>
<feColorMatrix in="SourceAlpha" type="matrix" values="0 0 0 0 0 0 0 0 0 0 0 0 0 0 0 0 0 0 127 0" result="hardAlpha"/>
<feOffset dy="28"/>
<feGaussianBlur stdDeviation="5.5"/>
<feColorMatrix type="matrix" values="0 0 0 0 0.384314 0 0 0 0 0.494118 0 0 0 0 0.917647 0 0 0 0.11 0"/>
<feBlend mode="normal" in2="effect3_dropShadow_1860_33468" result="effect4_dropShadow_1860_33468"/>
<feBlend mode="normal" in="SourceGraphic" in2="effect4_dropShadow_1860_33468" result="shape"/>
</filter>
</defs>
</svg>
