<svg width="116" height="41" viewBox="0 0 116 41" fill="none" xmlns="http://www.w3.org/2000/svg">
<g id="chart-graphic">
<path id="Vector 8" d="M101.626 17.6841L115 12.3412V40.5H1V2.37726L2.59218 1.94404L11.1899 10.7527L14.6927 9.88628L25.5195 18.1173L26.7933 18.8394L37.7793 9.16426L41.1229 10.7527L47.1732 1.94404H48.2877L55.2933 9.16426H56.0894L60.8659 14.6516L66.4385 21.1498L67.8715 22.0162L71.0559 18.6949L77.743 1.65523L79.3352 0.5L81.8827 1.65523L86.5 11.0415L88.2514 12.3412L91.7542 10.3195L94.9385 11.0415L101.626 17.6841Z" fill="url(#paint0_linear_1652_4552)"/>
<path id="Vector 7" d="M115 12.3624L102.442 17.3942C101.661 17.7072 100.766 17.4142 100.277 16.7294C98.3993 14.1022 93.6258 8.3348 89.7377 11.3618C84.7812 15.2206 84.4922 -0.506135 78.7055 0.643108C75.8275 1.21467 75.2211 8.53842 72.6297 14.649C70.7801 19.0104 69.9303 21.3049 67.6871 21.7243C67.1788 21.8194 66.6837 21.5632 66.3557 21.1635L56.675 9.36357C56.4716 9.11566 56.1175 9.05373 55.842 9.21787V9.21787C55.5661 9.38229 55.2114 9.31985 55.0082 9.07111L49.5454 2.38332C48.7933 1.4626 47.3574 1.55967 46.7361 2.57324L42.4149 9.62259C41.9569 10.3697 41.0119 10.6553 40.2168 10.2868L38.3741 9.43272C37.7241 9.13144 36.9556 9.26289 36.4426 9.76307L27.8343 18.1573C27.2104 18.7656 26.231 18.8138 25.5504 18.2695L15.396 10.1483C14.8999 9.75148 14.2259 9.65919 13.6414 9.908L12.3979 10.4373C11.7044 10.7325 10.8996 10.5437 10.4097 9.97102L3.96781 2.44113C3.37728 1.75086 2.35288 1.63622 1.62437 2.17888L1.00001 2.64396" stroke="#A9A9A9" stroke-width="1.15108"/>
</g>
<defs>
<linearGradient id="paint0_linear_1652_4552" x1="58" y1="0.5" x2="58" y2="40.5" gradientUnits="userSpaceOnUse">
<stop stop-color="#E6E6E6" stop-opacity="0.12"/>
<stop offset="1" stop-opacity="0"/>
</linearGradient>
</defs>
</svg>
