<svg width="358" height="165" viewBox="0 0 358 165" fill="none" xmlns="http://www.w3.org/2000/svg">
<g clip-path="url(#clip0_1652_7031)">
<g clip-path="url(#clip1_1652_7031)">
<g clip-path="url(#clip2_1652_7031)">
<line y1="27.75" x2="279" y2="27.75" stroke="#818BA6" stroke-opacity="0.2" stroke-width="0.5"/>
<line y1="54.0835" x2="279" y2="54.0835" stroke="#818BA6" stroke-opacity="0.2" stroke-width="0.5"/>
<path d="M295.983 48.8257V58.8335H294.719V50.4048L292.169 51.3345V50.1929L295.785 48.8257H295.983ZM301.302 54.0962L300.29 53.8364L300.789 48.8804H305.896V50.0493H301.862L301.562 52.7563C301.744 52.6515 301.974 52.5535 302.252 52.4624C302.535 52.3713 302.858 52.3257 303.223 52.3257C303.683 52.3257 304.095 52.4054 304.46 52.5649C304.825 52.7199 305.134 52.9432 305.39 53.2349C305.649 53.5265 305.848 53.8774 305.984 54.2876C306.121 54.6978 306.189 55.1558 306.189 55.6616C306.189 56.1401 306.123 56.5799 305.991 56.981C305.864 57.382 305.67 57.7329 305.41 58.0337C305.15 58.3299 304.822 58.5601 304.426 58.7241C304.034 58.8882 303.571 58.9702 303.038 58.9702C302.637 58.9702 302.257 58.9155 301.896 58.8062C301.541 58.6922 301.222 58.5213 300.939 58.2935C300.661 58.061 300.434 57.7739 300.256 57.4321C300.083 57.0858 299.973 56.6802 299.928 56.2153H301.131C301.186 56.589 301.295 56.9035 301.459 57.1587C301.623 57.4139 301.837 57.6076 302.102 57.7397C302.37 57.8674 302.683 57.9312 303.038 57.9312C303.339 57.9312 303.605 57.8787 303.838 57.7739C304.07 57.6691 304.266 57.5187 304.426 57.3228C304.585 57.1268 304.706 56.8898 304.788 56.6118C304.875 56.3338 304.918 56.0216 304.918 55.6753C304.918 55.3608 304.875 55.0692 304.788 54.8003C304.701 54.5314 304.572 54.2967 304.398 54.0962C304.23 53.8957 304.022 53.7407 303.776 53.6313C303.53 53.5174 303.248 53.4604 302.929 53.4604C302.505 53.4604 302.184 53.5174 301.965 53.6313C301.751 53.7453 301.53 53.9002 301.302 54.0962ZM313.825 53.064V54.5815C313.825 55.3973 313.752 56.0854 313.606 56.646C313.461 57.2065 313.251 57.6577 312.978 57.9995C312.704 58.3413 312.374 58.5897 311.986 58.7446C311.604 58.895 311.171 58.9702 310.688 58.9702C310.305 58.9702 309.951 58.9224 309.628 58.8267C309.304 58.731 309.013 58.5783 308.753 58.3687C308.498 58.1545 308.279 57.8765 308.097 57.5347C307.914 57.1929 307.775 56.7782 307.68 56.2905C307.584 55.8029 307.536 55.2332 307.536 54.5815V53.064C307.536 52.2482 307.609 51.5646 307.755 51.0132C307.905 50.4618 308.117 50.0197 308.391 49.687C308.664 49.3498 308.992 49.1082 309.375 48.9624C309.762 48.8166 310.195 48.7437 310.674 48.7437C311.061 48.7437 311.417 48.7915 311.74 48.8872C312.068 48.9784 312.36 49.1265 312.615 49.3315C312.87 49.5321 313.087 49.8009 313.265 50.1382C313.447 50.4709 313.586 50.8787 313.682 51.3618C313.777 51.8449 313.825 52.4123 313.825 53.064ZM312.554 54.7866V52.8521C312.554 52.4054 312.526 52.0135 312.472 51.6763C312.422 51.3345 312.346 51.0428 312.246 50.8013C312.146 50.5597 312.018 50.3638 311.863 50.2134C311.713 50.063 311.537 49.9536 311.337 49.8853C311.141 49.8123 310.92 49.7759 310.674 49.7759C310.373 49.7759 310.106 49.8328 309.874 49.9468C309.642 50.0562 309.446 50.2316 309.286 50.4731C309.131 50.7147 309.013 51.0314 308.931 51.4233C308.849 51.8153 308.808 52.2915 308.808 52.8521V54.7866C308.808 55.2332 308.833 55.6274 308.883 55.9692C308.938 56.311 309.017 56.6073 309.122 56.8579C309.227 57.104 309.354 57.3068 309.505 57.4663C309.655 57.6258 309.828 57.7443 310.024 57.8218C310.225 57.8947 310.446 57.9312 310.688 57.9312C310.997 57.9312 311.269 57.8719 311.501 57.7534C311.733 57.6349 311.927 57.4504 312.082 57.1997C312.242 56.9445 312.36 56.6187 312.438 56.2222C312.515 55.8211 312.554 55.3426 312.554 54.7866ZM321.885 48.8804V49.5913L317.763 58.8335H316.43L320.545 49.9194H315.158V48.8804H321.885ZM329.575 53.064V54.5815C329.575 55.3973 329.502 56.0854 329.356 56.646C329.211 57.2065 329.001 57.6577 328.728 57.9995C328.454 58.3413 328.124 58.5897 327.736 58.7446C327.354 58.895 326.921 58.9702 326.438 58.9702C326.055 58.9702 325.701 58.9224 325.378 58.8267C325.054 58.731 324.763 58.5783 324.503 58.3687C324.248 58.1545 324.029 57.8765 323.847 57.5347C323.664 57.1929 323.525 56.7782 323.43 56.2905C323.334 55.8029 323.286 55.2332 323.286 54.5815V53.064C323.286 52.2482 323.359 51.5646 323.505 51.0132C323.655 50.4618 323.867 50.0197 324.141 49.687C324.414 49.3498 324.742 49.1082 325.125 48.9624C325.512 48.8166 325.945 48.7437 326.424 48.7437C326.811 48.7437 327.167 48.7915 327.49 48.8872C327.818 48.9784 328.11 49.1265 328.365 49.3315C328.62 49.5321 328.837 49.8009 329.015 50.1382C329.197 50.4709 329.336 50.8787 329.432 51.3618C329.527 51.8449 329.575 52.4123 329.575 53.064ZM328.304 54.7866V52.8521C328.304 52.4054 328.276 52.0135 328.222 51.6763C328.172 51.3345 328.096 51.0428 327.996 50.8013C327.896 50.5597 327.768 50.3638 327.613 50.2134C327.463 50.063 327.287 49.9536 327.087 49.8853C326.891 49.8123 326.67 49.7759 326.424 49.7759C326.123 49.7759 325.856 49.8328 325.624 49.9468C325.392 50.0562 325.196 50.2316 325.036 50.4731C324.881 50.7147 324.763 51.0314 324.681 51.4233C324.599 51.8153 324.558 52.2915 324.558 52.8521V54.7866C324.558 55.2332 324.583 55.6274 324.633 55.9692C324.688 56.311 324.767 56.6073 324.872 56.8579C324.977 57.104 325.104 57.3068 325.255 57.4663C325.405 57.6258 325.578 57.7443 325.774 57.8218C325.975 57.8947 326.196 57.9312 326.438 57.9312C326.747 57.9312 327.019 57.8719 327.251 57.7534C327.483 57.6349 327.677 57.4504 327.832 57.1997C327.992 56.9445 328.11 56.6187 328.188 56.2222C328.265 55.8211 328.304 55.3426 328.304 54.7866ZM331.359 58.1636C331.359 57.9494 331.425 57.7694 331.558 57.6235C331.694 57.4731 331.89 57.3979 332.146 57.3979C332.401 57.3979 332.594 57.4731 332.727 57.6235C332.863 57.7694 332.932 57.9494 332.932 58.1636C332.932 58.3732 332.863 58.5509 332.727 58.6968C332.594 58.8426 332.401 58.9155 332.146 58.9155C331.89 58.9155 331.694 58.8426 331.558 58.6968C331.425 58.5509 331.359 58.3732 331.359 58.1636ZM341.142 53.064V54.5815C341.142 55.3973 341.069 56.0854 340.923 56.646C340.777 57.2065 340.567 57.6577 340.294 57.9995C340.021 58.3413 339.69 58.5897 339.303 58.7446C338.92 58.895 338.487 58.9702 338.004 58.9702C337.621 58.9702 337.268 58.9224 336.944 58.8267C336.621 58.731 336.329 58.5783 336.069 58.3687C335.814 58.1545 335.595 57.8765 335.413 57.5347C335.231 57.1929 335.092 56.7782 334.996 56.2905C334.9 55.8029 334.853 55.2332 334.853 54.5815V53.064C334.853 52.2482 334.925 51.5646 335.071 51.0132C335.222 50.4618 335.434 50.0197 335.707 49.687C335.98 49.3498 336.309 49.1082 336.691 48.9624C337.079 48.8166 337.512 48.7437 337.99 48.7437C338.378 48.7437 338.733 48.7915 339.057 48.8872C339.385 48.9784 339.676 49.1265 339.932 49.3315C340.187 49.5321 340.403 49.8009 340.581 50.1382C340.763 50.4709 340.902 50.8787 340.998 51.3618C341.094 51.8449 341.142 52.4123 341.142 53.064ZM339.87 54.7866V52.8521C339.87 52.4054 339.843 52.0135 339.788 51.6763C339.738 51.3345 339.663 51.0428 339.562 50.8013C339.462 50.5597 339.335 50.3638 339.18 50.2134C339.029 50.063 338.854 49.9536 338.653 49.8853C338.457 49.8123 338.236 49.7759 337.99 49.7759C337.689 49.7759 337.423 49.8328 337.19 49.9468C336.958 50.0562 336.762 50.2316 336.603 50.4731C336.448 50.7147 336.329 51.0314 336.247 51.4233C336.165 51.8153 336.124 52.2915 336.124 52.8521V54.7866C336.124 55.2332 336.149 55.6274 336.199 55.9692C336.254 56.311 336.334 56.6073 336.438 56.8579C336.543 57.104 336.671 57.3068 336.821 57.4663C336.972 57.6258 337.145 57.7443 337.341 57.8218C337.541 57.8947 337.762 57.9312 338.004 57.9312C338.314 57.9312 338.585 57.8719 338.817 57.7534C339.05 57.6349 339.243 57.4504 339.398 57.1997C339.558 56.9445 339.676 56.6187 339.754 56.2222C339.831 55.8211 339.87 55.3426 339.87 54.7866ZM349.017 53.064V54.5815C349.017 55.3973 348.944 56.0854 348.798 56.646C348.652 57.2065 348.442 57.6577 348.169 57.9995C347.896 58.3413 347.565 58.5897 347.178 58.7446C346.795 58.895 346.362 58.9702 345.879 58.9702C345.496 58.9702 345.143 58.9224 344.819 58.8267C344.496 58.731 344.204 58.5783 343.944 58.3687C343.689 58.1545 343.47 57.8765 343.288 57.5347C343.106 57.1929 342.967 56.7782 342.871 56.2905C342.775 55.8029 342.728 55.2332 342.728 54.5815V53.064C342.728 52.2482 342.8 51.5646 342.946 51.0132C343.097 50.4618 343.309 50.0197 343.582 49.687C343.855 49.3498 344.184 49.1082 344.566 48.9624C344.954 48.8166 345.387 48.7437 345.865 48.7437C346.253 48.7437 346.608 48.7915 346.932 48.8872C347.26 48.9784 347.551 49.1265 347.807 49.3315C348.062 49.5321 348.278 49.8009 348.456 50.1382C348.638 50.4709 348.777 50.8787 348.873 51.3618C348.969 51.8449 349.017 52.4123 349.017 53.064ZM347.745 54.7866V52.8521C347.745 52.4054 347.718 52.0135 347.663 51.6763C347.613 51.3345 347.538 51.0428 347.438 50.8013C347.337 50.5597 347.21 50.3638 347.055 50.2134C346.904 50.063 346.729 49.9536 346.528 49.8853C346.332 49.8123 346.111 49.7759 345.865 49.7759C345.564 49.7759 345.298 49.8328 345.065 49.9468C344.833 50.0562 344.637 50.2316 344.478 50.4731C344.323 50.7147 344.204 51.0314 344.122 51.4233C344.04 51.8153 343.999 52.2915 343.999 52.8521V54.7866C343.999 55.2332 344.024 55.6274 344.074 55.9692C344.129 56.311 344.209 56.6073 344.313 56.8579C344.418 57.104 344.546 57.3068 344.696 57.4663C344.847 57.6258 345.02 57.7443 345.216 57.8218C345.416 57.8947 345.637 57.9312 345.879 57.9312C346.189 57.9312 346.46 57.8719 346.692 57.7534C346.925 57.6349 347.118 57.4504 347.273 57.1997C347.433 56.9445 347.551 56.6187 347.629 56.2222C347.706 55.8211 347.745 55.3426 347.745 54.7866Z" fill="#434343"/>
<line y1="83.4165" x2="279" y2="83.4165" stroke="#818BA6" stroke-opacity="0.2" stroke-width="0.5"/>
<path d="M295.983 78.1587V88.1665H294.719V79.7378L292.169 80.6675V79.5259L295.785 78.1587H295.983ZM301.302 83.4292L300.29 83.1694L300.789 78.2134H305.896V79.3823H301.862L301.562 82.0894C301.744 81.9845 301.974 81.8866 302.252 81.7954C302.535 81.7043 302.858 81.6587 303.223 81.6587C303.683 81.6587 304.095 81.7384 304.46 81.8979C304.825 82.0529 305.134 82.2762 305.39 82.5679C305.649 82.8595 305.848 83.2104 305.984 83.6206C306.121 84.0308 306.189 84.4888 306.189 84.9946C306.189 85.4731 306.123 85.9129 305.991 86.314C305.864 86.715 305.67 87.0659 305.41 87.3667C305.15 87.6629 304.822 87.8931 304.426 88.0571C304.034 88.2212 303.571 88.3032 303.038 88.3032C302.637 88.3032 302.257 88.2485 301.896 88.1392C301.541 88.0252 301.222 87.8543 300.939 87.6265C300.661 87.394 300.434 87.1069 300.256 86.7651C300.083 86.4188 299.973 86.0132 299.928 85.5483H301.131C301.186 85.922 301.295 86.2365 301.459 86.4917C301.623 86.7469 301.837 86.9406 302.102 87.0728C302.37 87.2004 302.683 87.2642 303.038 87.2642C303.339 87.2642 303.605 87.2118 303.838 87.1069C304.07 87.0021 304.266 86.8517 304.426 86.6558C304.585 86.4598 304.706 86.2228 304.788 85.9448C304.875 85.6668 304.918 85.3547 304.918 85.0083C304.918 84.6938 304.875 84.4022 304.788 84.1333C304.701 83.8644 304.572 83.6297 304.398 83.4292C304.23 83.2287 304.022 83.0737 303.776 82.9644C303.53 82.8504 303.248 82.7935 302.929 82.7935C302.505 82.7935 302.184 82.8504 301.965 82.9644C301.751 83.0783 301.53 83.2332 301.302 83.4292ZM313.825 82.397V83.9146C313.825 84.7303 313.752 85.4185 313.606 85.979C313.461 86.5396 313.251 86.9907 312.978 87.3325C312.704 87.6743 312.374 87.9227 311.986 88.0776C311.604 88.228 311.171 88.3032 310.688 88.3032C310.305 88.3032 309.951 88.2554 309.628 88.1597C309.304 88.064 309.013 87.9113 308.753 87.7017C308.498 87.4875 308.279 87.2095 308.097 86.8677C307.914 86.5259 307.775 86.1112 307.68 85.6235C307.584 85.1359 307.536 84.5662 307.536 83.9146V82.397C307.536 81.5812 307.609 80.8976 307.755 80.3462C307.905 79.7948 308.117 79.3527 308.391 79.02C308.664 78.6828 308.992 78.4412 309.375 78.2954C309.762 78.1496 310.195 78.0767 310.674 78.0767C311.061 78.0767 311.417 78.1245 311.74 78.2202C312.068 78.3114 312.36 78.4595 312.615 78.6646C312.87 78.8651 313.087 79.134 313.265 79.4712C313.447 79.8039 313.586 80.2118 313.682 80.6948C313.777 81.1779 313.825 81.7453 313.825 82.397ZM312.554 84.1196V82.1851C312.554 81.7384 312.526 81.3465 312.472 81.0093C312.422 80.6675 312.346 80.3758 312.246 80.1343C312.146 79.8927 312.018 79.6968 311.863 79.5464C311.713 79.396 311.537 79.2866 311.337 79.2183C311.141 79.1453 310.92 79.1089 310.674 79.1089C310.373 79.1089 310.106 79.1659 309.874 79.2798C309.642 79.3892 309.446 79.5646 309.286 79.8062C309.131 80.0477 309.013 80.3644 308.931 80.7563C308.849 81.1483 308.808 81.6245 308.808 82.1851V84.1196C308.808 84.5662 308.833 84.9604 308.883 85.3022C308.938 85.644 309.017 85.9403 309.122 86.1909C309.227 86.437 309.354 86.6398 309.505 86.7993C309.655 86.9588 309.828 87.0773 310.024 87.1548C310.225 87.2277 310.446 87.2642 310.688 87.2642C310.997 87.2642 311.269 87.2049 311.501 87.0864C311.733 86.9679 311.927 86.7834 312.082 86.5327C312.242 86.2775 312.36 85.9517 312.438 85.5552C312.515 85.1541 312.554 84.6756 312.554 84.1196ZM320.306 78.1997H320.415V79.2729H320.306C319.636 79.2729 319.075 79.3823 318.624 79.6011C318.173 79.8153 317.815 80.1047 317.551 80.4692C317.286 80.8293 317.095 81.2349 316.977 81.686C316.863 82.1372 316.806 82.5952 316.806 83.0601V84.5229C316.806 84.965 316.858 85.3569 316.963 85.6987C317.068 86.036 317.211 86.3208 317.394 86.5532C317.576 86.7856 317.781 86.9611 318.009 87.0796C318.241 87.1981 318.483 87.2573 318.733 87.2573C319.025 87.2573 319.285 87.2026 319.513 87.0933C319.741 86.9793 319.932 86.8221 320.087 86.6216C320.246 86.4165 320.367 86.175 320.449 85.897C320.531 85.619 320.572 85.3136 320.572 84.981C320.572 84.6847 320.536 84.3999 320.463 84.1265C320.39 83.8485 320.278 83.6024 320.128 83.3882C319.978 83.1694 319.788 82.9985 319.561 82.8755C319.337 82.7479 319.071 82.6841 318.761 82.6841C318.41 82.6841 318.082 82.7707 317.776 82.9438C317.476 83.1125 317.227 83.3358 317.031 83.6138C316.84 83.8872 316.73 84.1857 316.703 84.5093L316.033 84.5024C316.097 83.992 316.215 83.5568 316.389 83.1968C316.566 82.8322 316.785 82.536 317.045 82.3081C317.309 82.0757 317.603 81.9071 317.927 81.8022C318.255 81.6929 318.601 81.6382 318.966 81.6382C319.463 81.6382 319.891 81.7316 320.251 81.9185C320.611 82.1053 320.907 82.356 321.14 82.6704C321.372 82.9803 321.543 83.3312 321.652 83.7231C321.766 84.1105 321.823 84.5093 321.823 84.9194C321.823 85.3888 321.757 85.8286 321.625 86.2388C321.493 86.6489 321.295 87.009 321.03 87.3188C320.771 87.6287 320.449 87.8703 320.066 88.0435C319.684 88.2166 319.239 88.3032 318.733 88.3032C318.196 88.3032 317.726 88.1938 317.325 87.9751C316.924 87.7518 316.591 87.4556 316.327 87.0864C316.063 86.7173 315.865 86.3071 315.732 85.856C315.6 85.4048 315.534 84.9468 315.534 84.4819V83.8872C315.534 83.1854 315.605 82.4972 315.746 81.8228C315.887 81.1483 316.131 80.5376 316.478 79.9907C316.828 79.4438 317.314 79.0086 317.934 78.6851C318.553 78.3615 319.344 78.1997 320.306 78.1997ZM329.575 82.397V83.9146C329.575 84.7303 329.502 85.4185 329.356 85.979C329.211 86.5396 329.001 86.9907 328.728 87.3325C328.454 87.6743 328.124 87.9227 327.736 88.0776C327.354 88.228 326.921 88.3032 326.438 88.3032C326.055 88.3032 325.701 88.2554 325.378 88.1597C325.054 88.064 324.763 87.9113 324.503 87.7017C324.248 87.4875 324.029 87.2095 323.847 86.8677C323.664 86.5259 323.525 86.1112 323.43 85.6235C323.334 85.1359 323.286 84.5662 323.286 83.9146V82.397C323.286 81.5812 323.359 80.8976 323.505 80.3462C323.655 79.7948 323.867 79.3527 324.141 79.02C324.414 78.6828 324.742 78.4412 325.125 78.2954C325.512 78.1496 325.945 78.0767 326.424 78.0767C326.811 78.0767 327.167 78.1245 327.49 78.2202C327.818 78.3114 328.11 78.4595 328.365 78.6646C328.62 78.8651 328.837 79.134 329.015 79.4712C329.197 79.8039 329.336 80.2118 329.432 80.6948C329.527 81.1779 329.575 81.7453 329.575 82.397ZM328.304 84.1196V82.1851C328.304 81.7384 328.276 81.3465 328.222 81.0093C328.172 80.6675 328.096 80.3758 327.996 80.1343C327.896 79.8927 327.768 79.6968 327.613 79.5464C327.463 79.396 327.287 79.2866 327.087 79.2183C326.891 79.1453 326.67 79.1089 326.424 79.1089C326.123 79.1089 325.856 79.1659 325.624 79.2798C325.392 79.3892 325.196 79.5646 325.036 79.8062C324.881 80.0477 324.763 80.3644 324.681 80.7563C324.599 81.1483 324.558 81.6245 324.558 82.1851V84.1196C324.558 84.5662 324.583 84.9604 324.633 85.3022C324.688 85.644 324.767 85.9403 324.872 86.1909C324.977 86.437 325.104 86.6398 325.255 86.7993C325.405 86.9588 325.578 87.0773 325.774 87.1548C325.975 87.2277 326.196 87.2642 326.438 87.2642C326.747 87.2642 327.019 87.2049 327.251 87.0864C327.483 86.9679 327.677 86.7834 327.832 86.5327C327.992 86.2775 328.11 85.9517 328.188 85.5552C328.265 85.1541 328.304 84.6756 328.304 84.1196ZM331.359 87.4966C331.359 87.2824 331.425 87.1024 331.558 86.9565C331.694 86.8062 331.89 86.731 332.146 86.731C332.401 86.731 332.594 86.8062 332.727 86.9565C332.863 87.1024 332.932 87.2824 332.932 87.4966C332.932 87.7062 332.863 87.884 332.727 88.0298C332.594 88.1756 332.401 88.2485 332.146 88.2485C331.89 88.2485 331.694 88.1756 331.558 88.0298C331.425 87.884 331.359 87.7062 331.359 87.4966ZM341.142 82.397V83.9146C341.142 84.7303 341.069 85.4185 340.923 85.979C340.777 86.5396 340.567 86.9907 340.294 87.3325C340.021 87.6743 339.69 87.9227 339.303 88.0776C338.92 88.228 338.487 88.3032 338.004 88.3032C337.621 88.3032 337.268 88.2554 336.944 88.1597C336.621 88.064 336.329 87.9113 336.069 87.7017C335.814 87.4875 335.595 87.2095 335.413 86.8677C335.231 86.5259 335.092 86.1112 334.996 85.6235C334.9 85.1359 334.853 84.5662 334.853 83.9146V82.397C334.853 81.5812 334.925 80.8976 335.071 80.3462C335.222 79.7948 335.434 79.3527 335.707 79.02C335.98 78.6828 336.309 78.4412 336.691 78.2954C337.079 78.1496 337.512 78.0767 337.99 78.0767C338.378 78.0767 338.733 78.1245 339.057 78.2202C339.385 78.3114 339.676 78.4595 339.932 78.6646C340.187 78.8651 340.403 79.134 340.581 79.4712C340.763 79.8039 340.902 80.2118 340.998 80.6948C341.094 81.1779 341.142 81.7453 341.142 82.397ZM339.87 84.1196V82.1851C339.87 81.7384 339.843 81.3465 339.788 81.0093C339.738 80.6675 339.663 80.3758 339.562 80.1343C339.462 79.8927 339.335 79.6968 339.18 79.5464C339.029 79.396 338.854 79.2866 338.653 79.2183C338.457 79.1453 338.236 79.1089 337.99 79.1089C337.689 79.1089 337.423 79.1659 337.19 79.2798C336.958 79.3892 336.762 79.5646 336.603 79.8062C336.448 80.0477 336.329 80.3644 336.247 80.7563C336.165 81.1483 336.124 81.6245 336.124 82.1851V84.1196C336.124 84.5662 336.149 84.9604 336.199 85.3022C336.254 85.644 336.334 85.9403 336.438 86.1909C336.543 86.437 336.671 86.6398 336.821 86.7993C336.972 86.9588 337.145 87.0773 337.341 87.1548C337.541 87.2277 337.762 87.2642 338.004 87.2642C338.314 87.2642 338.585 87.2049 338.817 87.0864C339.05 86.9679 339.243 86.7834 339.398 86.5327C339.558 86.2775 339.676 85.9517 339.754 85.5552C339.831 85.1541 339.87 84.6756 339.87 84.1196ZM349.017 82.397V83.9146C349.017 84.7303 348.944 85.4185 348.798 85.979C348.652 86.5396 348.442 86.9907 348.169 87.3325C347.896 87.6743 347.565 87.9227 347.178 88.0776C346.795 88.228 346.362 88.3032 345.879 88.3032C345.496 88.3032 345.143 88.2554 344.819 88.1597C344.496 88.064 344.204 87.9113 343.944 87.7017C343.689 87.4875 343.47 87.2095 343.288 86.8677C343.106 86.5259 342.967 86.1112 342.871 85.6235C342.775 85.1359 342.728 84.5662 342.728 83.9146V82.397C342.728 81.5812 342.8 80.8976 342.946 80.3462C343.097 79.7948 343.309 79.3527 343.582 79.02C343.855 78.6828 344.184 78.4412 344.566 78.2954C344.954 78.1496 345.387 78.0767 345.865 78.0767C346.253 78.0767 346.608 78.1245 346.932 78.2202C347.26 78.3114 347.551 78.4595 347.807 78.6646C348.062 78.8651 348.278 79.134 348.456 79.4712C348.638 79.8039 348.777 80.2118 348.873 80.6948C348.969 81.1779 349.017 81.7453 349.017 82.397ZM347.745 84.1196V82.1851C347.745 81.7384 347.718 81.3465 347.663 81.0093C347.613 80.6675 347.538 80.3758 347.438 80.1343C347.337 79.8927 347.21 79.6968 347.055 79.5464C346.904 79.396 346.729 79.2866 346.528 79.2183C346.332 79.1453 346.111 79.1089 345.865 79.1089C345.564 79.1089 345.298 79.1659 345.065 79.2798C344.833 79.3892 344.637 79.5646 344.478 79.8062C344.323 80.0477 344.204 80.3644 344.122 80.7563C344.04 81.1483 343.999 81.6245 343.999 82.1851V84.1196C343.999 84.5662 344.024 84.9604 344.074 85.3022C344.129 85.644 344.209 85.9403 344.313 86.1909C344.418 86.437 344.546 86.6398 344.696 86.7993C344.847 86.9588 345.02 87.0773 345.216 87.1548C345.416 87.2277 345.637 87.2642 345.879 87.2642C346.189 87.2642 346.46 87.2049 346.692 87.0864C346.925 86.9679 347.118 86.7834 347.273 86.5327C347.433 86.2775 347.551 85.9517 347.629 85.5552C347.706 85.1541 347.745 84.6756 347.745 84.1196Z" fill="#434343"/>
<line y1="112.75" x2="279" y2="112.75" stroke="#818BA6" stroke-opacity="0.2" stroke-width="0.5"/>
<path d="M295.983 107.492V117.5H294.719V109.071L292.169 110.001V108.859L295.785 107.492H295.983ZM301.302 112.763L300.29 112.503L300.789 107.547H305.896V108.716H301.862L301.562 111.423C301.744 111.318 301.974 111.22 302.252 111.129C302.535 111.038 302.858 110.992 303.223 110.992C303.683 110.992 304.095 111.072 304.46 111.231C304.825 111.386 305.134 111.61 305.39 111.901C305.649 112.193 305.848 112.544 305.984 112.954C306.121 113.364 306.189 113.822 306.189 114.328C306.189 114.807 306.123 115.246 305.991 115.647C305.864 116.049 305.67 116.399 305.41 116.7C305.15 116.996 304.822 117.227 304.426 117.391C304.034 117.555 303.571 117.637 303.038 117.637C302.637 117.637 302.257 117.582 301.896 117.473C301.541 117.359 301.222 117.188 300.939 116.96C300.661 116.728 300.434 116.44 300.256 116.099C300.083 115.752 299.973 115.347 299.928 114.882H301.131C301.186 115.256 301.295 115.57 301.459 115.825C301.623 116.08 301.837 116.274 302.102 116.406C302.37 116.534 302.683 116.598 303.038 116.598C303.339 116.598 303.605 116.545 303.838 116.44C304.07 116.336 304.266 116.185 304.426 115.989C304.585 115.793 304.706 115.556 304.788 115.278C304.875 115 304.918 114.688 304.918 114.342C304.918 114.027 304.875 113.736 304.788 113.467C304.701 113.198 304.572 112.963 304.398 112.763C304.23 112.562 304.022 112.407 303.776 112.298C303.53 112.184 303.248 112.127 302.929 112.127C302.505 112.127 302.184 112.184 301.965 112.298C301.751 112.412 301.53 112.567 301.302 112.763ZM313.825 111.73V113.248C313.825 114.064 313.752 114.752 313.606 115.312C313.461 115.873 313.251 116.324 312.978 116.666C312.704 117.008 312.374 117.256 311.986 117.411C311.604 117.562 311.171 117.637 310.688 117.637C310.305 117.637 309.951 117.589 309.628 117.493C309.304 117.397 309.013 117.245 308.753 117.035C308.498 116.821 308.279 116.543 308.097 116.201C307.914 115.859 307.775 115.445 307.68 114.957C307.584 114.469 307.536 113.9 307.536 113.248V111.73C307.536 110.915 307.609 110.231 307.755 109.68C307.905 109.128 308.117 108.686 308.391 108.354C308.664 108.016 308.992 107.775 309.375 107.629C309.762 107.483 310.195 107.41 310.674 107.41C311.061 107.41 311.417 107.458 311.74 107.554C312.068 107.645 312.36 107.793 312.615 107.998C312.87 108.199 313.087 108.467 313.265 108.805C313.447 109.137 313.586 109.545 313.682 110.028C313.777 110.511 313.825 111.079 313.825 111.73ZM312.554 113.453V111.519C312.554 111.072 312.526 110.68 312.472 110.343C312.422 110.001 312.346 109.709 312.246 109.468C312.146 109.226 312.018 109.03 311.863 108.88C311.713 108.729 311.537 108.62 311.337 108.552C311.141 108.479 310.92 108.442 310.674 108.442C310.373 108.442 310.106 108.499 309.874 108.613C309.642 108.723 309.446 108.898 309.286 109.14C309.131 109.381 309.013 109.698 308.931 110.09C308.849 110.482 308.808 110.958 308.808 111.519V113.453C308.808 113.9 308.833 114.294 308.883 114.636C308.938 114.978 309.017 115.274 309.122 115.524C309.227 115.771 309.354 115.973 309.505 116.133C309.655 116.292 309.828 116.411 310.024 116.488C310.225 116.561 310.446 116.598 310.688 116.598C310.997 116.598 311.269 116.538 311.501 116.42C311.733 116.301 311.927 116.117 312.082 115.866C312.242 115.611 312.36 115.285 312.438 114.889C312.515 114.488 312.554 114.009 312.554 113.453ZM317.052 112.763L316.04 112.503L316.539 107.547H321.646V108.716H317.612L317.312 111.423C317.494 111.318 317.724 111.22 318.002 111.129C318.285 111.038 318.608 110.992 318.973 110.992C319.433 110.992 319.845 111.072 320.21 111.231C320.575 111.386 320.884 111.61 321.14 111.901C321.399 112.193 321.598 112.544 321.734 112.954C321.871 113.364 321.939 113.822 321.939 114.328C321.939 114.807 321.873 115.246 321.741 115.647C321.614 116.049 321.42 116.399 321.16 116.7C320.9 116.996 320.572 117.227 320.176 117.391C319.784 117.555 319.321 117.637 318.788 117.637C318.387 117.637 318.007 117.582 317.646 117.473C317.291 117.359 316.972 117.188 316.689 116.96C316.411 116.728 316.184 116.44 316.006 116.099C315.833 115.752 315.723 115.347 315.678 114.882H316.881C316.936 115.256 317.045 115.57 317.209 115.825C317.373 116.08 317.587 116.274 317.852 116.406C318.12 116.534 318.433 116.598 318.788 116.598C319.089 116.598 319.355 116.545 319.588 116.44C319.82 116.336 320.016 116.185 320.176 115.989C320.335 115.793 320.456 115.556 320.538 115.278C320.625 115 320.668 114.688 320.668 114.342C320.668 114.027 320.625 113.736 320.538 113.467C320.451 113.198 320.322 112.963 320.148 112.763C319.98 112.562 319.772 112.407 319.526 112.298C319.28 112.184 318.998 112.127 318.679 112.127C318.255 112.127 317.934 112.184 317.715 112.298C317.501 112.412 317.28 112.567 317.052 112.763ZM329.575 111.73V113.248C329.575 114.064 329.502 114.752 329.356 115.312C329.211 115.873 329.001 116.324 328.728 116.666C328.454 117.008 328.124 117.256 327.736 117.411C327.354 117.562 326.921 117.637 326.438 117.637C326.055 117.637 325.701 117.589 325.378 117.493C325.054 117.397 324.763 117.245 324.503 117.035C324.248 116.821 324.029 116.543 323.847 116.201C323.664 115.859 323.525 115.445 323.43 114.957C323.334 114.469 323.286 113.9 323.286 113.248V111.73C323.286 110.915 323.359 110.231 323.505 109.68C323.655 109.128 323.867 108.686 324.141 108.354C324.414 108.016 324.742 107.775 325.125 107.629C325.512 107.483 325.945 107.41 326.424 107.41C326.811 107.41 327.167 107.458 327.49 107.554C327.818 107.645 328.11 107.793 328.365 107.998C328.62 108.199 328.837 108.467 329.015 108.805C329.197 109.137 329.336 109.545 329.432 110.028C329.527 110.511 329.575 111.079 329.575 111.73ZM328.304 113.453V111.519C328.304 111.072 328.276 110.68 328.222 110.343C328.172 110.001 328.096 109.709 327.996 109.468C327.896 109.226 327.768 109.03 327.613 108.88C327.463 108.729 327.287 108.62 327.087 108.552C326.891 108.479 326.67 108.442 326.424 108.442C326.123 108.442 325.856 108.499 325.624 108.613C325.392 108.723 325.196 108.898 325.036 109.14C324.881 109.381 324.763 109.698 324.681 110.09C324.599 110.482 324.558 110.958 324.558 111.519V113.453C324.558 113.9 324.583 114.294 324.633 114.636C324.688 114.978 324.767 115.274 324.872 115.524C324.977 115.771 325.104 115.973 325.255 116.133C325.405 116.292 325.578 116.411 325.774 116.488C325.975 116.561 326.196 116.598 326.438 116.598C326.747 116.598 327.019 116.538 327.251 116.42C327.483 116.301 327.677 116.117 327.832 115.866C327.992 115.611 328.11 115.285 328.188 114.889C328.265 114.488 328.304 114.009 328.304 113.453ZM331.359 116.83C331.359 116.616 331.425 116.436 331.558 116.29C331.694 116.14 331.89 116.064 332.146 116.064C332.401 116.064 332.594 116.14 332.727 116.29C332.863 116.436 332.932 116.616 332.932 116.83C332.932 117.04 332.863 117.217 332.727 117.363C332.594 117.509 332.401 117.582 332.146 117.582C331.89 117.582 331.694 117.509 331.558 117.363C331.425 117.217 331.359 117.04 331.359 116.83ZM341.142 111.73V113.248C341.142 114.064 341.069 114.752 340.923 115.312C340.777 115.873 340.567 116.324 340.294 116.666C340.021 117.008 339.69 117.256 339.303 117.411C338.92 117.562 338.487 117.637 338.004 117.637C337.621 117.637 337.268 117.589 336.944 117.493C336.621 117.397 336.329 117.245 336.069 117.035C335.814 116.821 335.595 116.543 335.413 116.201C335.231 115.859 335.092 115.445 334.996 114.957C334.9 114.469 334.853 113.9 334.853 113.248V111.73C334.853 110.915 334.925 110.231 335.071 109.68C335.222 109.128 335.434 108.686 335.707 108.354C335.98 108.016 336.309 107.775 336.691 107.629C337.079 107.483 337.512 107.41 337.99 107.41C338.378 107.41 338.733 107.458 339.057 107.554C339.385 107.645 339.676 107.793 339.932 107.998C340.187 108.199 340.403 108.467 340.581 108.805C340.763 109.137 340.902 109.545 340.998 110.028C341.094 110.511 341.142 111.079 341.142 111.73ZM339.87 113.453V111.519C339.87 111.072 339.843 110.68 339.788 110.343C339.738 110.001 339.663 109.709 339.562 109.468C339.462 109.226 339.335 109.03 339.18 108.88C339.029 108.729 338.854 108.62 338.653 108.552C338.457 108.479 338.236 108.442 337.99 108.442C337.689 108.442 337.423 108.499 337.19 108.613C336.958 108.723 336.762 108.898 336.603 109.14C336.448 109.381 336.329 109.698 336.247 110.09C336.165 110.482 336.124 110.958 336.124 111.519V113.453C336.124 113.9 336.149 114.294 336.199 114.636C336.254 114.978 336.334 115.274 336.438 115.524C336.543 115.771 336.671 115.973 336.821 116.133C336.972 116.292 337.145 116.411 337.341 116.488C337.541 116.561 337.762 116.598 338.004 116.598C338.314 116.598 338.585 116.538 338.817 116.42C339.05 116.301 339.243 116.117 339.398 115.866C339.558 115.611 339.676 115.285 339.754 114.889C339.831 114.488 339.87 114.009 339.87 113.453ZM349.017 111.73V113.248C349.017 114.064 348.944 114.752 348.798 115.312C348.652 115.873 348.442 116.324 348.169 116.666C347.896 117.008 347.565 117.256 347.178 117.411C346.795 117.562 346.362 117.637 345.879 117.637C345.496 117.637 345.143 117.589 344.819 117.493C344.496 117.397 344.204 117.245 343.944 117.035C343.689 116.821 343.47 116.543 343.288 116.201C343.106 115.859 342.967 115.445 342.871 114.957C342.775 114.469 342.728 113.9 342.728 113.248V111.73C342.728 110.915 342.8 110.231 342.946 109.68C343.097 109.128 343.309 108.686 343.582 108.354C343.855 108.016 344.184 107.775 344.566 107.629C344.954 107.483 345.387 107.41 345.865 107.41C346.253 107.41 346.608 107.458 346.932 107.554C347.26 107.645 347.551 107.793 347.807 107.998C348.062 108.199 348.278 108.467 348.456 108.805C348.638 109.137 348.777 109.545 348.873 110.028C348.969 110.511 349.017 111.079 349.017 111.73ZM347.745 113.453V111.519C347.745 111.072 347.718 110.68 347.663 110.343C347.613 110.001 347.538 109.709 347.438 109.468C347.337 109.226 347.21 109.03 347.055 108.88C346.904 108.729 346.729 108.62 346.528 108.552C346.332 108.479 346.111 108.442 345.865 108.442C345.564 108.442 345.298 108.499 345.065 108.613C344.833 108.723 344.637 108.898 344.478 109.14C344.323 109.381 344.204 109.698 344.122 110.09C344.04 110.482 343.999 110.958 343.999 111.519V113.453C343.999 113.9 344.024 114.294 344.074 114.636C344.129 114.978 344.209 115.274 344.313 115.524C344.418 115.771 344.546 115.973 344.696 116.133C344.847 116.292 345.02 116.411 345.216 116.488C345.416 116.561 345.637 116.598 345.879 116.598C346.189 116.598 346.46 116.538 346.692 116.42C346.925 116.301 347.118 116.117 347.273 115.866C347.433 115.611 347.551 115.285 347.629 114.889C347.706 114.488 347.745 114.009 347.745 113.453Z" fill="#434343"/>
<g clip-path="url(#clip3_1652_7031)">
<path fill-rule="evenodd" clip-rule="evenodd" d="M32.5 0.5V162.5H32V0.5H32.5Z" fill="#818BA6" fill-opacity="0.2"/>
<path fill-rule="evenodd" clip-rule="evenodd" d="M111.667 0.5V162.5H111.167V0.5H111.667Z" fill="#818BA6" fill-opacity="0.2"/>
<path fill-rule="evenodd" clip-rule="evenodd" d="M190.833 0.5V162.5H190.333V0.5H190.833Z" fill="#818BA6" fill-opacity="0.2"/>
<path fill-rule="evenodd" clip-rule="evenodd" d="M270 0.5V162.5H269.5V0.5H270Z" fill="#818BA6" fill-opacity="0.2"/>
</g>
<path d="M298.85 22.5469H300.162V29.2803C300.162 30.0277 299.996 30.6497 299.663 31.1465C299.33 31.6432 298.888 32.0169 298.337 32.2676C297.79 32.5137 297.195 32.6367 296.553 32.6367C295.878 32.6367 295.268 32.5137 294.721 32.2676C294.178 32.0169 293.748 31.6432 293.429 31.1465C293.114 30.6497 292.957 30.0277 292.957 29.2803V22.5469H294.263V29.2803C294.263 29.7998 294.358 30.2282 294.55 30.5654C294.741 30.9027 295.008 31.1533 295.35 31.3174C295.696 31.4814 296.097 31.5635 296.553 31.5635C297.013 31.5635 297.414 31.4814 297.756 31.3174C298.102 31.1533 298.371 30.9027 298.562 30.5654C298.754 30.2282 298.85 29.7998 298.85 29.2803V22.5469ZM307.538 29.9844C307.538 29.752 307.502 29.5469 307.429 29.3691C307.36 29.1868 307.237 29.0228 307.06 28.877C306.886 28.7311 306.645 28.5921 306.335 28.46C306.03 28.3278 305.642 28.1934 305.173 28.0566C304.681 27.9108 304.236 27.749 303.84 27.5713C303.443 27.389 303.104 27.1816 302.821 26.9492C302.539 26.7168 302.322 26.4502 302.172 26.1494C302.021 25.8486 301.946 25.5046 301.946 25.1172C301.946 24.7298 302.026 24.3721 302.186 24.0439C302.345 23.7158 302.573 23.431 302.869 23.1895C303.17 22.9434 303.528 22.752 303.942 22.6152C304.357 22.4785 304.82 22.4102 305.33 22.4102C306.077 22.4102 306.711 22.5537 307.23 22.8408C307.755 23.1234 308.153 23.4948 308.427 23.9551C308.7 24.4108 308.837 24.8984 308.837 25.418H307.524C307.524 25.0443 307.445 24.7139 307.285 24.4268C307.126 24.1351 306.884 23.9072 306.561 23.7432C306.237 23.5745 305.827 23.4902 305.33 23.4902C304.861 23.4902 304.473 23.5609 304.168 23.7021C303.863 23.8434 303.635 24.0348 303.484 24.2764C303.339 24.5179 303.266 24.7936 303.266 25.1035C303.266 25.3132 303.309 25.5046 303.396 25.6777C303.487 25.8464 303.626 26.0036 303.812 26.1494C304.004 26.2952 304.245 26.4297 304.537 26.5527C304.833 26.6758 305.187 26.7943 305.597 26.9082C306.162 27.0677 306.649 27.2454 307.06 27.4414C307.47 27.6374 307.807 27.8584 308.071 28.1045C308.34 28.346 308.538 28.6217 308.666 28.9316C308.798 29.237 308.864 29.5833 308.864 29.9707C308.864 30.3763 308.782 30.7432 308.618 31.0713C308.454 31.3994 308.219 31.6797 307.914 31.9121C307.609 32.1445 307.242 32.3245 306.813 32.4521C306.39 32.5752 305.916 32.6367 305.392 32.6367C304.931 32.6367 304.478 32.5729 304.031 32.4453C303.589 32.3177 303.186 32.1263 302.821 31.8711C302.461 31.6159 302.172 31.3014 301.953 30.9277C301.739 30.5495 301.632 30.112 301.632 29.6152H302.944C302.944 29.957 303.01 30.251 303.143 30.4971C303.275 30.7386 303.455 30.9391 303.683 31.0986C303.915 31.2581 304.177 31.3766 304.469 31.4541C304.765 31.527 305.073 31.5635 305.392 31.5635C305.852 31.5635 306.242 31.4997 306.561 31.3721C306.88 31.2445 307.121 31.0622 307.285 30.8252C307.454 30.5882 307.538 30.3079 307.538 29.9844ZM313.239 32.5H311.161L311.175 31.4268H313.239C313.95 31.4268 314.543 31.2786 315.017 30.9824C315.491 30.6816 315.846 30.2624 316.083 29.7246C316.325 29.1823 316.445 28.5488 316.445 27.8242V27.2158C316.445 26.6462 316.377 26.1403 316.24 25.6982C316.104 25.2516 315.903 24.8757 315.639 24.5703C315.374 24.2604 315.051 24.0257 314.668 23.8662C314.29 23.7067 313.854 23.627 313.362 23.627H311.12V22.5469H313.362C314.014 22.5469 314.609 22.6562 315.146 22.875C315.684 23.0892 316.147 23.4014 316.534 23.8115C316.926 24.2171 317.227 24.7093 317.437 25.2881C317.646 25.8623 317.751 26.5094 317.751 27.2295V27.8242C317.751 28.5443 317.646 29.1937 317.437 29.7725C317.227 30.3467 316.924 30.8366 316.527 31.2422C316.135 31.6478 315.661 31.96 315.105 32.1787C314.554 32.3929 313.932 32.5 313.239 32.5ZM311.865 22.5469V32.5H310.546V22.5469H311.865Z" fill="#1F1F1F"/>
<path d="M323 27L325.5 29L328 27" stroke="#EEEEEE" stroke-width="1.2"/>
</g>
<rect x="225.5" y="70" width="8" height="29" fill="#A9A9A9" stroke="#A9A9A9"/>
<path d="M229.5 29.5V106.5" stroke="#A9A9A9"/>
<rect x="212.5" y="52" width="8" height="17" fill="#A9A9A9" stroke="#A9A9A9"/>
<path d="M216.5 28.5V163.5" stroke="#A9A9A9"/>
<rect x="186.5" y="97" width="8" height="15" fill="#A9A9A9" stroke="#A9A9A9"/>
<path d="M190.5 72.5V125.5" stroke="#A9A9A9"/>
<rect x="173.5" y="52" width="8" height="44" fill="#A9A9A9" stroke="#A9A9A9"/>
<path d="M177.5 49.5V99.5" stroke="#A9A9A9"/>
<rect x="160.5" y="41" width="8" height="10" fill="#A9A9A9" stroke="#A9A9A9"/>
<path d="M164.5 31.5V60.5" stroke="#A9A9A9"/>
<rect x="134.5" y="53" width="8" height="26" fill="#A9A9A9" stroke="#A9A9A9"/>
<path d="M138.5 45.5V134.5" stroke="#A9A9A9"/>
<rect x="121.5" y="31" width="8" height="22" fill="#A9A9A9" stroke="#A9A9A9"/>
<path d="M125.5 27.5V81.5" stroke="#A9A9A9"/>
<rect x="43.5" y="79" width="8" height="75" fill="#A9A9A9" stroke="#A9A9A9"/>
<path d="M47.5 70.5L47.5 156.5" stroke="#A9A9A9"/>
<rect x="147.5" y="41" width="8" height="38" fill="#434343" stroke="#434343"/>
<path d="M151.5 32.5V102.5" stroke="#434343"/>
<rect x="108.5" y="31" width="8" height="70" fill="#434343" stroke="#434343"/>
<path d="M112.5 26.5V101.5" stroke="#434343"/>
<rect x="95.5" y="102" width="8" height="16" fill="#434343" stroke="#434343"/>
<path d="M99.5 101.5V137.5" stroke="#434343"/>
<rect x="82.5" y="119" width="8" height="1" fill="#434343" stroke="#434343"/>
<path d="M86.5 96.5V131.5" stroke="#434343"/>
<rect x="69.5" y="121" width="8" height="14" fill="#434343" stroke="#434343"/>
<path d="M73.5 118.5V156.5" stroke="#434343"/>
<rect x="56.5" y="136" width="8" height="18" fill="#434343" stroke="#434343"/>
<path d="M60.5 116.5V172.5" stroke="#434343"/>
<rect x="30.5" y="79" width="8" height="67" fill="#434343" stroke="#434343"/>
<path d="M34.5 75.5L34.5 168.5" stroke="#434343"/>
<rect x="17.5" y="147" width="8" height="7" fill="#434343" stroke="#434343"/>
<path d="M21.5 133.5L21.5 187.5" stroke="#434343"/>
<rect x="4.5" y="155" width="8" height="35" fill="#434343" stroke="#434343"/>
<path d="M8.5 109.5L8.5 217.5" stroke="#434343"/>
<rect x="199.5" y="52" width="8" height="60" fill="#434343" stroke="#434343"/>
<path d="M203.5 -14.5V112.5" stroke="#434343"/>
<line x1="0.25" y1="53.75" x2="280.75" y2="53.75" stroke="#EEEEEE" stroke-width="0.5" stroke-linecap="round" stroke-dasharray="1 1"/>
<rect width="73" height="21" transform="translate(281 43.5)" fill="#BEBEBE"/>
<path d="M295.983 48.4922V58.5H294.719V50.0713L292.169 51.001V49.8594L295.785 48.4922H295.983ZM301.302 53.7627L300.29 53.5029L300.789 48.5469H305.896V49.7158H301.862L301.562 52.4229C301.744 52.318 301.974 52.2201 302.252 52.1289C302.535 52.0378 302.858 51.9922 303.223 51.9922C303.683 51.9922 304.095 52.0719 304.46 52.2314C304.825 52.3864 305.134 52.6097 305.39 52.9014C305.649 53.193 305.848 53.5439 305.984 53.9541C306.121 54.3643 306.189 54.8223 306.189 55.3281C306.189 55.8066 306.123 56.2464 305.991 56.6475C305.864 57.0485 305.67 57.3994 305.41 57.7002C305.15 57.9964 304.822 58.2266 304.426 58.3906C304.034 58.5547 303.571 58.6367 303.038 58.6367C302.637 58.6367 302.257 58.582 301.896 58.4727C301.541 58.3587 301.222 58.1878 300.939 57.96C300.661 57.7275 300.434 57.4404 300.256 57.0986C300.083 56.7523 299.973 56.3467 299.928 55.8818H301.131C301.186 56.2555 301.295 56.57 301.459 56.8252C301.623 57.0804 301.837 57.2741 302.102 57.4062C302.37 57.5339 302.683 57.5977 303.038 57.5977C303.339 57.5977 303.605 57.5452 303.838 57.4404C304.07 57.3356 304.266 57.1852 304.426 56.9893C304.585 56.7933 304.706 56.5563 304.788 56.2783C304.875 56.0003 304.918 55.6882 304.918 55.3418C304.918 55.0273 304.875 54.7357 304.788 54.4668C304.701 54.1979 304.572 53.9632 304.398 53.7627C304.23 53.5622 304.022 53.4072 303.776 53.2979C303.53 53.1839 303.248 53.127 302.929 53.127C302.505 53.127 302.184 53.1839 301.965 53.2979C301.751 53.4118 301.53 53.5667 301.302 53.7627ZM313.825 52.7305V54.248C313.825 55.0638 313.752 55.752 313.606 56.3125C313.461 56.873 313.251 57.3242 312.978 57.666C312.704 58.0078 312.374 58.2562 311.986 58.4111C311.604 58.5615 311.171 58.6367 310.688 58.6367C310.305 58.6367 309.951 58.5889 309.628 58.4932C309.304 58.3975 309.013 58.2448 308.753 58.0352C308.498 57.821 308.279 57.543 308.097 57.2012C307.914 56.8594 307.775 56.4447 307.68 55.957C307.584 55.4694 307.536 54.8997 307.536 54.248V52.7305C307.536 51.9147 307.609 51.2311 307.755 50.6797C307.905 50.1283 308.117 49.6862 308.391 49.3535C308.664 49.0163 308.992 48.7747 309.375 48.6289C309.762 48.4831 310.195 48.4102 310.674 48.4102C311.061 48.4102 311.417 48.458 311.74 48.5537C312.068 48.6449 312.36 48.793 312.615 48.998C312.87 49.1986 313.087 49.4674 313.265 49.8047C313.447 50.1374 313.586 50.5452 313.682 51.0283C313.777 51.5114 313.825 52.0788 313.825 52.7305ZM312.554 54.4531V52.5186C312.554 52.0719 312.526 51.68 312.472 51.3428C312.422 51.001 312.346 50.7093 312.246 50.4678C312.146 50.2262 312.018 50.0303 311.863 49.8799C311.713 49.7295 311.537 49.6201 311.337 49.5518C311.141 49.4788 310.92 49.4424 310.674 49.4424C310.373 49.4424 310.106 49.4993 309.874 49.6133C309.642 49.7227 309.446 49.8981 309.286 50.1396C309.131 50.3812 309.013 50.6979 308.931 51.0898C308.849 51.4818 308.808 51.958 308.808 52.5186V54.4531C308.808 54.8997 308.833 55.2939 308.883 55.6357C308.938 55.9775 309.017 56.2738 309.122 56.5244C309.227 56.7705 309.354 56.9733 309.505 57.1328C309.655 57.2923 309.828 57.4108 310.024 57.4883C310.225 57.5612 310.446 57.5977 310.688 57.5977C310.997 57.5977 311.269 57.5384 311.501 57.4199C311.733 57.3014 311.927 57.1169 312.082 56.8662C312.242 56.611 312.36 56.2852 312.438 55.8887C312.515 55.4876 312.554 55.0091 312.554 54.4531ZM322.179 55.1504V56.1895H314.987V55.4443L319.444 48.5469H320.477L319.369 50.543L316.423 55.1504H322.179ZM320.791 48.5469V58.5H319.526V48.5469H320.791ZM329.603 55.8066C329.603 56.4128 329.461 56.9277 329.179 57.3516C328.901 57.7708 328.522 58.0898 328.044 58.3086C327.57 58.5273 327.035 58.6367 326.438 58.6367C325.84 58.6367 325.303 58.5273 324.824 58.3086C324.346 58.0898 323.967 57.7708 323.689 57.3516C323.411 56.9277 323.272 56.4128 323.272 55.8066C323.272 55.4102 323.348 55.0479 323.498 54.7197C323.653 54.387 323.869 54.0977 324.147 53.8516C324.43 53.6055 324.763 53.4163 325.146 53.2842C325.533 53.1475 325.959 53.0791 326.424 53.0791C327.035 53.0791 327.579 53.1976 328.058 53.4346C328.536 53.667 328.912 53.9883 329.186 54.3984C329.464 54.8086 329.603 55.278 329.603 55.8066ZM328.331 55.7793C328.331 55.4102 328.251 55.0843 328.092 54.8018C327.932 54.5146 327.709 54.2913 327.422 54.1318C327.135 53.9723 326.802 53.8926 326.424 53.8926C326.036 53.8926 325.701 53.9723 325.419 54.1318C325.141 54.2913 324.924 54.5146 324.77 54.8018C324.615 55.0843 324.537 55.4102 324.537 55.7793C324.537 56.1621 324.612 56.4902 324.763 56.7637C324.918 57.0326 325.136 57.2399 325.419 57.3857C325.706 57.527 326.046 57.5977 326.438 57.5977C326.829 57.5977 327.167 57.527 327.449 57.3857C327.732 57.2399 327.948 57.0326 328.099 56.7637C328.254 56.4902 328.331 56.1621 328.331 55.7793ZM329.37 51.1377C329.37 51.6208 329.243 52.056 328.987 52.4434C328.732 52.8307 328.383 53.1361 327.941 53.3594C327.499 53.5827 326.998 53.6943 326.438 53.6943C325.868 53.6943 325.36 53.5827 324.913 53.3594C324.471 53.1361 324.125 52.8307 323.874 52.4434C323.623 52.056 323.498 51.6208 323.498 51.1377C323.498 50.5589 323.623 50.0667 323.874 49.6611C324.129 49.2555 324.478 48.9456 324.92 48.7314C325.362 48.5173 325.866 48.4102 326.431 48.4102C327 48.4102 327.506 48.5173 327.948 48.7314C328.39 48.9456 328.737 49.2555 328.987 49.6611C329.243 50.0667 329.37 50.5589 329.37 51.1377ZM328.105 51.1582C328.105 50.8255 328.035 50.5316 327.894 50.2764C327.752 50.0212 327.556 49.8206 327.306 49.6748C327.055 49.5244 326.763 49.4492 326.431 49.4492C326.098 49.4492 325.806 49.5199 325.556 49.6611C325.31 49.7979 325.116 49.9938 324.975 50.249C324.838 50.5042 324.77 50.8073 324.77 51.1582C324.77 51.5 324.838 51.7985 324.975 52.0537C325.116 52.3089 325.312 52.5072 325.562 52.6484C325.813 52.7897 326.105 52.8604 326.438 52.8604C326.77 52.8604 327.06 52.7897 327.306 52.6484C327.556 52.5072 327.752 52.3089 327.894 52.0537C328.035 51.7985 328.105 51.5 328.105 51.1582ZM331.359 57.8301C331.359 57.6159 331.425 57.4359 331.558 57.29C331.694 57.1396 331.89 57.0645 332.146 57.0645C332.401 57.0645 332.594 57.1396 332.727 57.29C332.863 57.4359 332.932 57.6159 332.932 57.8301C332.932 58.0397 332.863 58.2174 332.727 58.3633C332.594 58.5091 332.401 58.582 332.146 58.582C331.89 58.582 331.694 58.5091 331.558 58.3633C331.425 58.2174 331.359 58.0397 331.359 57.8301ZM339.05 48.4922V58.5H337.785V50.0713L335.235 51.001V49.8594L338.852 48.4922H339.05ZM349.29 57.4609V58.5H342.775V57.5908L346.036 53.9609C346.437 53.5143 346.747 53.1361 346.966 52.8262C347.189 52.5117 347.344 52.2314 347.431 51.9854C347.522 51.7347 347.567 51.4795 347.567 51.2197C347.567 50.8916 347.499 50.5954 347.362 50.3311C347.23 50.0622 347.034 49.848 346.774 49.6885C346.515 49.529 346.2 49.4492 345.831 49.4492C345.389 49.4492 345.02 49.5358 344.724 49.709C344.432 49.8776 344.213 50.1146 344.067 50.4199C343.922 50.7253 343.849 51.0762 343.849 51.4727H342.584C342.584 50.9121 342.707 50.3994 342.953 49.9346C343.199 49.4697 343.564 49.1006 344.047 48.8271C344.53 48.5492 345.125 48.4102 345.831 48.4102C346.46 48.4102 346.998 48.5218 347.444 48.7451C347.891 48.9639 348.233 49.2738 348.47 49.6748C348.711 50.0713 348.832 50.5361 348.832 51.0693C348.832 51.361 348.782 51.6572 348.682 51.958C348.586 52.2542 348.451 52.5505 348.278 52.8467C348.11 53.1429 347.911 53.4346 347.684 53.7217C347.46 54.0088 347.221 54.2913 346.966 54.5693L344.3 57.4609H349.29Z" fill="black"/>
<rect x="16" y="100.5" width="40" height="40" rx="20" fill="#212121"/>
<rect x="16.5" y="101" width="39" height="39" rx="19.5" stroke="#818BA6" stroke-opacity="0.2"/>
<path d="M33 113.5H21V119.5H27V128.5H33V113.5ZM45 128.5H38L44 113.5H51L45 128.5ZM38 119.5C38.7956 119.5 39.5587 119.184 40.1213 118.621C40.6839 118.059 41 117.296 41 116.5C41 115.704 40.6839 114.941 40.1213 114.379C39.5587 113.816 38.7956 113.5 38 113.5C37.2044 113.5 36.4413 113.816 35.8787 114.379C35.3161 114.941 35 115.704 35 116.5C35 117.296 35.3161 118.059 35.8787 118.621C36.4413 119.184 37.2044 119.5 38 119.5Z" fill="#EEEEEE"/>
</g>
</g>
<defs>
<clipPath id="clip0_1652_7031">
<rect width="358" height="164" fill="white" transform="translate(0 0.5)"/>
</clipPath>
<clipPath id="clip1_1652_7031">
<rect width="358" height="164" fill="white" transform="translate(0 0.5)"/>
</clipPath>
<clipPath id="clip2_1652_7031">
<rect width="358" height="164" fill="white" transform="translate(0 0.5)"/>
</clipPath>
<clipPath id="clip3_1652_7031">
<rect width="302" height="164" fill="white" transform="translate(0 0.5)"/>
</clipPath>
</defs>
</svg>
