<svg width="20" height="20" viewBox="0 0 20 20" fill="none" xmlns="http://www.w3.org/2000/svg">
<g id="alert-circle">
<path id="Vector" d="M10 1.875C5.51992 1.875 1.875 5.51992 1.875 10C1.875 14.4801 5.51992 18.125 10 18.125C14.4801 18.125 18.125 14.4801 18.125 10C18.125 5.51992 14.4801 1.875 10 1.875ZM10 14.3715C9.84548 14.3715 9.69444 14.3257 9.56596 14.2398C9.43748 14.154 9.33735 14.032 9.27822 13.8892C9.21909 13.7465 9.20362 13.5894 9.23376 13.4378C9.26391 13.2863 9.33831 13.1471 9.44757 13.0378C9.55683 12.9285 9.69604 12.8541 9.84759 12.824C9.99913 12.7939 10.1562 12.8093 10.299 12.8685C10.4417 12.9276 10.5637 13.0277 10.6496 13.1562C10.7354 13.2847 10.7812 13.4357 10.7812 13.5902C10.7812 13.7974 10.6989 13.9961 10.5524 14.1427C10.4059 14.2892 10.2072 14.3715 10 14.3715ZM10.8484 6.51406L10.6242 11.2797C10.6242 11.4454 10.5584 11.6044 10.4412 11.7216C10.3239 11.8388 10.165 11.9047 9.99922 11.9047C9.83346 11.9047 9.67449 11.8388 9.55728 11.7216C9.44007 11.6044 9.37422 11.4454 9.37422 11.2797L9.15 6.51641V6.51445C9.14509 6.39997 9.16339 6.28568 9.20381 6.17846C9.24424 6.07124 9.30594 5.97331 9.38521 5.89056C9.46448 5.80782 9.55967 5.74197 9.66506 5.69699C9.77045 5.65201 9.88385 5.62882 9.99844 5.62882C10.113 5.62882 10.2264 5.65201 10.3318 5.69699C10.4372 5.74197 10.5324 5.80782 10.6117 5.89056C10.6909 5.97331 10.7526 6.07124 10.7931 6.17846C10.8335 6.28568 10.8518 6.39997 10.8469 6.51445L10.8484 6.51406Z" fill="#1F1F1F"/>
</g>
</svg>
