<svg width="25" height="24" viewBox="0 0 25 24" fill="white" xmlns="http://www.w3.org/2000/svg">
<g id="Icons">
<g id="Vector">
<path d="M15.1363 10.4697C15.4292 10.1768 15.9041 10.1768 16.197 10.4697C16.4899 10.7626 16.4899 11.2374 16.197 11.5303L13.197 14.5303C12.9041 14.8232 12.4292 14.8232 12.1363 14.5303L9.13634 11.5303C8.84345 11.2374 8.84345 10.7626 9.13634 10.4697C9.42923 10.1768 9.90411 10.1768 10.197 10.4697L11.9167 12.1893V4C11.9167 3.58579 12.2525 3.25 12.6667 3.25C13.0809 3.25 13.4167 3.58579 13.4167 4V12.1893L15.1363 10.4697Z"/>
<path d="M21.4167 12C21.4167 11.5858 21.0809 11.25 20.6667 11.25C20.2525 11.25 19.9167 11.5858 19.9167 12C19.9167 16.0041 16.6707 19.25 12.6667 19.25C8.66261 19.25 5.41667 16.0041 5.41667 12C5.41667 11.5858 5.08088 11.25 4.66667 11.25C4.25246 11.25 3.91667 11.5858 3.91667 12C3.91667 16.8325 7.83418 20.75 12.6667 20.75C17.4992 20.75 21.4167 16.8325 21.4167 12Z"/>
</g>
</g>
</svg>
