<svg width="25" height="24" viewBox="0 0 25 24" fill="white" xmlns="http://www.w3.org/2000/svg">
<g id="Coin">
<path id="Vector" d="M22.0049 10.4589L21.904 10.0308H12.5987V13.9692H18.1585C17.5813 16.7103 14.9027 18.1531 12.7147 18.1531C11.1228 18.1531 9.44464 17.4835 8.33393 16.4071C7.74792 15.8302 7.28145 15.1433 6.96125 14.3859C6.64104 13.6284 6.47338 12.8152 6.46786 11.9929C6.46786 10.3339 7.21339 8.67455 8.29821 7.58304C9.38304 6.49152 11.0214 5.8808 12.6504 5.8808C14.5161 5.8808 15.8531 6.87143 16.3531 7.32321L19.1518 4.53929C18.3308 3.81786 16.0754 2 12.5603 2C9.84821 2 7.24777 3.03884 5.34687 4.93348C3.47098 6.79911 2.5 9.49688 2.5 12C2.5 14.5031 3.41875 17.0661 5.23661 18.9464C7.17902 20.9518 9.92991 22 12.7625 22C15.3397 22 17.7826 20.9902 19.5237 19.158C21.2353 17.3545 22.1205 14.8589 22.1205 12.2429C22.1205 11.1415 22.0098 10.4875 22.0049 10.4589Z" fill-opacity="0.9"/>
</g>
</svg>
