<svg width="20" height="20" viewBox="0 0 20 20" fill="white" xmlns="http://www.w3.org/2000/svg">
<g id="Icons">
<g id="Vector">
<path d="M8.23145 3.54157C8.48915 2.81248 9.18451 2.29163 9.99992 2.29163C10.8153 2.29163 11.5107 2.81248 11.7684 3.54157C11.8834 3.86702 12.2405 4.0376 12.5659 3.92257C12.8914 3.80754 13.062 3.45046 12.9469 3.12501C12.5182 1.91211 11.3615 1.04163 9.99992 1.04163C8.6383 1.04163 7.4816 1.91211 7.0529 3.12501C6.93787 3.45046 7.10845 3.80754 7.4339 3.92257C7.75935 4.0376 8.11642 3.86702 8.23145 3.54157Z"/>
<path d="M2.29156 4.99996C2.29156 4.65478 2.57139 4.37496 2.91656 4.37496H17.0833C17.4285 4.37496 17.7083 4.65478 17.7083 4.99996C17.7083 5.34514 17.4285 5.62496 17.0833 5.62496H2.91656C2.57139 5.62496 2.29156 5.34514 2.29156 4.99996Z"/>
<path d="M4.26395 6.45968C4.60836 6.43671 4.90617 6.6973 4.92914 7.04172L5.31242 12.791C5.3873 13.9142 5.44066 14.6957 5.5578 15.2837C5.67142 15.8541 5.83003 16.156 6.05788 16.3692C6.28572 16.5823 6.59752 16.7205 7.17419 16.7959C7.76869 16.8737 8.55203 16.875 9.67773 16.875H10.3222C11.4479 16.875 12.2312 16.8737 12.8257 16.7959C13.4024 16.7205 13.7142 16.5823 13.9421 16.3692C14.1699 16.156 14.3285 15.8541 14.4421 15.2837C14.5593 14.6957 14.6126 13.9142 14.6875 12.791L15.0708 7.04172C15.0938 6.6973 15.3916 6.43671 15.736 6.45968C16.0804 6.48264 16.341 6.78045 16.318 7.12487L15.9318 12.918C15.8606 13.9869 15.803 14.8504 15.668 15.5279C15.5277 16.2324 15.289 16.8208 14.796 17.282C14.303 17.7432 13.7001 17.9422 12.9879 18.0354C12.3028 18.125 11.4375 18.125 10.3661 18.125H9.63378C8.56246 18.125 7.69709 18.125 7.01206 18.0354C6.29985 17.9422 5.69689 17.7432 5.2039 17.282C4.7109 16.8208 4.47222 16.2324 4.33189 15.5279C4.19691 14.8504 4.13936 13.9869 4.06811 12.918L3.6819 7.12487C3.65894 6.78045 3.91953 6.48264 4.26395 6.45968Z"/>
</g>
</g>
</svg>
