<svg width="361" height="208" viewBox="0 0 361 208" fill="none" xmlns="http://www.w3.org/2000/svg">
<path d="M13.6774 35.3613L2.69451 51.4785C2.24201 52.1425 2 52.9275 2 53.731V177.447C2 179.656 3.79087 181.447 6.00001 181.447H354.849C357.058 181.447 358.849 179.656 358.849 177.447V116.042C358.849 113.855 357.067 112.122 354.935 111.635C343.266 108.973 337.023 95.409 334.035 85.0288C333.215 82.1802 329.761 80.9001 327.412 82.7078L321.625 87.1608C319.811 88.5568 317.197 88.1484 315.895 86.2654L306.579 72.7905C305.163 70.7428 302.241 70.4718 300.473 72.2243L299.229 73.4572C297.372 75.2974 294.278 74.8913 292.96 72.6343L283.041 55.6601C281.44 52.9199 277.438 53.0464 276.013 55.8823L265.086 77.6288C264.21 79.3722 262.204 80.2293 260.339 79.657L253.971 77.7034C252.72 77.3194 251.359 77.5722 250.329 78.3803L242.917 84.1951C241.078 85.6379 238.399 85.203 237.11 83.2525L231.005 74.0079C229.78 72.1536 227.279 71.653 225.435 72.8932L216.686 78.7773C215.076 79.8596 212.923 79.6316 211.576 78.2363L208.832 75.395C206.417 72.8926 201.938 74.4556 200.912 77.779C198.697 84.9514 194.747 89.9837 191.749 92.6938C190.635 93.7011 188.991 93.7838 187.804 92.8626C175.911 83.6282 171.005 55.3049 169.636 37.1595C169.415 34.2275 166.145 32.5112 163.654 34.0737C161.823 35.2224 159.404 34.6197 158.325 32.7461L148.958 16.47C147.771 14.4078 145.057 13.8313 143.134 15.2331L140.216 17.3608C138.313 18.7481 135.63 18.1996 134.424 16.1769L129.999 8.75475C128.137 5.6314 123.286 6.39055 122.134 9.83952C113.561 35.5052 97.8773 36.0305 88.6224 31.9267C87.0148 31.2139 85.1056 31.3419 83.7829 32.5007L79.8576 35.9398C78.1858 37.4044 75.6406 37.2253 74.1904 35.541L72.2349 33.2698C70.2808 31.0001 66.6172 31.6041 65.4951 34.3809L56.0429 57.7695C54.8751 60.6591 50.9975 61.1622 49.131 58.6663L43.2856 50.8498C42.1546 49.3374 40.12 48.8221 38.4054 49.6138L35.2111 51.0888C33.447 51.9034 31.3527 51.3324 30.2461 49.7351L20.2709 35.336C18.6728 33.029 15.2578 33.0422 13.6774 35.3613Z" fill="url(#paint0_linear_1439_32025)"/>
<path d="M2 52.4977L13.6774 35.3613C15.2578 33.0422 18.6728 33.029 20.2709 35.336L30.2461 49.7351C31.3527 51.3324 33.447 51.9034 35.2111 51.0888L38.4054 49.6138C40.12 48.8221 42.1546 49.3374 43.2856 50.8498L49.131 58.6663C50.9975 61.1622 54.8751 60.6591 56.0429 57.7695L65.4951 34.3809C66.6172 31.6041 70.2808 31.0001 72.2349 33.2698L74.1904 35.541C75.6406 37.2253 78.1858 37.4044 79.8576 35.9398L83.7829 32.5007C85.1056 31.3419 87.0148 31.2139 88.6224 31.9267C97.8773 36.0305 113.561 35.5052 122.134 9.83952C123.286 6.39055 128.137 5.6314 129.999 8.75475L134.424 16.1769C135.63 18.1996 138.313 18.7481 140.216 17.3608L143.134 15.2331C145.057 13.8313 147.771 14.4078 148.958 16.47L158.325 32.7461C159.404 34.6197 161.823 35.2224 163.654 34.0737V34.0737C166.145 32.5112 169.415 34.2275 169.636 37.1595C171.005 55.3049 175.911 83.6282 187.804 92.8626C188.991 93.7838 190.635 93.7011 191.749 92.6938C194.747 89.9837 198.697 84.9514 200.912 77.779C201.938 74.4556 206.417 72.8926 208.832 75.395L211.576 78.2363C212.923 79.6316 215.076 79.8596 216.686 78.7773L225.435 72.8932C227.279 71.653 229.78 72.1536 231.005 74.0079L237.11 83.2525C238.399 85.203 241.078 85.6379 242.917 84.1951L250.329 78.3803C251.359 77.5722 252.72 77.3194 253.971 77.7034L260.339 79.657C262.204 80.2293 264.21 79.3722 265.086 77.6288L276.013 55.8823C277.438 53.0464 281.44 52.9199 283.041 55.6601L292.96 72.6343C294.278 74.8913 297.372 75.2974 299.229 73.4572L300.473 72.2243C302.241 70.4718 305.163 70.7428 306.579 72.7904L315.895 86.2654C317.197 88.1484 319.811 88.5568 321.625 87.1608L327.412 82.7078C329.761 80.9001 333.217 82.1798 334.045 85.0264C337.384 96.5179 344.778 111.922 358.997 112.123" stroke="#7D7D7D" stroke-width="3" stroke-linecap="round"/>
<defs>
<linearGradient id="paint0_linear_1439_32025" x1="181.213" y1="23.2334" x2="181.213" y2="181.447" gradientUnits="userSpaceOnUse">
<stop stop-color="#EAEAEA"/>
<stop offset="0.932292" stop-color="#D9D9D9" stop-opacity="0"/>
</linearGradient>
</defs>
</svg>
