<svg width="17" height="16" viewBox="0 0 17 16" fill="white" xmlns="http://www.w3.org/2000/svg">
<g id="Icons">
<path id="Vector" fill-rule="evenodd" clip-rule="evenodd" d="M15.1666 8.00004C15.1666 11.6819 12.1818 14.6667 8.49992 14.6667C4.81802 14.6667 1.83325 11.6819 1.83325 8.00004C1.83325 4.31814 4.81802 1.33337 8.49992 1.33337C12.1818 1.33337 15.1666 4.31814 15.1666 8.00004ZM11.1868 5.97982C11.3821 6.17508 11.3821 6.49167 11.1868 6.68693L7.85347 10.0203C7.65821 10.2155 7.34163 10.2155 7.14637 10.0203L5.81303 8.68693C5.61777 8.49167 5.61777 8.17508 5.81303 7.97982C6.00829 7.78456 6.32488 7.78456 6.52014 7.97982L7.49992 8.9596L8.98981 7.46971L10.4797 5.97982C10.675 5.78456 10.9915 5.78456 11.1868 5.97982Z"/>
</g>
</svg>
