<svg width="16" height="16" viewBox="0 0 16 16" fill="white" xmlns="http://www.w3.org/2000/svg">
<g id="Icons" clip-path="url(#clip0_426_3697)">
<g id="Vector">
<path d="M6.68685 5.97969C6.49158 5.78443 6.175 5.78443 5.97974 5.97969C5.78448 6.17495 5.78448 6.49153 5.97974 6.6868L7.29286 7.99992L5.97975 9.31302C5.78449 9.50828 5.78449 9.82487 5.97975 10.0201C6.17502 10.2154 6.4916 10.2154 6.68686 10.0201L7.99997 8.70702L9.31306 10.0201C9.50832 10.2154 9.8249 10.2154 10.0202 10.0201C10.2154 9.82485 10.2154 9.50827 10.0202 9.31301L8.70707 7.99992L10.0202 6.68681C10.2154 6.49155 10.2154 6.17496 10.0202 5.9797C9.82492 5.78444 9.50834 5.78444 9.31307 5.9797L7.99997 7.29281L6.68685 5.97969Z"/>
<path fill-rule="evenodd" clip-rule="evenodd" d="M7.99998 0.833252C4.04194 0.833252 0.833313 4.04188 0.833313 7.99992C0.833313 11.958 4.04194 15.1666 7.99998 15.1666C11.958 15.1666 15.1666 11.958 15.1666 7.99992C15.1666 4.04188 11.958 0.833252 7.99998 0.833252ZM1.83331 7.99992C1.83331 4.59416 4.59422 1.83325 7.99998 1.83325C11.4057 1.83325 14.1666 4.59416 14.1666 7.99992C14.1666 11.4057 11.4057 14.1666 7.99998 14.1666C4.59422 14.1666 1.83331 11.4057 1.83331 7.99992Z"/>
</g>
</g>
<defs>
<clipPath id="clip0_426_3697">
<rect width="16" height="16" fill="white"/>
</clipPath>
</defs>
</svg>
