<svg width="24" height="25" viewBox="0 0 24 25" fill="none" xmlns="http://www.w3.org/2000/svg">
<g id="close">
<path id="Vector" fill-rule="evenodd" clip-rule="evenodd" d="M7.28033 6.71967C6.98744 6.42678 6.51256 6.42678 6.21967 6.71967C5.92678 7.01256 5.92678 7.48744 6.21967 7.78033L10.9393 12.5L6.21967 17.2197C5.92678 17.5126 5.92678 17.9874 6.21967 18.2803C6.51256 18.5732 6.98744 18.5732 7.28033 18.2803L12 13.5607L16.7197 18.2803C17.0126 18.5732 17.4874 18.5732 17.7803 18.2803C18.0732 17.9874 18.0732 17.5126 17.7803 17.2197L13.0607 12.5L17.7803 7.78033C18.0732 7.48744 18.0732 7.01256 17.7803 6.71967C17.4874 6.42678 17.0126 6.42678 16.7197 6.71967L12 11.4393L7.28033 6.71967Z" fill="#7D7D7D"/>
</g>
</svg>
