<svg width="16" height="16" viewBox="0 0 16 16" fill="white" xmlns="http://www.w3.org/2000/svg">
<g id="Icons">
<path id="Vector" fill-rule="evenodd" clip-rule="evenodd" d="M10 0.833374H7.29572C6.07055 0.833364 5.10013 0.833355 4.34065 0.935464C3.55904 1.04055 2.9264 1.26196 2.4275 1.76087C1.92859 2.25978 1.70718 2.89241 1.60209 3.67403C1.49998 4.4335 1.49999 5.40392 1.5 6.62909V10.6667C1.5 11.9149 2.4147 12.9494 3.61034 13.1365C3.70232 13.6459 3.87835 14.0806 4.23223 14.4345C4.63351 14.8358 5.13876 15.0083 5.73883 15.089C6.31681 15.1667 7.05169 15.1667 7.96342 15.1667H10.0366C10.9483 15.1667 11.6832 15.1667 12.2612 15.089C12.8612 15.0083 13.3665 14.8358 13.7678 14.4345C14.169 14.0332 14.3416 13.5279 14.4223 12.9279C14.5 12.3499 14.5 11.615 14.5 10.7033V7.2968C14.5 6.38507 14.5 5.65019 14.4223 5.07221C14.3416 4.47214 14.169 3.96689 13.7678 3.56561C13.4139 3.21173 12.9791 3.0357 12.4698 2.94372C12.2827 1.74808 11.2482 0.833374 10 0.833374ZM11.4196 2.84749C11.2177 2.25753 10.6584 1.83337 10 1.83337H7.33333C6.06212 1.83337 5.15901 1.83444 4.4739 1.92655C3.80317 2.01672 3.41674 2.18584 3.1346 2.46798C2.85246 2.75012 2.68335 3.13655 2.59317 3.80727C2.50106 4.49238 2.5 5.39549 2.5 6.66671V10.6667C2.5 11.3251 2.92416 11.8844 3.51411 12.0863C3.49999 11.6796 3.49999 11.2198 3.5 10.7033V7.29679C3.49999 6.38506 3.49998 5.65019 3.57768 5.07221C3.65836 4.47214 3.83096 3.96689 4.23223 3.56561C4.63351 3.16433 5.13876 2.99173 5.73883 2.91106C6.31681 2.83335 7.05169 2.83336 7.96342 2.83337H10.0366C10.5531 2.83337 11.0129 2.83336 11.4196 2.84749ZM4.93934 4.27272C5.12385 4.08821 5.3829 3.96791 5.87208 3.90214C6.37565 3.83444 7.04306 3.83337 8 3.83337H10C10.9569 3.83337 11.6244 3.83444 12.1279 3.90214C12.6171 3.96791 12.8762 4.08821 13.0607 4.27272C13.2452 4.45722 13.3655 4.71627 13.4312 5.20545C13.4989 5.70902 13.5 6.37643 13.5 7.33337V10.6667C13.5 11.6237 13.4989 12.2911 13.4312 12.7946C13.3655 13.2838 13.2452 13.5429 13.0607 13.7274C12.8762 13.9119 12.6171 14.0322 12.1279 14.0979C11.6244 14.1656 10.9569 14.1667 10 14.1667H8C7.04306 14.1667 6.37565 14.1656 5.87208 14.0979C5.3829 14.0322 5.12385 13.9119 4.93934 13.7274C4.75483 13.5429 4.63453 13.2838 4.56877 12.7946C4.50106 12.2911 4.5 11.6237 4.5 10.6667V7.33337C4.5 6.37643 4.50106 5.70902 4.56877 5.20545C4.63453 4.71627 4.75483 4.45722 4.93934 4.27272Z"/>
</g>
</svg>
