<svg width="21" height="20" viewBox="0 0 21 20" fill="none" xmlns="http://www.w3.org/2000/svg">
<g id="copy">
<g id="Vector">
<path d="M16.4375 18.75H7.6875C6.94158 18.75 6.22621 18.4537 5.69876 17.9262C5.17132 17.3988 4.875 16.6834 4.875 15.9375V7.1875C4.875 6.44158 5.17132 5.72621 5.69876 5.19876C6.22621 4.67132 6.94158 4.375 7.6875 4.375H16.4375C17.1834 4.375 17.8988 4.67132 18.4262 5.19876C18.9537 5.72621 19.25 6.44158 19.25 7.1875V15.9375C19.25 16.6834 18.9537 17.3988 18.4262 17.9262C17.8988 18.4537 17.1834 18.75 16.4375 18.75Z" fill="white"/>
<path d="M6.75 3.125H15.9641C15.7696 2.57705 15.4104 2.10268 14.9356 1.76699C14.4609 1.43129 13.8939 1.2507 13.3125 1.25H4.5625C3.81658 1.25 3.10121 1.54632 2.57376 2.07376C2.04632 2.60121 1.75 3.31658 1.75 4.0625V12.8125C1.7507 13.3939 1.93129 13.9609 2.26699 14.4356C2.60268 14.9104 3.07705 15.2696 3.625 15.4641V6.25C3.625 5.4212 3.95424 4.62634 4.54029 4.04029C5.12634 3.45424 5.9212 3.125 6.75 3.125Z" fill="white"/>
</g>
</g>
</svg>
