<svg width="20" height="20" viewBox="0 0 20 20" fill="white" xmlns="http://www.w3.org/2000/svg">
<g id="ellipsis-horizontal">
<g id="Vector">
<path d="M10 11.875C11.0355 11.875 11.875 11.0355 11.875 10C11.875 8.96447 11.0355 8.125 10 8.125C8.96447 8.125 8.125 8.96447 8.125 10C8.125 11.0355 8.96447 11.875 10 11.875Z"/>
<path d="M16.25 11.875C17.2855 11.875 18.125 11.0355 18.125 10C18.125 8.96447 17.2855 8.125 16.25 8.125C15.2145 8.125 14.375 8.96447 14.375 10C14.375 11.0355 15.2145 11.875 16.25 11.875Z"/>
<path d="M3.75 11.875C4.78553 11.875 5.625 11.0355 5.625 10C5.625 8.96447 4.78553 8.125 3.75 8.125C2.71447 8.125 1.875 8.96447 1.875 10C1.875 11.0355 2.71447 11.875 3.75 11.875Z"/>
</g>
</g>
</svg>
