<svg width="20" height="20" viewBox="0 0 20 20" fill="white" xmlns="http://www.w3.org/2000/svg">
<g id="Icons">
<path id="Vector (Stroke)" fill-rule="evenodd" clip-rule="evenodd" d="M17.0149 2.98556C17.2589 3.22964 17.2589 3.62537 17.0149 3.86945L3.86986 17.0144C3.62578 17.2585 3.23005 17.2585 2.98597 17.0144C2.7419 16.7704 2.7419 16.3746 2.98597 16.1306L4.62878 14.4878C3.44549 13.4076 2.45465 11.9645 1.71743 10.2471C1.64967 10.0893 1.64986 9.91053 1.71795 9.75284C2.57112 7.77684 3.75632 6.16133 5.18298 5.03906C6.60394 3.91472 8.26361 3.28976 10.0001 3.28976C11.57 3.28976 13.068 3.80191 14.3911 4.72541L16.131 2.98556C16.3751 2.74149 16.7708 2.74149 17.0149 2.98556ZM13.4911 5.62547C12.4049 4.91375 11.2178 4.53976 10.0001 4.53976C8.57353 4.53976 7.18183 5.05123 5.95795 6.01984L5.95645 6.02102C4.77813 6.94775 3.75021 8.29637 2.97503 10.0013C3.6493 11.4917 4.51903 12.707 5.51373 13.6028L7.29536 11.8212C6.94291 11.3023 6.73841 10.6784 6.73841 10.001C6.73841 8.19538 8.19452 6.73767 10.0001 6.73767C10.6693 6.73767 11.3007 6.94094 11.8222 7.29429L13.4911 5.62547ZM10.9113 8.20525C10.6386 8.06626 10.3278 7.98767 10.0001 7.98767C8.88565 7.98767 7.98841 8.88496 7.98841 10.001C7.98841 10.331 8.06608 10.6387 8.20579 10.9107L10.9113 8.20525ZM15.8309 6.87916C16.1067 6.67157 16.4985 6.72685 16.7061 7.00263C17.3123 7.80799 17.8405 8.73094 18.2821 9.75209C18.3505 9.91026 18.3505 10.0896 18.2822 10.2479C16.5807 14.1899 13.5026 16.7102 10.0001 16.7102C9.21284 16.7102 8.4369 16.5824 7.69222 16.3339C7.3648 16.2246 7.18795 15.8706 7.29723 15.5431C7.4065 15.2157 7.76052 15.0389 8.08794 15.1482C8.7066 15.3546 9.34899 15.4602 10.0001 15.4602C12.7776 15.4602 15.4337 13.4983 17.0247 10.0003C16.6423 9.16039 16.1999 8.40864 15.7074 7.75438C15.4998 7.4786 15.5551 7.08675 15.8309 6.87916ZM12.6984 9.85346C13.0381 9.91456 13.264 10.2395 13.2029 10.5792C12.9634 11.9107 11.9162 12.9603 10.5852 13.2019C10.2456 13.2635 9.92029 13.0382 9.85863 12.6986C9.79698 12.3589 10.0223 12.0336 10.3619 11.972C11.1793 11.8236 11.8254 11.1764 11.9726 10.358C12.0337 10.0182 12.3586 9.79236 12.6984 9.85346Z"/>
</g>
</svg>
