<svg width="20" height="20" viewBox="0 0 20 20" fill="none" xmlns="http://www.w3.org/2000/svg">
<g id="funnel">
<path id="Vector" fill-rule="evenodd" clip-rule="evenodd" d="M1.79814 1.875L18.2029 1.875C18.4269 1.87535 18.6462 1.93992 18.8347 2.06106C19.0231 2.18219 19.1729 2.35482 19.2663 2.55848C19.3597 2.76214 19.3927 2.9883 19.3615 3.21016C19.3303 3.43198 19.2361 3.64021 19.0902 3.81018L19.0902 3.81027L12.5043 11.4836C12.5027 11.4855 12.5011 11.4874 12.4994 11.4892C12.4991 11.4896 12.4989 11.4901 12.4988 11.4906V17.1862C12.4993 17.334 12.4647 17.4799 12.3979 17.6119C12.3307 17.7446 12.2328 17.8594 12.1124 17.9467C11.9919 18.034 11.8523 18.0913 11.7053 18.1138C11.5584 18.1363 11.4083 18.1235 11.2675 18.0765C11.2672 18.0764 11.267 18.0763 11.2668 18.0763L8.13699 17.0348L8.13417 17.0339C7.94747 16.9708 7.7855 16.8503 7.67139 16.6896C7.55803 16.5299 7.49767 16.3388 7.49878 16.143V11.4885C7.49872 11.4879 7.49849 11.4874 7.49812 11.487C7.49717 11.4859 7.49622 11.4848 7.49527 11.4837L0.907398 3.81027C0.761225 3.64002 0.666989 3.43136 0.635921 3.20913C0.604852 2.98689 0.638244 2.7604 0.732131 2.55658C0.826018 2.35276 0.97645 2.18019 1.16555 2.05936C1.35444 1.93867 1.57399 1.87469 1.79814 1.875ZM1.96655 3.125L8.4425 10.6681C8.63804 10.8935 8.74667 11.1815 8.74876 11.48C8.74877 11.4815 8.74878 11.4829 8.74878 11.4844V15.921L11.2488 16.7529V11.4844C11.2488 11.4834 11.2488 11.4825 11.2488 11.4815C11.2488 11.4803 11.2488 11.479 11.2488 11.4777C11.252 11.1793 11.3616 10.8919 11.5577 10.6672L18.031 3.125H1.96655Z" fill="#1F1F1F"/>
</g>
</svg>
