<svg width="24" height="24" viewBox="0 0 24 24" fill="none" xmlns="http://www.w3.org/2000/svg">
<g id="image">
<path id="Vector" fill-rule="evenodd" clip-rule="evenodd" d="M2.99976 6C2.99976 5.17157 3.67134 4.5 4.49976 4.5H19.4998C20.3282 4.5 20.9998 5.17157 20.9998 6V15.648L18.7825 13.7988L18.7816 13.7981C18.3499 13.4391 17.7996 13.2545 17.2388 13.2805C16.6781 13.3065 16.1473 13.5412 15.7508 13.9384L15.7505 13.9387L14.6296 15.0596L10.5303 10.968L10.53 10.9677L10.5299 10.9676C10.1243 10.5623 9.57931 10.3272 9.00618 10.3102C8.43285 10.2932 7.87467 10.4958 7.44574 10.8766L7.44533 10.877L2.99976 14.8296V6ZM13.5689 16.1202L9.47024 12.0293L9.46981 12.0288C9.3346 11.8936 9.15286 11.8152 8.96175 11.8095C8.77068 11.8039 8.58466 11.8714 8.44169 11.9983L8.4416 11.9983L2.99976 16.8367V18C2.99976 18.8284 3.67134 19.5 4.49976 19.5H10.1891L13.5689 16.1202ZM10.4916 21C10.497 21.0001 10.5025 21.0001 10.5079 21H19.4998C21.1566 21 22.4998 19.6569 22.4998 18V17.2556C22.4998 17.2522 22.4998 17.2487 22.4998 17.2453V6C22.4998 4.34315 21.1566 3 19.4998 3H4.49976C2.84291 3 1.49976 4.34315 1.49976 6V16.4968C1.49975 16.4991 1.49975 16.5014 1.49976 16.5037V18C1.49976 19.6569 2.84291 21 4.49976 21H10.4916ZM20.9998 17.6011V18C20.9998 18.8284 20.3282 19.5 19.4998 19.5H12.3105L16.8117 14.9988L16.8122 14.9983C16.9444 14.8658 17.1213 14.7876 17.3083 14.7789C17.4951 14.7702 17.6784 14.8316 17.8222 14.9511L17.8226 14.9514L20.9998 17.6011ZM14.9998 8.25C14.9998 7.83579 15.3356 7.5 15.7498 7.5C16.164 7.5 16.4998 7.83579 16.4998 8.25C16.4998 8.66421 16.164 9 15.7498 9C15.3356 9 14.9998 8.66421 14.9998 8.25ZM15.7498 6C14.5071 6 13.4998 7.00736 13.4998 8.25C13.4998 9.49264 14.5071 10.5 15.7498 10.5C16.9924 10.5 17.9998 9.49264 17.9998 8.25C17.9998 7.00736 16.9924 6 15.7498 6Z" fill="#1F1F1F"/>
</g>
</svg>
