<svg width="40" height="40" viewBox="0 0 40 40" fill="white" xmlns="http://www.w3.org/2000/svg">
<g id="Icons">
<path id="Vector" fill-rule="evenodd" clip-rule="evenodd" d="M18.2393 2.0835H21.7607C24.8236 2.08347 27.2497 2.08345 29.1484 2.33872C31.1024 2.60143 32.684 3.15496 33.9313 4.40224C35.1785 5.64951 35.7321 7.23109 35.9948 9.18512C36.25 11.0838 36.25 13.5099 36.25 16.5728V23.4275C36.25 26.4905 36.25 28.9165 35.9948 30.8152C35.7321 32.7692 35.1785 34.3508 33.9313 35.5981C32.684 36.8454 31.1024 37.3989 29.1484 37.6616C27.2497 37.9169 24.8236 37.9169 21.7607 37.9168H18.2393C15.1764 37.9169 12.7503 37.9169 10.8516 37.6616C8.89759 37.3989 7.31601 36.8454 6.06874 35.5981C4.82147 34.3508 4.26794 32.7692 4.00523 30.8152C3.74995 28.9165 3.74997 26.4905 3.75 23.4275V16.5728C3.74997 13.5099 3.74995 11.0838 4.00523 9.18512C4.26794 7.23109 4.82147 5.64951 6.06874 4.40224C7.31601 3.15496 8.89759 2.60143 10.8516 2.33872C12.7503 2.08345 15.1764 2.08347 18.2393 2.0835ZM11.1847 4.81643C9.50793 5.04187 8.54186 5.46465 7.83651 6.17C7.13116 6.87535 6.70837 7.84143 6.48293 9.51824C6.25266 11.231 6.25 13.4888 6.25 16.6668V23.3335C6.25 26.5115 6.25266 28.7693 6.48293 30.4821C6.70837 32.1589 7.13116 33.125 7.83651 33.8303C8.54186 34.5357 9.50793 34.9585 11.1847 35.1839C12.8975 35.4142 15.1553 35.4168 18.3333 35.4168H21.6667C24.8447 35.4168 27.1025 35.4142 28.8153 35.1839C30.4921 34.9585 31.4581 34.5357 32.1635 33.8303C32.8688 33.125 33.2916 32.1589 33.5171 30.4821C33.7473 28.7693 33.75 26.5115 33.75 23.3335V16.6668C33.75 13.4888 33.7473 11.231 33.5171 9.51824C33.2916 7.84143 32.8688 6.87535 32.1635 6.17C31.4581 5.46465 30.4921 5.04187 28.8153 4.81643C27.1025 4.58615 24.8447 4.5835 21.6667 4.5835H18.3333C15.1553 4.5835 12.8975 4.58615 11.1847 4.81643ZM12.0833 13.3335C12.0833 12.6431 12.643 12.0835 13.3333 12.0835H26.6667C27.357 12.0835 27.9167 12.6431 27.9167 13.3335C27.9167 14.0239 27.357 14.5835 26.6667 14.5835H13.3333C12.643 14.5835 12.0833 14.0239 12.0833 13.3335ZM12.0833 20.0002C12.0833 19.3098 12.643 18.7502 13.3333 18.7502H26.6667C27.357 18.7502 27.9167 19.3098 27.9167 20.0002C27.9167 20.6905 27.357 21.2502 26.6667 21.2502H13.3333C12.643 21.2502 12.0833 20.6905 12.0833 20.0002ZM12.0833 26.6668C12.0833 25.9765 12.643 25.4168 13.3333 25.4168H21.6667C22.357 25.4168 22.9167 25.9765 22.9167 26.6668C22.9167 27.3572 22.357 27.9168 21.6667 27.9168H13.3333C12.643 27.9168 12.0833 27.3572 12.0833 26.6668Z"/>
</g>
</svg>
