<svg width="24" height="24" viewBox="0 0 24 24" fill="none" xmlns="http://www.w3.org/2000/svg">
<g id="notifications">
<path id="Vector" fill-rule="evenodd" clip-rule="evenodd" d="M9.22343 3.77601C9.55888 2.64942 10.5427 1.5 11.9999 1.5C13.4575 1.5 14.4404 2.64947 14.7784 3.77394C14.7801 3.77603 14.7823 3.77868 14.7853 3.78172C14.7922 3.78895 14.8 3.79559 14.8075 3.80075C14.8131 3.80467 14.8165 3.80636 14.8169 3.80656C15.6652 4.15582 16.6636 4.71371 17.4446 5.73514C18.2318 6.76478 18.7438 8.19413 18.7438 10.1883C18.7438 12.1765 18.9536 13.2668 19.2625 14.0153C19.5334 14.6716 19.8895 15.103 20.3963 15.7168C20.4703 15.8065 20.5476 15.9 20.6282 15.9987L20.6284 15.999C21.5625 17.1431 20.6805 18.75 19.2417 18.75H15.7499C15.7499 19.7446 15.3548 20.6984 14.6516 21.4016C13.9483 22.1049 12.9945 22.5 11.9999 22.5C11.0054 22.5 10.0515 22.1049 9.34828 21.4016C8.64502 20.6984 8.24993 19.7446 8.24993 18.75H4.7629C3.32674 18.75 2.42986 17.1513 3.37164 15.9987C3.45235 15.9 3.52964 15.8063 3.60371 15.7166C4.11044 15.1029 4.46665 14.6714 4.73773 14.0151C5.04692 13.2666 5.25719 12.1763 5.25837 10.1883M9.74993 18.75C9.74993 19.3467 9.98699 19.919 10.4089 20.341C10.8309 20.7629 11.4032 21 11.9999 21C12.5967 21 13.169 20.7629 13.5909 20.341C14.0129 19.919 14.2499 19.3467 14.2499 18.75H9.74993ZM4.7629 17.25C4.60875 17.25 4.53936 17.1791 4.51148 17.1245C4.49543 17.093 4.49062 17.0625 4.49293 17.0369C4.49497 17.0144 4.50333 16.9844 4.53318 16.9479L4.53322 16.9478C4.60566 16.8592 4.67864 16.7712 4.7517 16.6832C5.25444 16.0772 5.76114 15.4666 6.12412 14.5878C6.54136 13.5776 6.75717 12.2622 6.75837 10.1887V10.1883C6.75837 8.46069 7.19568 7.36809 7.74851 6.64523C8.30753 5.91428 9.03998 5.48863 9.75644 5.19357L9.75661 5.1935C10.1385 5.03643 10.5195 4.68648 10.6571 4.21761L10.6576 4.21574C10.871 3.48152 11.4225 3 11.9999 3C12.5774 3 13.129 3.48116 13.3452 4.2169L13.3458 4.2188C13.4826 4.67986 13.8595 5.03471 14.2457 5.19353C14.9606 5.48786 15.6934 5.91434 16.2529 6.64619C16.8062 7.3699 17.2438 8.4629 17.2438 10.1883C17.2438 12.2617 17.459 13.5773 17.876 14.5876C18.2387 15.4665 18.7455 16.0773 19.2483 16.6833C19.3213 16.7713 19.3942 16.8592 19.4666 16.9478C19.5136 17.0055 19.5174 17.0652 19.4869 17.1254C19.4585 17.1814 19.3902 17.25 19.2417 17.25H4.7629ZM9.22343 3.77601C9.22214 3.77755 9.22052 3.77936 9.21854 3.78141C9.21215 3.78803 9.20461 3.79442 9.19708 3.79961C9.19009 3.80443 9.1859 3.80631 9.1859 3.80631L9.18544 3.8065C8.3368 4.15597 7.338 4.71281 6.55702 5.73399C5.76987 6.76324 5.25844 8.19238 5.25837 10.1878" fill="#1F1F1F"/>
</g>
</svg>
