<svg width="24" height="24" viewBox="0 0 24 24" fill="none" xmlns="http://www.w3.org/2000/svg">
<g id="open">
<path id="Vector" fill-rule="evenodd" clip-rule="evenodd" d="M15 3C15 2.58579 15.3358 2.25 15.75 2.25H21C21.4142 2.25 21.75 2.58579 21.75 3V8.25C21.75 8.66421 21.4142 9 21 9C20.5858 9 20.25 8.66421 20.25 8.25V4.81066L11.0303 14.0303C10.7374 14.3232 10.2626 14.3232 9.96967 14.0303C9.67678 13.7374 9.67678 13.2626 9.96967 12.9697L19.1893 3.75H15.75C15.3358 3.75 15 3.41421 15 3ZM4.875 6.75C4.57663 6.75 4.29048 6.86853 4.0795 7.0795C3.86853 7.29048 3.75 7.57663 3.75 7.875V19.125C3.75 19.4234 3.86853 19.7095 4.0795 19.9205C4.29048 20.1315 4.57663 20.25 4.875 20.25H16.125C16.2727 20.25 16.419 20.2209 16.5555 20.1644C16.692 20.1078 16.816 20.025 16.9205 19.9205C17.025 19.816 17.1078 19.692 17.1644 19.5555C17.2209 19.419 17.25 19.2727 17.25 19.125V10.5C17.25 10.0858 17.5858 9.75 18 9.75C18.4142 9.75 18.75 10.0858 18.75 10.5V19.125C18.75 19.4697 18.6821 19.8111 18.5502 20.1295C18.4183 20.448 18.2249 20.7374 17.9812 20.9812C17.7374 21.2249 17.448 21.4183 17.1295 21.5502C16.8111 21.6821 16.4697 21.75 16.125 21.75H4.875C4.17881 21.75 3.51113 21.4734 3.01884 20.9812C2.52656 20.4889 2.25 19.8212 2.25 19.125V7.875C2.25 7.17881 2.52656 6.51113 3.01884 6.01884C3.51113 5.52656 4.17881 5.25 4.875 5.25H12.7256C13.1398 5.25 13.4756 5.58579 13.4756 6C13.4756 6.41421 13.1398 6.75 12.7256 6.75H4.875Z" fill="#1F1F1F"/>
</g>
</svg>
