<svg width="25" height="24" viewBox="0 0 25 24" fill="none" xmlns="http://www.w3.org/2000/svg">
<g id="person">
<g id="Vector">
<path d="M12.3334 12C9.85366 12 7.66928 9.67031 7.45834 6.80625C7.35053 5.35312 7.80053 4.00781 8.72397 3.01875C9.63335 2.03906 10.9177 1.5 12.3334 1.5C13.7396 1.5 15.0193 2.04375 15.9334 3.02812C16.8615 4.02656 17.3115 5.36719 17.2037 6.80625C16.9927 9.67031 14.8084 12 12.3334 12ZM12.3334 3C11.3396 3 10.4443 3.37031 9.82085 4.04062C9.18804 4.72031 8.87866 5.66719 8.95366 6.69844C9.10366 8.76094 10.6505 10.5047 12.3287 10.5047C14.0068 10.5047 15.5537 8.76094 15.7037 6.69844C15.7787 5.68125 15.4693 4.73906 14.8271 4.05C14.2084 3.37031 13.3177 3 12.3334 3Z" fill="#7D7D7D"/>
<path d="M20.5834 22.4999H4.08336C3.63336 22.4999 3.23023 22.3124 2.94898 21.9796C2.64429 21.614 2.52242 21.1171 2.61148 20.6155C3.00523 18.4218 4.24273 16.5749 6.18336 15.2859C7.90836 14.1374 10.0927 13.5046 12.3334 13.5046C14.574 13.5046 16.7584 14.1374 18.4834 15.2859C20.424 16.5796 21.6615 18.4218 22.0552 20.6155C22.1443 21.1171 22.0224 21.614 21.7177 21.9796C21.4365 22.3124 21.0334 22.4999 20.5834 22.4999ZM4.09273 20.9999H20.574C20.5834 20.9765 20.588 20.939 20.5787 20.878C19.8521 16.8421 15.7927 14.9999 12.3334 14.9999C8.87398 14.9999 4.81461 16.8421 4.08804 20.878C4.07867 20.939 4.08336 20.9765 4.09273 20.9999Z" fill="#7D7D7D"/>
</g>
</g>
</svg>
