<svg width="20" height="20" viewBox="0 0 20 20" fill="none" xmlns="http://www.w3.org/2000/svg">
<rect x="0.833333" y="0.833333" width="18.3333" height="18.3333" rx="9.16667" stroke="#DEDEDE" stroke-width="1.66667"/>
<mask id="path-2-inside-1_1143_6432" fill="white">
<path d="M10 0C12.3849 2.84397e-08 14.6913 0.852345 16.503 2.40326C18.3148 3.95417 19.5126 6.10152 19.8804 8.4579C20.2482 10.8143 19.7617 13.2245 18.5087 15.2538C17.2557 17.283 15.3188 18.7976 13.0473 19.5244L12.535 17.9231C14.4246 17.3186 16.0359 16.0586 17.0782 14.3705C18.1205 12.6824 18.5252 10.6774 18.2193 8.71716C17.9133 6.75693 16.9169 4.97059 15.4097 3.68042C13.9026 2.39025 11.984 1.6812 10 1.6812V0Z"/>
</mask>
<path d="M10 0C12.3849 2.84397e-08 14.6913 0.852345 16.503 2.40326C18.3148 3.95417 19.5126 6.10152 19.8804 8.4579C20.2482 10.8143 19.7617 13.2245 18.5087 15.2538C17.2557 17.283 15.3188 18.7976 13.0473 19.5244L12.535 17.9231C14.4246 17.3186 16.0359 16.0586 17.0782 14.3705C18.1205 12.6824 18.5252 10.6774 18.2193 8.71716C17.9133 6.75693 16.9169 4.97059 15.4097 3.68042C13.9026 2.39025 11.984 1.6812 10 1.6812V0Z" stroke="#434343" stroke-width="3.33333" mask="url(#path-2-inside-1_1143_6432)"/>
</svg>
