<svg width="44" height="44" viewBox="0 0 44 44" fill="white" xmlns="http://www.w3.org/2000/svg">
<g id="Icons">
<g id="Vector">
<path fill-rule="evenodd" clip-rule="evenodd" d="M20.6251 3.66675C20.6251 2.90736 21.2407 2.29175 22.0001 2.29175C32.8847 2.29175 41.7084 11.1155 41.7084 22.0001C41.7084 32.8847 32.8847 41.7084 22.0001 41.7084C11.1155 41.7084 2.29175 32.8847 2.29175 22.0001C2.29175 21.2407 2.90736 20.6251 3.66675 20.6251C4.42614 20.6251 5.04175 21.2407 5.04175 22.0001C5.04175 31.3659 12.6343 38.9584 22.0001 38.9584C31.3659 38.9584 38.9584 31.3659 38.9584 22.0001C38.9584 12.6343 31.3659 5.04175 22.0001 5.04175C21.2407 5.04175 20.6251 4.42614 20.6251 3.66675ZM22.0001 15.1251C22.7595 15.1251 23.3751 15.7407 23.3751 16.5001V22.4584H29.3334C30.0928 22.4584 30.7084 23.074 30.7084 23.8334C30.7084 24.5928 30.0928 25.2084 29.3334 25.2084H22.0001C21.2407 25.2084 20.6251 24.5928 20.6251 23.8334V16.5001C20.6251 15.7407 21.2407 15.1251 22.0001 15.1251Z"/>
<path fill-rule="evenodd" clip-rule="evenodd" d="M16.6826 4.39557C16.9561 5.10401 16.6035 5.90001 15.8951 6.17348C15.6358 6.27358 15.3795 6.37987 15.1265 6.49218C14.4325 6.80031 13.62 6.48744 13.3119 5.79337C13.0038 5.09929 13.3167 4.28685 14.0107 3.97873C14.305 3.84809 14.6031 3.72444 14.9047 3.60799C15.6132 3.33452 16.4092 3.68713 16.6826 4.39557ZM10.3542 7.7739C10.8779 8.32381 10.8567 9.19415 10.3068 9.71787C10.1057 9.90935 9.90935 10.1057 9.71786 10.3068C9.19415 10.8567 8.32381 10.8779 7.7739 10.3542C7.22399 9.83049 7.20276 8.96015 7.72647 8.41024C7.9488 8.17679 8.17679 7.9488 8.41024 7.72647C8.96015 7.20276 9.83049 7.22399 10.3542 7.7739ZM5.79336 13.3119C6.48743 13.62 6.8003 14.4325 6.49218 15.1265C6.37987 15.3795 6.27358 15.6358 6.17348 15.8951C5.90001 16.6035 5.10401 16.9561 4.39557 16.6826C3.68713 16.4092 3.33452 15.6132 3.60799 14.9047C3.72444 14.6031 3.84809 14.305 3.97873 14.0107C4.28685 13.3167 5.09929 13.0038 5.79336 13.3119Z"/>
</g>
</g>
</svg>
