<svg width="20" height="20" viewBox="0 0 20 20" fill="none" xmlns="http://www.w3.org/2000/svg">
<g id="qr-code">
<g id="Vector">
<path d="M15.9375 13.125H13.4375C13.2649 13.125 13.125 13.2649 13.125 13.4375V15.9375C13.125 16.1101 13.2649 16.25 13.4375 16.25H15.9375C16.1101 16.25 16.25 16.1101 16.25 15.9375V13.4375C16.25 13.2649 16.1101 13.125 15.9375 13.125Z" fill="#1F1F1F"/>
<path d="M12.8125 10.625H10.9375C10.7649 10.625 10.625 10.7649 10.625 10.9375V12.8125C10.625 12.9851 10.7649 13.125 10.9375 13.125H12.8125C12.9851 13.125 13.125 12.9851 13.125 12.8125V10.9375C13.125 10.7649 12.9851 10.625 12.8125 10.625Z" fill="#1F1F1F"/>
<path d="M18.4375 16.25H16.5625C16.3899 16.25 16.25 16.3899 16.25 16.5625V18.4375C16.25 18.6101 16.3899 18.75 16.5625 18.75H18.4375C18.6101 18.75 18.75 18.6101 18.75 18.4375V16.5625C18.75 16.3899 18.6101 16.25 18.4375 16.25Z" fill="#1F1F1F"/>
<path d="M18.4375 10.625H17.1875C17.0149 10.625 16.875 10.7649 16.875 10.9375V12.1875C16.875 12.3601 17.0149 12.5 17.1875 12.5H18.4375C18.6101 12.5 18.75 12.3601 18.75 12.1875V10.9375C18.75 10.7649 18.6101 10.625 18.4375 10.625Z" fill="#1F1F1F"/>
<path d="M12.1875 16.875H10.9375C10.7649 16.875 10.625 17.0149 10.625 17.1875V18.4375C10.625 18.6101 10.7649 18.75 10.9375 18.75H12.1875C12.3601 18.75 12.5 18.6101 12.5 18.4375V17.1875C12.5 17.0149 12.3601 16.875 12.1875 16.875Z" fill="#1F1F1F"/>
<path d="M17.5 1.25H11.875C11.5435 1.25 11.2255 1.3817 10.9911 1.61612C10.7567 1.85054 10.625 2.16848 10.625 2.5V8.125C10.625 8.45652 10.7567 8.77446 10.9911 9.00888C11.2255 9.2433 11.5435 9.375 11.875 9.375H17.5C17.8315 9.375 18.1495 9.2433 18.3839 9.00888C18.6183 8.77446 18.75 8.45652 18.75 8.125V2.5C18.75 2.16848 18.6183 1.85054 18.3839 1.61612C18.1495 1.3817 17.8315 1.25 17.5 1.25ZM16.25 6.5625C16.25 6.64538 16.2171 6.72487 16.1585 6.78347C16.0999 6.84208 16.0204 6.875 15.9375 6.875H13.4375C13.3546 6.875 13.2751 6.84208 13.2165 6.78347C13.1579 6.72487 13.125 6.64538 13.125 6.5625V4.0625C13.125 3.97962 13.1579 3.90013 13.2165 3.84153C13.2751 3.78292 13.3546 3.75 13.4375 3.75H15.9375C16.0204 3.75 16.0999 3.78292 16.1585 3.84153C16.2171 3.90013 16.25 3.97962 16.25 4.0625V6.5625Z" fill="#1F1F1F"/>
<path d="M8.125 1.25H2.5C2.16848 1.25 1.85054 1.3817 1.61612 1.61612C1.3817 1.85054 1.25 2.16848 1.25 2.5V8.125C1.25 8.45652 1.3817 8.77446 1.61612 9.00888C1.85054 9.2433 2.16848 9.375 2.5 9.375H8.125C8.45652 9.375 8.77446 9.2433 9.00888 9.00888C9.2433 8.77446 9.375 8.45652 9.375 8.125V2.5C9.375 2.16848 9.2433 1.85054 9.00888 1.61612C8.77446 1.3817 8.45652 1.25 8.125 1.25ZM6.875 6.5625C6.875 6.64538 6.84208 6.72487 6.78347 6.78347C6.72487 6.84208 6.64538 6.875 6.5625 6.875H4.0625C3.97962 6.875 3.90013 6.84208 3.84153 6.78347C3.78292 6.72487 3.75 6.64538 3.75 6.5625V4.0625C3.75 3.97962 3.78292 3.90013 3.84153 3.84153C3.90013 3.78292 3.97962 3.75 4.0625 3.75H6.5625C6.64538 3.75 6.72487 3.78292 6.78347 3.84153C6.84208 3.90013 6.875 3.97962 6.875 4.0625V6.5625Z" fill="#1F1F1F"/>
<path d="M8.125 10.625H2.5C2.16848 10.625 1.85054 10.7567 1.61612 10.9911C1.3817 11.2255 1.25 11.5435 1.25 11.875V17.5C1.25 17.8315 1.3817 18.1495 1.61612 18.3839C1.85054 18.6183 2.16848 18.75 2.5 18.75H8.125C8.45652 18.75 8.77446 18.6183 9.00888 18.3839C9.2433 18.1495 9.375 17.8315 9.375 17.5V11.875C9.375 11.5435 9.2433 11.2255 9.00888 10.9911C8.77446 10.7567 8.45652 10.625 8.125 10.625ZM6.875 15.9375C6.875 16.0204 6.84208 16.0999 6.78347 16.1585C6.72487 16.2171 6.64538 16.25 6.5625 16.25H4.0625C3.97962 16.25 3.90013 16.2171 3.84153 16.1585C3.78292 16.0999 3.75 16.0204 3.75 15.9375V13.4375C3.75 13.3546 3.78292 13.2751 3.84153 13.2165C3.90013 13.1579 3.97962 13.125 4.0625 13.125H6.5625C6.64538 13.125 6.72487 13.1579 6.78347 13.2165C6.84208 13.2751 6.875 13.3546 6.875 13.4375V15.9375Z" fill="#1F1F1F"/>
</g>
</g>
</svg>
