<svg width="16" height="16" viewBox="0 0 16 16" fill="white" xmlns="http://www.w3.org/2000/svg">
<g id="Icons">
<g clip-path="url(#clip0_438_9651)">
<g id="Vector">
<path d="M3.41945 3.52987C3.33337 3.65118 3.33337 3.82298 3.33337 4.16659C3.33337 4.51019 3.33337 4.68199 3.41945 4.8033C3.44982 4.8461 3.48719 4.88348 3.52999 4.91385C3.6513 4.99992 3.8231 4.99992 4.16671 4.99992C4.51031 4.99992 4.68212 4.99992 4.80342 4.91385C4.84623 4.88348 4.8836 4.8461 4.91397 4.8033C5.00004 4.68199 5.00004 4.51019 5.00004 4.16659C5.00004 3.82298 5.00004 3.65118 4.91397 3.52987C4.8836 3.48707 4.84623 3.4497 4.80342 3.41932C4.68212 3.33325 4.51031 3.33325 4.16671 3.33325C3.8231 3.33325 3.6513 3.33325 3.52999 3.41932C3.48719 3.4497 3.44982 3.48707 3.41945 3.52987Z"/>
<path fill-rule="evenodd" clip-rule="evenodd" d="M5.80281 0.860058C6.09772 0.888098 6.37254 0.948939 6.62462 1.10341C6.87131 1.25458 7.07871 1.46199 7.22988 1.70867C7.38436 1.96075 7.4452 2.23558 7.47324 2.53049C7.50006 2.81258 7.50005 3.15989 7.50004 3.57606L7.50004 4.36792C7.50006 4.96689 7.50008 5.46639 7.44677 5.86291C7.3905 6.28144 7.26672 6.6593 6.96307 6.96295C6.65942 7.2666 6.28156 7.39038 5.86303 7.44665C5.46651 7.49996 4.96704 7.49994 4.36806 7.49992L3.57624 7.49992C3.16007 7.49993 2.8127 7.49994 2.53061 7.47312C2.2357 7.44508 1.96087 7.38423 1.70879 7.22976C1.46211 7.07859 1.2547 6.87119 1.10353 6.6245C0.949061 6.37242 0.88822 6.09759 0.86018 5.80269C0.833357 5.52058 0.833365 5.17325 0.833374 4.75706V4.70815C0.833368 4.07478 0.833363 3.56396 0.87246 3.15277C0.91278 2.72871 0.998181 2.35924 1.20177 2.02701C1.40791 1.69062 1.69074 1.40779 2.02713 1.20165C2.35936 0.998059 2.72883 0.912658 3.15289 0.872338C3.56408 0.833241 4.07488 0.833246 4.70826 0.833252H4.75717C5.17336 0.833243 5.52071 0.833235 5.80281 0.860058ZM5.70816 1.85557C5.47901 1.83378 5.17951 1.83325 4.73338 1.83325C4.06901 1.83325 3.60584 1.83378 3.24754 1.86785C2.89668 1.90121 2.69833 1.96317 2.54963 2.05429C2.34779 2.17798 2.1781 2.34767 2.05441 2.54951C1.96329 2.69821 1.90133 2.89656 1.86797 3.24742C1.8339 3.60572 1.83337 4.06889 1.83337 4.73325C1.83337 5.17939 1.8339 5.47888 1.85569 5.70803C1.87677 5.92974 1.91417 6.03345 1.95617 6.102C2.02489 6.21413 2.11916 6.30841 2.23129 6.37712C2.29984 6.41913 2.40355 6.45652 2.62526 6.47761C2.85441 6.49939 3.1539 6.49992 3.60004 6.49992H4.33337C4.97605 6.49992 5.40776 6.49886 5.72978 6.45556C6.03742 6.4142 6.16909 6.34272 6.25596 6.25584C6.34284 6.16897 6.41432 6.0373 6.45569 5.72966C6.49898 5.40763 6.50004 4.97593 6.50004 4.33325V3.59992C6.50004 3.15378 6.49952 2.85429 6.47773 2.62514C6.45665 2.40343 6.41925 2.29972 6.37724 2.23117C6.30853 2.11904 6.21425 2.02477 6.10212 1.95605C6.03358 1.91405 5.92986 1.87665 5.70816 1.85557Z"/>
<path d="M11.0861 3.52987C11 3.65118 11 3.82298 11 4.16659C11 4.51019 11 4.68199 11.0861 4.8033C11.1165 4.8461 11.1539 4.88348 11.1967 4.91385C11.318 4.99992 11.4898 4.99992 11.8334 4.99992C12.177 4.99992 12.3488 4.99992 12.4701 4.91385C12.5129 4.88348 12.5503 4.8461 12.5806 4.8033C12.6667 4.68199 12.6667 4.51019 12.6667 4.16659C12.6667 3.82298 12.6667 3.65118 12.5806 3.52987C12.5503 3.48707 12.5129 3.4497 12.4701 3.41932C12.3488 3.33325 12.177 3.33325 11.8334 3.33325C11.4898 3.33325 11.318 3.33325 11.1967 3.41932C11.1539 3.4497 11.1165 3.48707 11.0861 3.52987Z"/>
<path fill-rule="evenodd" clip-rule="evenodd" d="M11.2429 0.833252H11.2918C11.9252 0.833246 12.436 0.833241 12.8472 0.872338C13.2713 0.912658 13.6407 0.998059 13.973 1.20165C14.3093 1.40779 14.5922 1.69062 14.7983 2.02701C15.0019 2.35924 15.0873 2.72871 15.1276 3.15277C15.1667 3.56396 15.1667 4.07477 15.1667 4.70814V4.75705C15.1667 5.17325 15.1667 5.52058 15.1399 5.80269C15.1119 6.09759 15.051 6.37242 14.8965 6.6245C14.7454 6.87119 14.538 7.07859 14.2913 7.22976C14.0392 7.38423 13.7644 7.44508 13.4695 7.47312C13.1874 7.49994 12.8401 7.49993 12.424 7.49992L11.632 7.49992C11.0331 7.49994 10.5336 7.49996 10.1371 7.44665C9.71853 7.39038 9.34066 7.2666 9.03701 6.96295C8.73337 6.6593 8.60959 6.28144 8.55332 5.86291C8.50001 5.46639 8.50002 4.96691 8.50004 4.36792V3.57613C8.50003 3.15993 8.50002 2.81259 8.52685 2.53049C8.55489 2.23558 8.61573 1.96075 8.7702 1.70867C8.92137 1.46199 9.12878 1.25458 9.37546 1.10341C9.62754 0.948939 9.90237 0.888098 10.1973 0.860058C10.4794 0.833235 10.8267 0.833243 11.2429 0.833252ZM10.2919 1.85557C10.0702 1.87665 9.96651 1.91405 9.89796 1.95605C9.78583 2.02477 9.69156 2.11904 9.62284 2.23117C9.58084 2.29972 9.54344 2.40343 9.52236 2.62514C9.50057 2.85429 9.50004 3.15378 9.50004 3.59992V4.33325C9.50004 4.97593 9.5011 5.40763 9.5444 5.72966C9.58576 6.0373 9.65724 6.16897 9.74412 6.25584C9.831 6.34272 9.96266 6.4142 10.2703 6.45556C10.5923 6.49886 11.024 6.49992 11.6667 6.49992H12.4C12.8462 6.49992 13.1457 6.49939 13.3748 6.47761C13.5965 6.45652 13.7002 6.41913 13.7688 6.37712C13.8809 6.30841 13.9752 6.21413 14.0439 6.102C14.0859 6.03345 14.1233 5.92974 14.1444 5.70803C14.1662 5.47889 14.1667 5.17939 14.1667 4.73325C14.1667 4.06889 14.1662 3.60572 14.1321 3.24742C14.0988 2.89656 14.0368 2.69821 13.9457 2.54951C13.822 2.34767 13.6523 2.17798 13.4505 2.05429C13.3018 1.96317 13.1034 1.90121 12.7525 1.86785C12.3942 1.83378 11.9311 1.83325 11.2667 1.83325C10.8206 1.83325 10.5211 1.83378 10.2919 1.85557Z"/>
<path d="M3.33337 11.8333C3.33337 11.4896 3.33337 11.3178 3.41945 11.1965C3.44982 11.1537 3.48719 11.1164 3.52999 11.086C3.6513 10.9999 3.8231 10.9999 4.16671 10.9999C4.51031 10.9999 4.68212 10.9999 4.80342 11.086C4.84623 11.1164 4.8836 11.1537 4.91397 11.1965C5.00004 11.3178 5.00004 11.4896 5.00004 11.8333C5.00004 12.1769 5.00004 12.3487 4.91397 12.47C4.8836 12.5128 4.84623 12.5501 4.80342 12.5805C4.68212 12.6666 4.51031 12.6666 4.16671 12.6666C3.8231 12.6666 3.6513 12.6666 3.52999 12.5805C3.48719 12.5501 3.44982 12.5128 3.41945 12.47C3.33337 12.3487 3.33337 12.1769 3.33337 11.8333Z"/>
<path fill-rule="evenodd" clip-rule="evenodd" d="M5.86303 8.55319C6.28156 8.60946 6.65942 8.73324 6.96307 9.03689C7.26672 9.34054 7.3905 9.7184 7.44677 10.1369C7.50008 10.5335 7.50006 11.0329 7.50004 11.6319L7.50004 12.4237C7.50005 12.8399 7.50006 13.1873 7.47324 13.4694C7.4452 13.7643 7.38436 14.0391 7.22988 14.2912C7.07871 14.5379 6.87131 14.7453 6.62462 14.8964C6.37254 15.0509 6.09772 15.1117 5.80281 15.1398C5.5207 15.1666 5.17337 15.1666 4.75717 15.1666H4.70827C4.07489 15.1666 3.56409 15.1666 3.15289 15.1275C2.72883 15.0872 2.35936 15.0018 2.02713 14.7982C1.69074 14.592 1.40791 14.3092 1.20177 13.9728C0.998181 13.6406 0.91278 13.2711 0.87246 12.8471C0.833363 12.4359 0.833368 11.9251 0.833374 11.2917V11.2428C0.833365 10.8266 0.833357 10.4793 0.86018 10.1972C0.88822 9.90225 0.949061 9.62742 1.10353 9.37534C1.2547 9.12865 1.46211 8.92125 1.70879 8.77008C1.96087 8.61561 2.2357 8.55476 2.53061 8.52672C2.81271 8.4999 3.16005 8.49991 3.57625 8.49992H4.36804C4.96703 8.4999 5.46651 8.49988 5.86303 8.55319ZM5.72978 9.54428C5.40776 9.50098 4.97605 9.49992 4.33337 9.49992H3.60004C3.1539 9.49992 2.85441 9.50045 2.62526 9.52224C2.40355 9.54332 2.29984 9.58071 2.23129 9.62272C2.11916 9.69143 2.02489 9.78571 1.95617 9.89784C1.91417 9.96639 1.87677 10.0701 1.85569 10.2918C1.8339 10.521 1.83337 10.8204 1.83337 11.2666C1.83337 11.931 1.8339 12.3941 1.86797 12.7524C1.90133 13.1033 1.96329 13.3016 2.05441 13.4503C2.1781 13.6522 2.34779 13.8219 2.54963 13.9455C2.69833 14.0367 2.89668 14.0986 3.24754 14.132C3.60584 14.1661 4.06901 14.1666 4.73338 14.1666C5.17951 14.1666 5.47901 14.1661 5.70816 14.1443C5.92986 14.1232 6.03358 14.0858 6.10212 14.0438C6.21425 13.9751 6.30853 13.8808 6.37724 13.7687C6.41925 13.7001 6.45665 13.5964 6.47773 13.3747C6.49952 13.1456 6.50004 12.8461 6.50004 12.3999V11.6666C6.50004 11.0239 6.49898 10.5922 6.45569 10.2702C6.41432 9.96254 6.34284 9.83088 6.25596 9.744C6.16909 9.65712 6.03742 9.58564 5.72978 9.54428Z"/>
<path d="M11.3078 8.49992L12.6667 8.49992V9.49992H11.3334C10.8548 9.49992 10.5335 9.50052 10.2886 9.52544C10.052 9.54951 9.9427 9.59205 9.8704 9.64036C9.77941 9.70116 9.70128 9.77929 9.64048 9.87028C9.59217 9.94258 9.54963 10.0519 9.52556 10.2885C9.50065 10.5334 9.50004 10.8547 9.50004 11.3333H8.50004L8.50004 11.3077C8.50003 10.8613 8.50002 10.4888 8.5307 10.1873C8.56281 9.87162 8.63262 9.57871 8.80901 9.31471C8.94277 9.11453 9.11465 8.94265 9.31483 8.80889C9.57883 8.63249 9.87174 8.56269 10.1874 8.53058C10.4889 8.4999 10.8614 8.49991 11.3078 8.49992Z"/>
<path d="M8.50004 14.6666V12.6666H9.50004V14.6666C9.50004 14.9427 9.27618 15.1666 9.00004 15.1666C8.7239 15.1666 8.50004 14.9427 8.50004 14.6666Z"/>
<path d="M15.1667 8.99992C15.1667 8.72378 14.9429 8.49992 14.6667 8.49992C14.3906 8.49992 14.1667 8.72378 14.1667 8.99992V11.3333H15.1667V8.99992Z"/>
<path d="M14.1667 12.6666C14.1667 12.9841 14.1664 13.1971 14.1552 13.3621C14.1442 13.5226 14.1246 13.6007 14.1033 13.6522C14.0187 13.8563 13.8565 14.0186 13.6523 14.1032C13.6008 14.1245 13.5227 14.1441 13.3622 14.1551C13.1972 14.1663 12.9842 14.1666 12.6667 14.1666H11.3334V15.1666H12.6835C12.9798 15.1666 13.2272 15.1666 13.4303 15.1527C13.6417 15.1383 13.8414 15.1072 14.035 15.027C14.4842 14.841 14.8411 14.4841 15.0272 14.0348C15.1073 13.8412 15.1384 13.6416 15.1529 13.4302C15.1667 13.2271 15.1667 12.9798 15.1667 12.6835V12.6666H14.1667Z"/>
<path d="M10.7791 10.9629C10.6667 11.131 10.6667 11.3651 10.6667 11.8333C10.6667 12.3014 10.6667 12.5355 10.7791 12.7036C10.8277 12.7764 10.8902 12.8389 10.963 12.8876C11.1311 12.9999 11.3652 12.9999 11.8334 12.9999C12.3015 12.9999 12.5356 12.9999 12.7038 12.8876C12.7765 12.8389 12.839 12.7764 12.8877 12.7036C13 12.5355 13 12.3014 13 11.8333C13 11.3651 13 11.131 12.8877 10.9629C12.839 10.8901 12.7765 10.8276 12.7038 10.7789C12.5356 10.6666 12.3015 10.6666 11.8334 10.6666C11.3652 10.6666 11.1311 10.6666 10.963 10.7789C10.8902 10.8276 10.8277 10.8901 10.7791 10.9629Z"/>
</g>
</g>
</g>
<defs>
<clipPath id="clip0_438_9651">
<rect width="16" height="16" rx="5" fill="white"/>
</clipPath>
</defs>
</svg>
