<svg width="24" height="24" viewBox="0 0 24 24" fill="none" xmlns="http://www.w3.org/2000/svg">
<g id="receipt">
<path id="Vector" fill-rule="evenodd" clip-rule="evenodd" d="M7.10512 1.61201C7.32623 1.47536 7.60234 1.46293 7.83483 1.57918L8.99942 2.16148L10.164 1.57918C10.3753 1.47352 10.6241 1.47361 10.8353 1.57943L11.9988 2.16228L13.1816 1.57765C13.3931 1.47313 13.6414 1.47418 13.852 1.5805L14.9999 2.1601L16.1524 1.58007C16.3641 1.47352 16.6137 1.4733 16.8256 1.57947L17.9881 2.16202L19.1663 1.57802C19.377 1.4736 19.6244 1.47402 19.8347 1.57914L20.9998 2.16148L22.1639 1.57922C22.3964 1.46294 22.6725 1.47534 22.8937 1.61199C23.1148 1.74864 23.2494 1.99005 23.2494 2.25V18C23.2494 19.1935 22.7753 20.3381 21.9314 21.182C21.0875 22.0259 19.9429 22.5 18.7494 22.5H5.24942C4.31348 22.5 3.52523 22.3473 2.87771 22.0216C2.21823 21.6898 1.74884 21.2006 1.4273 20.6074C0.815663 19.4792 0.749501 17.9777 0.749419 16.5028C0.748184 16.3057 0.785949 16.1104 0.860551 15.928C0.935642 15.7444 1.04655 15.5776 1.18681 15.4374C1.32706 15.2971 1.49385 15.1862 1.67744 15.1111C1.85979 15.0365 2.0551 14.9988 2.25208 15H6.74942V2.25C6.74942 1.99007 6.88401 1.74867 7.10512 1.61201ZM8.24942 15H14.9994C15.4136 15 15.7494 15.3358 15.7494 15.75V18C15.7494 18.7957 16.0655 19.5587 16.6281 20.1213C17.1907 20.6839 17.9538 21 18.7494 21C19.5451 21 20.3081 20.6839 20.8707 20.1213C21.4333 19.5587 21.7494 18.7957 21.7494 18V3.4637L21.3354 3.67078C21.1242 3.77638 20.8757 3.77641 20.6646 3.67086L19.498 3.08777L18.3194 3.67198C18.1085 3.77652 17.8607 3.77598 17.6503 3.67053L16.4903 3.08926L15.3366 3.66993C15.1242 3.77684 14.8737 3.77668 14.6614 3.66951L13.5104 3.08838L12.3289 3.67235C12.1182 3.77651 11.8709 3.77585 11.6607 3.67057L10.4991 3.08868L9.33483 3.67082C9.12368 3.77639 8.87515 3.77639 8.66401 3.67082L8.24942 3.46353V15ZM15.3953 21C14.6593 20.1772 14.2494 19.1097 14.2494 18V16.5H2.24942C2.24942 18.0242 2.34153 19.1465 2.74599 19.8926C2.93269 20.2369 3.18617 20.4977 3.55176 20.6816C3.92931 20.8715 4.46833 21 5.24942 21H15.3953ZM9.74942 6.75C9.74942 6.33579 10.0852 6 10.4994 6H19.4994C19.9136 6 20.2494 6.33579 20.2494 6.75C20.2494 7.16421 19.9136 7.5 19.4994 7.5H10.4994C10.0852 7.5 9.74942 7.16421 9.74942 6.75ZM12.7494 10.5C12.7494 10.0858 13.0852 9.75 13.4994 9.75H19.4994C19.9136 9.75 20.2494 10.0858 20.2494 10.5C20.2494 10.9142 19.9136 11.25 19.4994 11.25H13.4994C13.0852 11.25 12.7494 10.9142 12.7494 10.5Z" fill="#1F1F1F"/>
</g>
</svg>
