<svg width="21" height="20" viewBox="0 0 21 20" fill="none" xmlns="http://www.w3.org/2000/svg">
<g id="ellipsis-horizontal">
<g id="Vector">
<path d="M10.5 11.875C11.5355 11.875 12.375 11.0355 12.375 10C12.375 8.96447 11.5355 8.125 10.5 8.125C9.46447 8.125 8.625 8.96447 8.625 10C8.625 11.0355 9.46447 11.875 10.5 11.875Z" fill="white"/>
<path d="M16.75 11.875C17.7855 11.875 18.625 11.0355 18.625 10C18.625 8.96447 17.7855 8.125 16.75 8.125C15.7145 8.125 14.875 8.96447 14.875 10C14.875 11.0355 15.7145 11.875 16.75 11.875Z" fill="white"/>
<path d="M4.25 11.875C5.28553 11.875 6.125 11.0355 6.125 10C6.125 8.96447 5.28553 8.125 4.25 8.125C3.21447 8.125 2.375 8.96447 2.375 10C2.375 11.0355 3.21447 11.875 4.25 11.875Z" fill="white"/>
</g>
</g>
</svg>
