<svg width="20" height="20" viewBox="0 0 20 20" fill="none" xmlns="http://www.w3.org/2000/svg">
<g id="trash">
<path id="Vector" fill-rule="evenodd" clip-rule="evenodd" d="M8.43567 2.5C8.39484 2.49988 8.35438 2.50784 8.31664 2.52341C8.27889 2.53898 8.2446 2.56186 8.21572 2.59073C8.18685 2.6196 8.16397 2.6539 8.1484 2.69164C8.13283 2.72939 8.12488 2.76984 8.125 2.81067L8.125 2.8125V3.75H11.875V2.8125L11.875 2.81067C11.8751 2.76984 11.8672 2.72939 11.8516 2.69164C11.836 2.65389 11.8131 2.6196 11.7843 2.59073C11.7554 2.56186 11.7211 2.53898 11.6834 2.52341C11.6456 2.50784 11.6052 2.49988 11.5643 2.5L11.5625 2.5H8.4375L8.43567 2.5ZM5.04028 5L5.78003 16.836C5.78018 16.8383 5.78031 16.8406 5.78043 16.8429C5.80204 17.2636 6.0813 17.5 6.40625 17.5H13.5938C13.9155 17.5 14.1935 17.2688 14.2199 16.8369L14.9597 5H5.04028ZM15.6192 3.75H13.125V2.81343C13.1255 2.60814 13.0854 2.40477 13.0071 2.21498C12.9287 2.02492 12.8135 1.85223 12.6682 1.70684C12.5228 1.56146 12.3501 1.44626 12.16 1.36786C11.9703 1.28959 11.767 1.24954 11.5617 1.25H8.4383C8.23305 1.24954 8.02972 1.28959 7.83998 1.36786C7.64991 1.44626 7.47722 1.56146 7.33184 1.70684C7.18646 1.85223 7.07125 2.02492 6.99285 2.21498C6.91458 2.40473 6.87453 2.60805 6.875 2.8133V3.75H4.38077C4.37733 3.74998 4.37388 3.74998 4.37042 3.75H3.125C2.77982 3.75 2.5 4.02983 2.5 4.375C2.5 4.72018 2.77982 5 3.125 5H3.78784L4.53227 16.9108C4.58657 17.933 5.35748 18.75 6.40625 18.75H13.5938C14.6524 18.75 15.4056 17.9258 15.4676 16.9132C15.4676 16.9132 15.4676 16.9132 15.4676 16.9131L16.2122 5H16.875C17.2202 5 17.5 4.72018 17.5 4.375C17.5 4.02983 17.2202 3.75 16.875 3.75H15.6296C15.6261 3.74998 15.6227 3.74998 15.6192 3.75ZM7.16519 6.2504C7.51015 6.23808 7.79978 6.50774 7.8121 6.8527L8.1246 15.6027C8.13692 15.9477 7.86727 16.2373 7.52231 16.2496C7.17735 16.2619 6.88772 15.9923 6.8754 15.6473L6.5629 6.89731C6.55058 6.55235 6.82023 6.26272 7.16519 6.2504ZM12.8348 6.2504C13.1798 6.26272 13.4494 6.55235 13.4371 6.89731L13.1246 15.6473C13.1123 15.9923 12.8227 16.2619 12.4777 16.2496C12.1327 16.2373 11.8631 15.9477 11.8754 15.6027L12.1879 6.8527C12.2002 6.50774 12.4898 6.23808 12.8348 6.2504ZM10 6.25C10.3452 6.25 10.625 6.52983 10.625 6.875V15.625C10.625 15.9702 10.3452 16.25 10 16.25C9.65482 16.25 9.375 15.9702 9.375 15.625V6.875C9.375 6.52983 9.65482 6.25 10 6.25Z" fill="#7D7D7D"/>
</g>
</svg>
